<svg xmlns="http://www.w3.org/2000/svg" xmlns:xlink="http://www.w3.org/1999/xlink" width="743.596" height="410.771" viewBox="0 0 743.596 410.771">
  <defs>
    <linearGradient id="linear-gradient" x1="-0.247" y1="0.5" x2="1.034" y2="0.5" gradientUnits="objectBoundingBox">
      <stop offset="0" stop-color="#5761d7"/>
      <stop offset="0.16" stop-color="#5e67da"/>
      <stop offset="0.41" stop-color="#727ae2"/>
      <stop offset="0.69" stop-color="#9297ee"/>
      <stop offset="1" stop-color="#bcbeff"/>
    </linearGradient>
    <linearGradient id="linear-gradient-2" y1="0.5" x2="1" y2="0.5" gradientUnits="objectBoundingBox">
      <stop offset="0" stop-color="#42e8e0"/>
      <stop offset="0.15" stop-color="#43e3e0"/>
      <stop offset="0.33" stop-color="#45d5df"/>
      <stop offset="0.52" stop-color="#49bddd"/>
      <stop offset="0.72" stop-color="#4e9cdb"/>
      <stop offset="0.93" stop-color="#5472d8"/>
      <stop offset="1" stop-color="#5761d7"/>
    </linearGradient>
    <linearGradient id="linear-gradient-3" x1="0" y1="0.5" x2="1" y2="0.5" xlink:href="#linear-gradient-2"/>
    <linearGradient id="linear-gradient-6" x1="0" y1="0.5" x2="1" y2="0.5" xlink:href="#linear-gradient-2"/>
    <linearGradient id="linear-gradient-11" x1="0" y1="0.5" x2="1" y2="0.5" xlink:href="#linear-gradient-2"/>
    <linearGradient id="linear-gradient-13" x1="0" y1="0.5" x2="1" y2="0.5" xlink:href="#linear-gradient-2"/>
    <linearGradient id="linear-gradient-14" x1="0" y1="0.5" x2="1" y2="0.5" xlink:href="#linear-gradient-2"/>
    <linearGradient id="linear-gradient-15" x1="0.5" y1="0.777" x2="0.5" y2="0.021" gradientUnits="objectBoundingBox">
      <stop offset="0" stop-color="#c0bff6"/>
      <stop offset="0.29" stop-color="#c5c4f7"/>
      <stop offset="0.64" stop-color="#d3d2f9"/>
      <stop offset="1" stop-color="#e9e9fd"/>
    </linearGradient>
    <linearGradient id="linear-gradient-17" x1="29.889" y1="0.5" x2="30.89" y2="0.5" xlink:href="#linear-gradient-15"/>
    <linearGradient id="linear-gradient-18" x1="173.57" y1="0.5" x2="174.567" y2="0.5" gradientUnits="objectBoundingBox">
      <stop offset="0" stop-color="#5761d7"/>
      <stop offset="0.18" stop-color="#5c66d9"/>
      <stop offset="0.39" stop-color="#6a73df"/>
      <stop offset="0.61" stop-color="#8289e8"/>
      <stop offset="0.85" stop-color="#a3a7f5"/>
      <stop offset="1" stop-color="#bcbeff"/>
    </linearGradient>
    <linearGradient id="linear-gradient-19" x1="21.146" y1="0.5" x2="22.146" y2="0.5" xlink:href="#linear-gradient-18"/>
    <linearGradient id="linear-gradient-20" x1="21.473" y1="0.5" x2="22.473" y2="0.5" xlink:href="#linear-gradient-15"/>
    <linearGradient id="linear-gradient-21" x1="82.523" y1="0.498" x2="83.522" y2="0.498" xlink:href="#linear-gradient-15"/>
    <clipPath id="clip-path">
      <path id="SVGID" d="M122.984,132.82,26.44,188.56l11.979,70.584,96.468-55.709Z" transform="translate(-26.44 -132.82)" fill="none"/>
    </clipPath>
    <linearGradient id="linear-gradient-22" x1="21.473" y1="0.5" x2="22.474" y2="0.5" xlink:href="#linear-gradient-15"/>
    <linearGradient id="linear-gradient-23" x1="82.618" y1="0.502" x2="83.619" y2="0.502" xlink:href="#linear-gradient-15"/>
    <linearGradient id="linear-gradient-24" x1="-5.009" y1="0.5" x2="-4.008" y2="0.5" xlink:href="#linear-gradient-15"/>
    <linearGradient id="linear-gradient-25" x1="-33.924" y1="0.5" x2="-32.926" y2="0.5" xlink:href="#linear-gradient-18"/>
    <linearGradient id="linear-gradient-26" x1="-3.062" y1="0.5" x2="-2.062" y2="0.5" xlink:href="#linear-gradient-18"/>
    <linearGradient id="linear-gradient-27" x1="-2.724" y1="0.5" x2="-1.724" y2="0.5" xlink:href="#linear-gradient-15"/>
    <linearGradient id="linear-gradient-28" x1="-10.911" y1="0.498" x2="-9.911" y2="0.498" xlink:href="#linear-gradient-15"/>
    <clipPath id="clip-path-2">
      <path id="SVGID-2" data-name="SVGID" d="M450.383,132.82l96.544,55.74-11.979,70.584L438.48,203.435Z" transform="translate(-438.48 -132.82)" fill="none"/>
    </clipPath>
    <linearGradient id="linear-gradient-29" x1="-3.489" y1="0.5" x2="-2.488" y2="0.5" xlink:href="#linear-gradient-15"/>
    <linearGradient id="linear-gradient-30" x1="-15.746" y1="0.502" x2="-14.745" y2="0.502" xlink:href="#linear-gradient-15"/>
    <radialGradient id="radial-gradient" cx="0.572" cy="1.169" r="0.498" gradientTransform="matrix(0.864, -0.503, -0.502, -0.865, 20.162, 74.687)" gradientUnits="objectBoundingBox">
      <stop offset="0" stop-color="#42e8e0"/>
      <stop offset="1" stop-color="#42e8e0"/>
    </radialGradient>
    <radialGradient id="radial-gradient-2" cx="57.771" cy="14.864" r="0.5" gradientTransform="translate(0)" xlink:href="#radial-gradient"/>
    <radialGradient id="radial-gradient-3" cx="54.782" cy="3.841" r="0.5" gradientTransform="translate(0)" xlink:href="#radial-gradient"/>
    <radialGradient id="radial-gradient-4" cx="0.365" cy="1.245" r="0.497" gradientTransform="matrix(0.865, -0.503, -0.503, -0.865, 9.713, 36.03)" xlink:href="#radial-gradient"/>
    <radialGradient id="radial-gradient-5" cx="53.828" cy="0.459" r="0.5" gradientTransform="matrix(1, 0, 0, 1, 0, 0)" xlink:href="#radial-gradient"/>
    <radialGradient id="radial-gradient-6" cx="1.221" cy="0.793" r="0.501" gradientTransform="matrix(0.865, -0.503, -0.503, -0.865, 11.305, 42.059)" xlink:href="#radial-gradient"/>
    <radialGradient id="radial-gradient-7" cx="56.931" cy="11.904" r="0.5" gradientTransform="translate(0)" xlink:href="#radial-gradient"/>
    <radialGradient id="radial-gradient-8" cx="58.139" cy="16.222" r="0.5" gradientTransform="translate(0)" xlink:href="#radial-gradient"/>
    <radialGradient id="radial-gradient-9" cx="0.585" cy="1.171" r="0.497" gradientTransform="matrix(0.865, -0.503, -0.503, -0.865, 24.524, 90.973)" xlink:href="#radial-gradient"/>
    <radialGradient id="radial-gradient-10" cx="62.17" cy="31.094" r="0.5" gradientTransform="translate(0)" xlink:href="#radial-gradient"/>
    <radialGradient id="radial-gradient-11" cx="64.831" cy="41.076" r="0.5" gradientTransform="translate(0)" xlink:href="#radial-gradient"/>
    <radialGradient id="radial-gradient-12" cx="65.101" cy="42.235" r="0.5" gradientTransform="translate(0)" xlink:href="#radial-gradient"/>
  </defs>
  <g id="_812_Converted_" data-name="812 [Converted]" transform="translate(-31.002)">
    <g id="Ñëîé_1" data-name="Ñëîé 1" transform="translate(31.002)">
      <path id="Trazado_14223" data-name="Trazado 14223" d="M376.3,338.981a7.43,7.43,0,0,1-3.776-1.016l-58.227-33.6.5-.864,58.181,33.617a6.581,6.581,0,0,0,6.581,0l17.028-9.871,95.194-54.966a1.4,1.4,0,0,0,.7-1.213,1.364,1.364,0,0,0-.7-1.213l-98.727-57.014.5-.849,98.727,57a2.4,2.4,0,0,1,0,4.155l-95.194,54.921-17,9.9a7.673,7.673,0,0,1-3.791,1.016Z" transform="translate(127.37 68.725)" fill="#8686f2"/>
      <path id="Trazado_14224" data-name="Trazado 14224" d="M109.935,216.664l-.485-.849L178.4,176a7.915,7.915,0,0,1,7.87,0L218.5,194.6l-.5.864-32.237-18.605a6.869,6.869,0,0,0-6.869,0Z" transform="translate(21.603 49.601)" fill="#8686f2"/>
      <path id="Trazado_14225" data-name="Trazado 14225" d="M467.963,216.663l-68.947-39.8a6.869,6.869,0,0,0-6.869,0L359.91,195.465l-.5-.864L391.647,176a7.9,7.9,0,0,1,7.854,0l68.962,39.818Z" transform="translate(150.661 49.601)" fill="#8686f2"/>
      <g id="Grupo_27210" data-name="Grupo 27210" transform="translate(198.908)">
        <g id="Grupo_27190" data-name="Grupo 27190" transform="translate(0 206.962)">
          <g id="Grupo_27183" data-name="Grupo 27183">
            <path id="Trazado_14226" data-name="Trazado 14226" d="M212.608,246.373a5,5,0,0,1-2.441-.576l-54.86-31.63a1.941,1.941,0,0,1-1.107-1.653,2.517,2.517,0,0,1,1.516-2.032l54.132-31.266a6.065,6.065,0,0,1,5.535-.212l54.875,31.691a1.88,1.88,0,0,1,1.092,1.638,2.532,2.532,0,0,1-1.516,2.047L215.7,245.63A6.444,6.444,0,0,1,212.608,246.373Zm-2.017-1.319a5.277,5.277,0,0,0,4.7-.212l54.132-31.251a1.744,1.744,0,0,0,1.031-1.3,1.168,1.168,0,0,0-.667-.91L214.913,179.7a5.292,5.292,0,0,0-4.685.212L156.1,211.134c-.652.379-1.046.864-1.046,1.3a1.137,1.137,0,0,0,.682.91Z" transform="translate(-154.2 -155.561)" fill="#8686f2"/>
            <g id="Grupo_27182" data-name="Grupo 27182" transform="translate(0.152)">
              <g id="Grupo_27178" data-name="Grupo 27178">
                <path id="Trazado_14227" data-name="Trazado 14227" d="M278.809,158.68v6.732l-58.272,33.647L162.28,165.412V158.68Z" transform="translate(-162.28 -125.033)" fill="url(#linear-gradient)"/>
                <path id="Trazado_14228" data-name="Trazado 14228" d="M220.537,203.769,162.28,170.137l58.257-33.647,58.272,33.647Z" transform="translate(-162.28 -136.49)" fill="#bcbeff"/>
                <path id="Trazado_14229" data-name="Trazado 14229" d="M220.537,191.673l-57.59-33.253-.667.394,58.257,33.632,58.272-33.632-.682-.394Z" transform="translate(-162.28 -125.167)" fill="#fff"/>
              </g>
              <g id="Grupo_27181" data-name="Grupo 27181" transform="translate(13.45 1.259)">
                <path id="Trazado_14230" data-name="Trazado 14230" d="M215.957,193.372,171.15,167.488l44.807-25.868,44.822,25.868Z" transform="translate(-171.15 -135.1)" fill="#0f054c"/>
                <g id="Grupo_27180" data-name="Grupo 27180">
                  <path id="Trazado_14231" data-name="Trazado 14231" d="M215.957,193.372,171.15,167.488l44.807-25.868,44.822,25.868Z" transform="translate(-171.15 -135.1)" opacity="0.5" fill="url(#linear-gradient-2)"/>
                  <g id="Grupo_27179" data-name="Grupo 27179">
                    <path id="Trazado_14232" data-name="Trazado 14232" d="M200.7,137.32l44.822,25.868v6.52L200.7,143.84Z" transform="translate(-155.893 -137.32)" opacity="0.5" fill="url(#linear-gradient-3)"/>
                    <path id="Trazado_14233" data-name="Trazado 14233" d="M215.957,143.84,171.15,169.708v-6.52l44.807-25.868Z" transform="translate(-171.15 -137.32)" opacity="0.5" fill="url(#linear-gradient-3)"/>
                    <path id="Trazado_14234" data-name="Trazado 14234" d="M215.957,189.057,171.15,163.188l44.807-25.868,44.822,25.868Z" transform="translate(-171.15 -137.32)" opacity="0.5" fill="url(#linear-gradient-3)"/>
                    <path id="Trazado_14235" data-name="Trazado 14235" d="M206.8,168.243,188.89,157.9,206.8,147.56,224.705,157.9Z" transform="translate(-161.991 -132.033)" fill="#42e8e0" opacity="0.5"/>
                    <path id="Trazado_14236" data-name="Trazado 14236" d="M206.8,148.515l17.089,9.856.819-.47L206.8,147.56,188.89,157.9l.834.47Z" transform="translate(-161.991 -132.033)" fill="#42e8e0" opacity="0.5"/>
                    <path id="Trazado_14237" data-name="Trazado 14237" d="M200.7,180.248v6.535L245.522,160.9v-6.52Z" transform="translate(-155.893 -128.512)" opacity="0.5" fill="url(#linear-gradient-6)"/>
                  </g>
                  <path id="Trazado_14238" data-name="Trazado 14238" d="M171.15,154.38v6.52l44.807,25.883v-6.535Z" transform="translate(-171.15 -128.512)" opacity="0.5" fill="url(#linear-gradient-6)"/>
                </g>
                <path id="Trazado_14239" data-name="Trazado 14239" d="M215.957,179.654l-44.2-25.5-.607.349,44.807,25.868L260.779,154.5l-.622-.349Z" transform="translate(-171.15 -128.63)" fill="#42e8e0" opacity="0.8"/>
              </g>
            </g>
          </g>
          <g id="Grupo_27189" data-name="Grupo 27189" transform="translate(233.619)">
            <path id="Trazado_14240" data-name="Trazado 14240" d="M366.618,246.373a5,5,0,0,1-2.441-.576l-54.8-31.63a1.941,1.941,0,0,1-1.107-1.653,2.517,2.517,0,0,1,1.516-2.032l54.132-31.266a6.065,6.065,0,0,1,5.534-.212l54.875,31.691a1.88,1.88,0,0,1,1.092,1.638,2.532,2.532,0,0,1-1.516,2.047L369.772,245.63A6.4,6.4,0,0,1,366.618,246.373Zm-2.017-1.319a5.277,5.277,0,0,0,4.7-.212l54.132-31.251a1.744,1.744,0,0,0,1.031-1.3,1.168,1.168,0,0,0-.667-.91L368.923,179.7a5.292,5.292,0,0,0-4.685.212L310.1,211.134a1.744,1.744,0,0,0-1.031,1.3,1.092,1.092,0,0,0,.667.91Z" transform="translate(-308.27 -155.561)" fill="#8686f2"/>
            <g id="Grupo_27188" data-name="Grupo 27188" transform="translate(0.091)">
              <g id="Grupo_27184" data-name="Grupo 27184">
                <path id="Trazado_14241" data-name="Trazado 14241" d="M432.839,158.68v6.732l-58.257,33.647L316.31,165.412V158.68Z" transform="translate(-316.31 -125.033)" fill="url(#linear-gradient)"/>
                <path id="Trazado_14242" data-name="Trazado 14242" d="M374.582,203.769,316.31,170.137l58.257-33.647,58.272,33.647Z" transform="translate(-316.31 -136.49)" fill="#bcbeff"/>
                <path id="Trazado_14243" data-name="Trazado 14243" d="M374.582,191.673l-57.59-33.253-.682.394,58.272,33.632,58.257-33.632-.682-.394Z" transform="translate(-316.31 -125.167)" fill="#fff"/>
              </g>
              <g id="Grupo_27187" data-name="Grupo 27187" transform="translate(13.45 1.259)">
                <path id="Trazado_14244" data-name="Trazado 14244" d="M370,193.372,325.18,167.488l44.807-25.868,44.822,25.868Z" transform="translate(-325.18 -135.1)" fill="#0f054c"/>
                <g id="Grupo_27186" data-name="Grupo 27186">
                  <path id="Trazado_14245" data-name="Trazado 14245" d="M370,193.372,325.18,167.488l44.807-25.868,44.822,25.868Z" transform="translate(-325.18 -135.1)" opacity="0.5" fill="url(#linear-gradient-2)"/>
                  <g id="Grupo_27185" data-name="Grupo 27185">
                    <path id="Trazado_14246" data-name="Trazado 14246" d="M354.73,137.32l44.822,25.868v6.52L354.73,143.84Z" transform="translate(-309.923 -137.32)" opacity="0.5" fill="url(#linear-gradient-3)"/>
                    <path id="Trazado_14247" data-name="Trazado 14247" d="M370,143.84,325.18,169.708v-6.52l44.807-25.868Z" transform="translate(-325.18 -137.32)" opacity="0.5" fill="url(#linear-gradient-11)"/>
                    <path id="Trazado_14248" data-name="Trazado 14248" d="M370,189.057,325.18,163.188l44.807-25.868,44.822,25.868Z" transform="translate(-325.18 -137.32)" opacity="0.5" fill="url(#linear-gradient-3)"/>
                    <path id="Trazado_14249" data-name="Trazado 14249" d="M360.843,168.243,342.92,157.9l17.908-10.341L378.75,157.9Z" transform="translate(-316.021 -132.033)" fill="#42e8e0" opacity="0.5"/>
                    <path id="Trazado_14250" data-name="Trazado 14250" d="M360.828,148.515l17.089,9.856.834-.47L360.828,147.56,342.92,157.9l.834.47Z" transform="translate(-316.021 -132.033)" fill="#42e8e0" opacity="0.5"/>
                    <path id="Trazado_14251" data-name="Trazado 14251" d="M354.74,180.248v6.535L399.547,160.9v-6.52Z" transform="translate(-309.918 -128.512)" opacity="0.5" fill="url(#linear-gradient-13)"/>
                  </g>
                  <path id="Trazado_14252" data-name="Trazado 14252" d="M325.18,154.38v6.52L370,186.784v-6.535Z" transform="translate(-325.18 -128.512)" opacity="0.5" fill="url(#linear-gradient-14)"/>
                </g>
                <path id="Trazado_14253" data-name="Trazado 14253" d="M370,179.654l-44.216-25.5-.607.349L370,180.367,414.809,154.5l-.622-.349Z" transform="translate(-325.18 -128.63)" fill="#42e8e0" opacity="0.8"/>
              </g>
            </g>
          </g>
        </g>
        <g id="Grupo_27209" data-name="Grupo 27209" transform="translate(42.571)">
          <path id="Trazado_14254" data-name="Trazado 14254" d="M313.069,149.037,209.52,89.248,313.069,29.46,416.633,89.248Z" transform="translate(-180.308 15.211)" fill="#bcbeff"/>
          <path id="Trazado_14255" data-name="Trazado 14255" d="M309.894,141.821,215.67,87.415,309.894,33.01l94.239,54.405Z" transform="translate(-177.133 17.044)" fill="#453c9e" opacity="0.7"/>
          <path id="Trazado_14256" data-name="Trazado 14256" d="M315.036,350.564a9.25,9.25,0,0,1-4.549-1.228L183.647,276.1a2.7,2.7,0,0,1,0-4.7L315.1,195.49,450.64,273.747,319.661,349.411a9.265,9.265,0,0,1-4.625,1.152Zm-4.109-2.092a8.234,8.234,0,0,0,8.234,0l129.433-74.724-133.557-77.1-130.949,75.6a1.729,1.729,0,0,0,0,3.033Z" transform="translate(-182.275 60.206)" fill="#8686f2"/>
          <path id="Trazado_14257" data-name="Trazado 14257" d="M313.069,300.4,209.52,240.6,313.069,180.81l103.564,59.8Z" transform="translate(-180.308 93.355)" fill="#fff"/>
          <path id="Trazado_14258" data-name="Trazado 14258" d="M381.374,68.89V298.4L277.81,358.188V128.678Z" transform="translate(-145.049 35.569)" fill="url(#linear-gradient-15)"/>
          <path id="Trazado_14259" data-name="Trazado 14259" d="M209.52,68.89V298.384l103.549,59.8V128.678Z" transform="translate(-180.308 35.569)" fill="#24126a"/>
          <g id="Grupo_27191" data-name="Grupo 27191" transform="translate(36.217 119.683)" opacity="0.51">
            <path id="Trazado_14260" data-name="Trazado 14260" d="M214.14,78.93V285.21L303.678,336.9V130.621Z" transform="translate(-214.14 -78.93)" fill="#453c9e"/>
          </g>
          <path id="Trazado_14261" data-name="Trazado 14261" d="M360.54,105.46v6.065l-72.48,41.85V147.31Z" transform="translate(-139.757 54.451)" fill="#453c9e"/>
          <path id="Trazado_14262" data-name="Trazado 14262" d="M360.54,122.37v6.065l-72.48,41.85V164.22Z" transform="translate(-139.757 63.181)" fill="#453c9e"/>
          <path id="Trazado_14263" data-name="Trazado 14263" d="M360.54,139.29v6.065l-72.48,41.85V181.14Z" transform="translate(-139.757 71.918)" fill="#453c9e"/>
          <path id="Trazado_14264" data-name="Trazado 14264" d="M360.54,156.2v6.08l-72.48,41.85v-6.065Z" transform="translate(-139.757 80.648)" fill="#453c9e"/>
          <path id="Trazado_14265" data-name="Trazado 14265" d="M360.54,173.12v6.065l-72.48,41.85V214.97Z" transform="translate(-139.757 89.384)" fill="#453c9e"/>
          <path id="Trazado_14266" data-name="Trazado 14266" d="M360.54,190.03v6.08l-72.48,41.85V231.9Z" transform="translate(-139.757 98.115)" fill="#453c9e"/>
          <path id="Trazado_14267" data-name="Trazado 14267" d="M313.069,127.068,211.2,68.25l-1.683.97,103.549,59.788L416.633,69.22l-1.683-.97Z" transform="translate(-180.308 35.239)" fill="#fff"/>
          <g id="Grupo_27192" data-name="Grupo 27192" transform="translate(29.212 104.459)" opacity="0.51">
            <path id="Trazado_14268" data-name="Trazado 14268" d="M209.52,262.114,313.069,199.6V128.678L209.52,68.89Z" transform="translate(-209.52 -68.89)" fill="#453c9e"/>
          </g>
          <g id="Grupo_27196" data-name="Grupo 27196" transform="translate(46.801 190.51)">
            <path id="Trazado_14269" data-name="Trazado 14269" d="M221.21,127.869l12.889,7.445V133.07l-12.874-7.43Z" transform="translate(-221.074 -125.64)" fill="#42e8e0"/>
            <path id="Trazado_14270" data-name="Trazado 14270" d="M231.08,133.559l7.021,4.064v-2.244l-7.021-4.049Z" transform="translate(-215.977 -122.702)" fill="#42e8e0"/>
            <path id="Trazado_14271" data-name="Trazado 14271" d="M242.91,140.389l5.08,2.926.015-2.229-5.08-2.926Z" transform="translate(-209.869 -119.176)" fill="#42e8e0"/>
            <path id="Trazado_14272" data-name="Trazado 14272" d="M240.47,138.979l1.744,1v-2.229l-1.744-1Z" transform="translate(-211.129 -119.904)" fill="#42e8e0"/>
            <path id="Trazado_14273" data-name="Trazado 14273" d="M237.09,137.034l3.154,1.82v-2.229l-3.154-1.835Z" transform="translate(-212.874 -120.916)" fill="#42e8e0"/>
            <path id="Trazado_14274" data-name="Trazado 14274" d="M229.07,139.154l5.08,2.926v-2.229l-5.08-2.942Z" transform="translate(-217.015 -119.821)" fill="#42e8e0"/>
            <path id="Trazado_14275" data-name="Trazado 14275" d="M221.21,134.614l9.947,5.747v-2.244l-9.947-5.747Z" transform="translate(-221.074 -122.165)" fill="#42e8e0"/>
            <g id="Grupo_27193" data-name="Grupo 27193" transform="translate(13.571 43.488)">
              <path id="Trazado_14276" data-name="Trazado 14276" d="M233.45,158.509l9.947,5.747v-2.229l-9.947-5.747Z" transform="translate(-228.325 -153.308)" fill="#42e8e0"/>
              <path id="Trazado_14277" data-name="Trazado 14277" d="M230.07,156.564l3.154,1.82v-2.229l-3.154-1.835Z" transform="translate(-230.07 -154.32)" fill="#42e8e0"/>
            </g>
            <path id="Trazado_14278" data-name="Trazado 14278" d="M233.41,151.759l9.962,5.747v-2.229l-9.962-5.747Z" transform="translate(-214.774 -113.305)" fill="#42e8e0"/>
            <path id="Trazado_14279" data-name="Trazado 14279" d="M230.03,149.809l3.154,1.82.015-2.229-3.154-1.82Z" transform="translate(-216.52 -114.312)" fill="#42e8e0"/>
            <path id="Trazado_14280" data-name="Trazado 14280" d="M239.877,190.556,221.12,179.73v2.229l18.757,10.827Z" transform="translate(-221.12 -97.713)" fill="#42e8e0"/>
            <path id="Trazado_14281" data-name="Trazado 14281" d="M239.42,190.289l-4.64-2.669v2.229l4.64,2.684Z" transform="translate(-214.067 -93.639)" fill="#42e8e0"/>
            <path id="Trazado_14282" data-name="Trazado 14282" d="M264.267,194.5,245.51,183.67v2.244l18.757,10.827Z" transform="translate(-208.527 -95.678)" fill="#42e8e0"/>
            <path id="Trazado_14283" data-name="Trazado 14283" d="M263.825,194.244l-4.64-2.684-.015,2.244,4.64,2.684Z" transform="translate(-201.474 -91.605)" fill="#42e8e0"/>
            <path id="Trazado_14284" data-name="Trazado 14284" d="M226.2,179.286l-5.08-2.926v2.229l5.08,2.942Z" transform="translate(-221.12 -99.452)" fill="#42e8e0"/>
            <path id="Trazado_14285" data-name="Trazado 14285" d="M245.465,183.662l-5.08-2.942-.015,2.244,5.08,2.926Z" transform="translate(-211.181 -97.201)" fill="#42e8e0"/>
            <path id="Trazado_14286" data-name="Trazado 14286" d="M235.732,184.787l-9.962-5.747v2.244l9.962,5.747Z" transform="translate(-218.719 -98.069)" fill="#42e8e0"/>
            <path id="Trazado_14287" data-name="Trazado 14287" d="M236.8,185.4l-3.169-1.82v2.244l3.154,1.82Z" transform="translate(-214.661 -95.725)" fill="#42e8e0"/>
            <path id="Trazado_14288" data-name="Trazado 14288" d="M247.032,191.307l-9.962-5.747V187.8l9.962,5.747Z" transform="translate(-212.885 -94.702)" fill="#42e8e0"/>
            <path id="Trazado_14289" data-name="Trazado 14289" d="M248.079,191.92l-3.139-1.82v2.244l3.139,1.82Z" transform="translate(-208.821 -92.358)" fill="#42e8e0"/>
            <path id="Trazado_14290" data-name="Trazado 14290" d="M245.45,187.026l-5.08-2.926v2.229l5.08,2.926Z" transform="translate(-211.181 -95.456)" fill="#42e8e0"/>
            <path id="Trazado_14291" data-name="Trazado 14291" d="M254.982,192.527l-9.962-5.747v2.229l9.962,5.762Z" transform="translate(-208.78 -94.072)" fill="#42e8e0"/>
            <path id="Trazado_14292" data-name="Trazado 14292" d="M256.034,193.14l-3.154-1.82v2.244l3.154,1.82Z" transform="translate(-204.722 -91.728)" fill="#42e8e0"/>
            <path id="Trazado_14293" data-name="Trazado 14293" d="M231.522,178.995l-10.387-6-.015,2.229,10.4,6Z" transform="translate(-221.12 -101.192)" fill="#42e8e0"/>
            <path id="Trazado_14294" data-name="Trazado 14294" d="M236.8,182.037,229.28,177.7v2.229l7.521,4.352Z" transform="translate(-216.907 -98.761)" fill="#42e8e0"/>
            <path id="Trazado_14295" data-name="Trazado 14295" d="M240.625,184.252l-5.08-2.942-.015,2.229,5.095,2.942Z" transform="translate(-213.68 -96.897)" fill="#42e8e0"/>
            <path id="Trazado_14296" data-name="Trazado 14296" d="M261.56,154.509l10.387,6v-2.229l-10.387-6Z" transform="translate(-200.24 -111.885)" fill="#42e8e0"/>
            <path id="Trazado_14297" data-name="Trazado 14297" d="M255.3,150.9l7.521,4.337v-2.229L255.3,148.67Z" transform="translate(-203.472 -113.749)" fill="#42e8e0"/>
            <path id="Trazado_14298" data-name="Trazado 14298" d="M250.65,148.224l5.08,2.926v-2.229l-5.08-2.942Z" transform="translate(-205.873 -115.138)" fill="#42e8e0"/>
            <path id="Trazado_14299" data-name="Trazado 14299" d="M258.71,149.494l10.4,6v-2.244l-10.4-6Z" transform="translate(-201.712 -114.482)" fill="#42e8e0"/>
            <path id="Trazado_14300" data-name="Trazado 14300" d="M252.46,145.884l7.506,4.337v-2.244l-7.506-4.337Z" transform="translate(-204.939 -116.346)" fill="#42e8e0"/>
            <path id="Trazado_14301" data-name="Trazado 14301" d="M247.81,143.189l5.08,2.942v-2.244l-5.08-2.926Z" transform="translate(-207.34 -117.73)" fill="#42e8e0"/>
            <path id="Trazado_14302" data-name="Trazado 14302" d="M234.43,155.719l3.518,2.032v-2.229l-3.518-2.032Z" transform="translate(-214.248 -111.261)" fill="#42e8e0"/>
            <path id="Trazado_14303" data-name="Trazado 14303" d="M230.07,153.214l4.64,2.669v-2.229l-4.64-2.684Z" transform="translate(-216.499 -112.562)" fill="#42e8e0"/>
            <path id="Trazado_14304" data-name="Trazado 14304" d="M231.572,175.645l-10.4-6v2.244l10.4,5.989Z" transform="translate(-221.094 -102.922)" fill="#42e8e0"/>
            <path id="Trazado_14305" data-name="Trazado 14305" d="M236.841,178.687l-7.506-4.337-.015,2.229,7.521,4.352Z" transform="translate(-216.886 -100.49)" fill="#42e8e0"/>
            <path id="Trazado_14306" data-name="Trazado 14306" d="M240.66,180.9l-5.08-2.942V180.2l5.08,2.926Z" transform="translate(-213.654 -98.626)" fill="#42e8e0"/>
            <path id="Trazado_14307" data-name="Trazado 14307" d="M224.688,168.3l-3.5-2.032-.015,2.244,3.518,2.017Z" transform="translate(-221.094 -104.662)" fill="#42e8e0"/>
            <path id="Trazado_14308" data-name="Trazado 14308" d="M229.43,171.044l-4.64-2.684v2.229l4.64,2.684Z" transform="translate(-219.225 -103.583)" fill="#42e8e0"/>
            <path id="Trazado_14309" data-name="Trazado 14309" d="M236.625,175.186l-7.475-4.306v2.229l7.475,4.321Z" transform="translate(-216.974 -102.282)" fill="#42e8e0"/>
            <path id="Trazado_14310" data-name="Trazado 14310" d="M235.88,146.444l3.518,2.017v-2.229L235.88,144.2Z" transform="translate(-213.499 -116.057)" fill="#42e8e0"/>
            <path id="Trazado_14311" data-name="Trazado 14311" d="M231.52,143.924l4.64,2.684v-2.244l-4.64-2.684Z" transform="translate(-215.75 -117.358)" fill="#42e8e0"/>
            <path id="Trazado_14312" data-name="Trazado 14312" d="M225.29,140.319l7.475,4.322V142.4l-7.475-4.306Z" transform="translate(-218.967 -119.212)" fill="#42e8e0"/>
            <path id="Trazado_14313" data-name="Trazado 14313" d="M239.93,151.9l7.475,4.322.015-2.229-7.491-4.322Z" transform="translate(-211.408 -113.233)" fill="#42e8e0"/>
            <path id="Trazado_14314" data-name="Trazado 14314" d="M231.91,147.509l10.083,5.823v-2.244L231.91,145.28Z" transform="translate(-215.549 -115.5)" fill="#42e8e0"/>
            <path id="Trazado_14315" data-name="Trazado 14315" d="M228.53,145.559l3.154,1.82V145.15l-3.154-1.82Z" transform="translate(-217.294 -116.506)" fill="#42e8e0"/>
            <path id="Trazado_14316" data-name="Trazado 14316" d="M225.29,143.694l3.154,1.82v-2.229l-3.154-1.835Z" transform="translate(-218.967 -117.477)" fill="#42e8e0"/>
            <g id="Grupo_27195" data-name="Grupo 27195" transform="translate(0.091 48.977)">
              <path id="Trazado_14317" data-name="Trazado 14317" d="M228.61,162.734l9.962,5.747v-2.244l-9.962-5.747Z" transform="translate(-217.344 -156.623)" fill="#42e8e0"/>
              <path id="Trazado_14318" data-name="Trazado 14318" d="M225.23,160.784l3.154,1.82V160.36l-3.154-1.82Z" transform="translate(-219.089 -157.63)" fill="#42e8e0"/>
              <path id="Trazado_14319" data-name="Trazado 14319" d="M229.63,166.694l3.5,2.017v-2.229l-3.5-2.032Z" transform="translate(-216.817 -154.579)" fill="#42e8e0"/>
              <path id="Trazado_14320" data-name="Trazado 14320" d="M236.67,163.994l3.5,2.017v-2.229l-3.5-2.032Z" transform="translate(-213.182 -155.973)" fill="#42e8e0"/>
              <path id="Trazado_14321" data-name="Trazado 14321" d="M239.97,165.889l8.416,4.867.015-2.244-8.431-4.852Z" transform="translate(-211.478 -154.987)" fill="#42e8e0"/>
              <path id="Trazado_14322" data-name="Trazado 14322" d="M246.51,169.659l5,2.9v-2.229l-5-2.9Z" transform="translate(-208.102 -153.04)" fill="#42e8e0"/>
              <path id="Trazado_14323" data-name="Trazado 14323" d="M225.27,164.169l4.64,2.684v-2.244l-4.64-2.669Z" transform="translate(-219.068 -155.875)" fill="#42e8e0"/>
              <g id="Grupo_27194" data-name="Grupo 27194" transform="translate(0 7.491)">
                <path id="Trazado_14324" data-name="Trazado 14324" d="M225.54,167.629l3.5,2.032v-2.229l-3.5-2.032Z" transform="translate(-218.929 -161.579)" fill="#42e8e0"/>
                <path id="Trazado_14325" data-name="Trazado 14325" d="M221.18,165.124l4.64,2.669v-2.229l-4.64-2.684Z" transform="translate(-221.18 -162.88)" fill="#42e8e0"/>
              </g>
              <path id="Trazado_14326" data-name="Trazado 14326" d="M233.31,162.054l3.154,1.82V161.63l-3.154-1.82Z" transform="translate(-214.917 -156.975)" fill="#42e8e0"/>
              <path id="Trazado_14327" data-name="Trazado 14327" d="M230.07,160.184l3.154,1.82V159.76l-3.154-1.82Z" transform="translate(-216.59 -157.94)" fill="#42e8e0"/>
            </g>
            <path id="Trazado_14328" data-name="Trazado 14328" d="M242.03,143.239l10.766,6.217v-2.244l-10.766-6.2Z" transform="translate(-210.324 -117.704)" fill="#42e8e0"/>
            <path id="Trazado_14329" data-name="Trazado 14329" d="M234.09,138.664l10.084,5.807v-2.229L234.09,136.42Z" transform="translate(-214.423 -120.074)" fill="#42e8e0"/>
            <path id="Trazado_14330" data-name="Trazado 14330" d="M230.71,136.714l3.154,1.82V136.29l-3.154-1.82Z" transform="translate(-216.169 -121.081)" fill="#42e8e0"/>
            <path id="Trazado_14331" data-name="Trazado 14331" d="M227.47,134.829l3.154,1.835V134.42l-3.154-1.82Z" transform="translate(-217.841 -122.046)" fill="#42e8e0"/>
            <path id="Trazado_14332" data-name="Trazado 14332" d="M228.018,135.146l-6.808-3.927V128.99l6.808,3.927Z" transform="translate(-221.074 -123.91)" fill="#42e8e0"/>
          </g>
          <g id="Grupo_27208" data-name="Grupo 27208" transform="translate(29.212)">
            <path id="Trazado_14333" data-name="Trazado 14333" d="M313.069,119.577,209.52,59.788,313.069,0,416.633,59.788Z" transform="translate(-209.52)" fill="#bcbeff"/>
            <path id="Trazado_14334" data-name="Trazado 14334" d="M303.445,97.685,228.16,54.228,303.445,10.77,378.73,54.228Z" transform="translate(-199.896 5.561)" fill="#453c9e"/>
            <path id="Trazado_14335" data-name="Trazado 14335" d="M303.445,13.712,376.183,55.7l2.547-1.471L303.445,10.77,228.16,54.228l2.563,1.471Z" transform="translate(-199.896 5.561)" fill="#fff"/>
            <path id="Trazado_14336" data-name="Trazado 14336" d="M381.374,39.43V73.32L277.81,133.108V99.218Z" transform="translate(-174.261 20.358)" fill="url(#linear-gradient-15)"/>
            <path id="Trazado_14337" data-name="Trazado 14337" d="M209.52,39.43V73.32l103.549,59.788V99.218Z" transform="translate(-209.52 20.358)" fill="#24126a"/>
            <g id="Grupo_27197" data-name="Grupo 27197" transform="translate(7.005 75.012)" opacity="0.51">
              <path id="Trazado_14338" data-name="Trazado 14338" d="M214.14,49.47V60.145l89.538,51.691V101.161Z" transform="translate(-214.14 -49.47)" fill="#453c9e"/>
            </g>
            <path id="Trazado_14339" data-name="Trazado 14339" d="M313.069,97.608,211.2,38.79l-1.683.97L313.069,99.549,416.633,39.76l-1.683-.97Z" transform="translate(-209.52 20.028)" fill="#fff"/>
            <path id="Trazado_14340" data-name="Trazado 14340" d="M360.54,55.09v6.065l-72.48,41.85V96.94Z" transform="translate(-168.969 28.444)" fill="#453c9e"/>
            <path id="Trazado_14341" data-name="Trazado 14341" d="M209.52,39.43V73.32l103.549,59.788V99.218Z" transform="translate(-209.52 20.358)" fill="#453c9e" opacity="0.51"/>
            <path id="Trazado_14342" data-name="Trazado 14342" d="M264.267,81.356,245.51,70.53v2.244L264.267,83.6Z" transform="translate(-190.938 36.416)" fill="#42e8e0"/>
            <path id="Trazado_14343" data-name="Trazado 14343" d="M245.465,70.522l-5.08-2.942-.015,2.244,5.08,2.926Z" transform="translate(-193.592 34.893)" fill="#42e8e0"/>
            <path id="Trazado_14344" data-name="Trazado 14344" d="M231.572,62.5l-10.4-6v2.229l10.4,6Z" transform="translate(-203.505 29.172)" fill="#42e8e0"/>
            <path id="Trazado_14345" data-name="Trazado 14345" d="M236.841,65.547l-7.506-4.337-.015,2.229,7.521,4.352Z" transform="translate(-199.297 31.604)" fill="#42e8e0"/>
            <path id="Trazado_14346" data-name="Trazado 14346" d="M240.66,67.746l-5.08-2.926v2.229l5.08,2.942Z" transform="translate(-196.065 33.468)" fill="#42e8e0"/>
            <g id="Grupo_27207" data-name="Grupo 27207" transform="translate(47.552 27.445)">
              <g id="Grupo_27198" data-name="Grupo 27198" transform="translate(52.813)">
                <path id="Trazado_14347" data-name="Trazado 14347" d="M279,21.906l-3.29-1.9L279,18.1l3.29,1.911Z" transform="translate(-275.71 -18.1)" fill="#42e8e0"/>
                <path id="Trazado_14348" data-name="Trazado 14348" d="M283.34,24.4l-3.29-1.9,3.29-1.9,3.29,1.9Z" transform="translate(-273.469 -16.804)" fill="#42e8e0" opacity="0.1"/>
                <path id="Trazado_14349" data-name="Trazado 14349" d="M287.68,26.916l-3.29-1.911,3.29-1.9,3.29,1.9Z" transform="translate(-271.228 -15.513)" fill="#42e8e0" opacity="0.4"/>
                <path id="Trazado_14350" data-name="Trazado 14350" d="M292.005,29.411l-3.275-1.9,3.275-1.9,3.29,1.9Z" transform="translate(-268.988 -14.217)" fill="#42e8e0"/>
                <path id="Trazado_14351" data-name="Trazado 14351" d="M296.35,31.926l-3.29-1.911,3.29-1.9,3.29,1.9Z" transform="translate(-266.752 -12.927)" fill="#42e8e0" opacity="0.4"/>
                <path id="Trazado_14352" data-name="Trazado 14352" d="M300.69,34.421l-3.29-1.9,3.29-1.9,3.29,1.9Z" transform="translate(-264.511 -11.631)" fill="#42e8e0"/>
                <path id="Trazado_14353" data-name="Trazado 14353" d="M305.03,36.921l-3.29-1.9,3.29-1.9,3.275,1.9Z" transform="translate(-262.27 -10.34)" fill="#42e8e0"/>
                <path id="Trazado_14354" data-name="Trazado 14354" d="M309.36,39.436l-3.29-1.9,3.29-1.911,3.29,1.911Z" transform="translate(-260.035 -9.049)" fill="#42e8e0"/>
                <path id="Trazado_14355" data-name="Trazado 14355" d="M313.7,41.931l-3.29-1.9,3.29-1.9,3.29,1.9Z" transform="translate(-257.794 -7.753)" fill="#42e8e0" opacity="0.1"/>
              </g>
              <g id="Grupo_27199" data-name="Grupo 27199" transform="translate(46.217 3.821)">
                <path id="Trazado_14356" data-name="Trazado 14356" d="M274.65,24.411l-3.29-1.9,3.29-1.9,3.29,1.9Z" transform="translate(-271.36 -20.62)" fill="#42e8e0"/>
                <path id="Trazado_14357" data-name="Trazado 14357" d="M278.99,26.926l-3.29-1.9,3.29-1.911,3.275,1.911Z" transform="translate(-269.119 -19.329)" fill="#42e8e0"/>
                <path id="Trazado_14358" data-name="Trazado 14358" d="M283.32,29.421l-3.29-1.9,3.29-1.9,3.29,1.9Z" transform="translate(-266.883 -18.033)" fill="#42e8e0"/>
                <path id="Trazado_14359" data-name="Trazado 14359" d="M287.66,31.936l-3.29-1.911,3.29-1.9,3.29,1.9Z" transform="translate(-264.643 -16.742)" fill="#42e8e0"/>
                <path id="Trazado_14360" data-name="Trazado 14360" d="M292,34.431l-3.29-1.9,3.29-1.9,3.29,1.9Z" transform="translate(-262.402 -15.447)" fill="#42e8e0"/>
                <path id="Trazado_14361" data-name="Trazado 14361" d="M296.325,36.931l-3.275-1.9,3.275-1.9,3.29,1.9Z" transform="translate(-260.161 -14.156)" fill="#42e8e0"/>
                <path id="Trazado_14362" data-name="Trazado 14362" d="M300.67,39.446l-3.29-1.9,3.29-1.911,3.29,1.911Z" transform="translate(-257.925 -12.865)" fill="#42e8e0"/>
                <path id="Trazado_14363" data-name="Trazado 14363" d="M305.01,41.941l-3.29-1.9,3.29-1.9,3.29,1.9Z" transform="translate(-255.685 -11.569)" fill="#42e8e0"/>
                <path id="Trazado_14364" data-name="Trazado 14364" d="M309.35,44.456l-3.29-1.911,3.29-1.9,3.275,1.9Z" transform="translate(-253.444 -10.278)" fill="#42e8e0"/>
              </g>
              <g id="Grupo_27200" data-name="Grupo 27200" transform="translate(39.606 7.627)">
                <path id="Trazado_14365" data-name="Trazado 14365" d="M270.29,26.936l-3.29-1.9,3.29-1.911,3.29,1.911Z" transform="translate(-267 -23.13)" fill="#42e8e0"/>
                <path id="Trazado_14366" data-name="Trazado 14366" d="M274.63,29.431l-3.29-1.9,3.29-1.9,3.29,1.9Z" transform="translate(-264.759 -21.834)" fill="#42e8e0"/>
                <path id="Trazado_14367" data-name="Trazado 14367" d="M278.97,31.931l-3.29-1.9,3.29-1.9,3.29,1.9Z" transform="translate(-262.518 -20.543)" fill="#42e8e0"/>
                <path id="Trazado_14368" data-name="Trazado 14368" d="M283.31,34.446l-3.29-1.9,3.29-1.911,3.275,1.911Z" transform="translate(-260.278 -19.252)" fill="#42e8e0" opacity="0.1"/>
                <path id="Trazado_14369" data-name="Trazado 14369" d="M287.64,36.941l-3.29-1.9,3.29-1.9,3.29,1.9Z" transform="translate(-258.042 -17.957)" fill="#42e8e0" opacity="0.4"/>
                <path id="Trazado_14370" data-name="Trazado 14370" d="M291.98,39.456l-3.29-1.9,3.29-1.911,3.29,1.911Z" transform="translate(-255.801 -16.666)" fill="#42e8e0" opacity="0.4"/>
                <path id="Trazado_14371" data-name="Trazado 14371" d="M296.32,41.951l-3.29-1.9,3.29-1.9,3.29,1.9Z" transform="translate(-253.56 -15.37)" fill="#42e8e0"/>
                <path id="Trazado_14372" data-name="Trazado 14372" d="M300.645,44.466l-3.275-1.911,3.275-1.9,3.29,1.9Z" transform="translate(-251.32 -14.079)" fill="#42e8e0"/>
                <path id="Trazado_14373" data-name="Trazado 14373" d="M304.99,46.961l-3.29-1.9,3.29-1.9,3.29,1.9Z" transform="translate(-249.084 -12.783)" fill="#42e8e0"/>
              </g>
              <g id="Grupo_27201" data-name="Grupo 27201" transform="translate(33.01 11.448)">
                <path id="Trazado_14374" data-name="Trazado 14374" d="M265.94,29.441l-3.29-1.9,3.29-1.9,3.29,1.9Z" transform="translate(-262.65 -25.65)" fill="#42e8e0" opacity="0.4"/>
                <path id="Trazado_14375" data-name="Trazado 14375" d="M270.265,31.956l-3.275-1.911,3.275-1.9,3.29,1.9Z" transform="translate(-260.409 -24.359)" fill="#42e8e0" opacity="0.4"/>
                <path id="Trazado_14376" data-name="Trazado 14376" d="M274.61,34.451l-3.29-1.9,3.29-1.9,3.29,1.9Z" transform="translate(-258.173 -23.063)" fill="#42e8e0" opacity="0.1"/>
                <path id="Trazado_14377" data-name="Trazado 14377" d="M278.95,36.951l-3.29-1.9,3.29-1.9,3.29,1.9Z" transform="translate(-255.933 -21.772)" fill="#42e8e0"/>
                <path id="Trazado_14378" data-name="Trazado 14378" d="M283.29,39.466l-3.29-1.9,3.29-1.911,3.29,1.911Z" transform="translate(-253.692 -20.482)" fill="#42e8e0"/>
                <path id="Trazado_14379" data-name="Trazado 14379" d="M287.615,41.961l-3.275-1.9,3.275-1.9,3.29,1.9Z" transform="translate(-251.451 -19.186)" fill="#42e8e0"/>
                <path id="Trazado_14380" data-name="Trazado 14380" d="M291.96,44.476l-3.29-1.911,3.29-1.9,3.29,1.9Z" transform="translate(-249.215 -17.895)" fill="#42e8e0" opacity="0.4"/>
                <path id="Trazado_14381" data-name="Trazado 14381" d="M296.3,46.971l-3.29-1.9,3.29-1.9,3.29,1.9Z" transform="translate(-246.975 -16.599)" fill="#42e8e0"/>
                <path id="Trazado_14382" data-name="Trazado 14382" d="M300.64,49.486l-3.29-1.911,3.29-1.9,3.29,1.9Z" transform="translate(-244.734 -15.308)" fill="#42e8e0"/>
              </g>
              <g id="Grupo_27202" data-name="Grupo 27202" transform="translate(26.399 15.254)">
                <path id="Trazado_14383" data-name="Trazado 14383" d="M261.58,31.966l-3.29-1.911,3.29-1.9,3.29,1.9Z" transform="translate(-258.29 -28.16)" fill="#42e8e0"/>
                <path id="Trazado_14384" data-name="Trazado 14384" d="M265.92,34.461l-3.29-1.9,3.29-1.9,3.29,1.9Z" transform="translate(-256.049 -26.864)" fill="#42e8e0"/>
                <path id="Trazado_14385" data-name="Trazado 14385" d="M270.26,36.961l-3.29-1.9,3.29-1.9,3.29,1.9Z" transform="translate(-253.808 -25.573)" fill="#42e8e0"/>
                <path id="Trazado_14386" data-name="Trazado 14386" d="M274.6,39.476l-3.29-1.9,3.29-1.911,3.275,1.911Z" transform="translate(-251.568 -24.282)" fill="#42e8e0"/>
                <path id="Trazado_14387" data-name="Trazado 14387" d="M278.93,41.971l-3.29-1.9,3.29-1.9,3.29,1.9Z" transform="translate(-249.332 -22.987)" fill="#42e8e0"/>
                <path id="Trazado_14388" data-name="Trazado 14388" d="M283.27,44.486l-3.29-1.9,3.29-1.911,3.29,1.911Z" transform="translate(-247.091 -21.696)" fill="#42e8e0"/>
                <path id="Trazado_14389" data-name="Trazado 14389" d="M287.61,46.981l-3.29-1.9,3.29-1.9,3.29,1.9Z" transform="translate(-244.85 -20.4)" fill="#42e8e0"/>
                <path id="Trazado_14390" data-name="Trazado 14390" d="M291.935,49.5l-3.275-1.911,3.275-1.9,3.29,1.9Z" transform="translate(-242.609 -19.109)" fill="#42e8e0"/>
                <path id="Trazado_14391" data-name="Trazado 14391" d="M296.28,51.991l-3.29-1.9,3.29-1.9,3.29,1.9Z" transform="translate(-240.374 -17.813)" fill="#42e8e0"/>
              </g>
              <g id="Grupo_27203" data-name="Grupo 27203" transform="translate(19.803 19.075)">
                <path id="Trazado_14392" data-name="Trazado 14392" d="M257.23,34.471l-3.29-1.9,3.29-1.9,3.29,1.9Z" transform="translate(-253.94 -30.68)" fill="#42e8e0"/>
                <path id="Trazado_14393" data-name="Trazado 14393" d="M261.555,36.971l-3.275-1.9,3.275-1.9,3.29,1.9Z" transform="translate(-251.699 -29.389)" fill="#42e8e0"/>
                <path id="Trazado_14394" data-name="Trazado 14394" d="M265.9,39.486l-3.29-1.9,3.29-1.911,3.29,1.911Z" transform="translate(-249.464 -28.098)" fill="#42e8e0" opacity="0.4"/>
                <path id="Trazado_14395" data-name="Trazado 14395" d="M270.24,41.981l-3.29-1.9,3.29-1.9,3.29,1.9Z" transform="translate(-247.223 -26.802)" fill="#42e8e0"/>
                <path id="Trazado_14396" data-name="Trazado 14396" d="M274.58,44.5l-3.29-1.9,3.29-1.911,3.29,1.911Z" transform="translate(-244.982 -25.512)" fill="#42e8e0" opacity="0.1"/>
                <path id="Trazado_14397" data-name="Trazado 14397" d="M278.92,46.991l-3.29-1.9,3.29-1.9,3.275,1.9Z" transform="translate(-242.741 -24.216)" fill="#42e8e0"/>
                <path id="Trazado_14398" data-name="Trazado 14398" d="M283.25,49.491l-3.29-1.9,3.29-1.9,3.29,1.9Z" transform="translate(-240.505 -22.925)" fill="#42e8e0"/>
                <path id="Trazado_14399" data-name="Trazado 14399" d="M287.59,52.006l-3.29-1.9,3.29-1.911,3.29,1.911Z" transform="translate(-238.265 -21.634)" fill="#42e8e0"/>
                <path id="Trazado_14400" data-name="Trazado 14400" d="M291.93,54.5l-3.29-1.9,3.29-1.9,3.29,1.9Z" transform="translate(-236.024 -20.338)" fill="#42e8e0"/>
              </g>
              <g id="Grupo_27204" data-name="Grupo 27204" transform="translate(13.192 22.881)">
                <path id="Trazado_14401" data-name="Trazado 14401" d="M252.87,36.981l-3.29-1.9,3.29-1.9,3.29,1.9Z" transform="translate(-249.58 -33.19)" fill="#42e8e0"/>
                <path id="Trazado_14402" data-name="Trazado 14402" d="M257.21,39.5l-3.29-1.9,3.29-1.911L260.5,37.6Z" transform="translate(-247.339 -31.899)" fill="#42e8e0"/>
                <path id="Trazado_14403" data-name="Trazado 14403" d="M261.55,41.991l-3.29-1.9,3.29-1.9,3.29,1.9Z" transform="translate(-245.098 -30.603)" fill="#42e8e0" opacity="0.4"/>
                <path id="Trazado_14404" data-name="Trazado 14404" d="M265.875,44.506,262.6,42.6l3.275-1.9,3.29,1.9Z" transform="translate(-242.858 -29.312)" fill="#42e8e0"/>
                <path id="Trazado_14405" data-name="Trazado 14405" d="M270.22,47l-3.29-1.9,3.29-1.9,3.29,1.9Z" transform="translate(-240.622 -28.017)" fill="#42e8e0"/>
                <path id="Trazado_14406" data-name="Trazado 14406" d="M274.56,49.516l-3.29-1.911,3.29-1.9,3.29,1.9Z" transform="translate(-238.381 -26.726)" fill="#42e8e0" opacity="0.1"/>
                <path id="Trazado_14407" data-name="Trazado 14407" d="M278.9,52.011l-3.29-1.9,3.29-1.9,3.29,1.9Z" transform="translate(-236.14 -25.43)" fill="#42e8e0" opacity="0.4"/>
                <path id="Trazado_14408" data-name="Trazado 14408" d="M283.24,54.511l-3.29-1.9,3.275-1.9,3.29,1.9Z" transform="translate(-233.9 -24.139)" fill="#42e8e0"/>
                <path id="Trazado_14409" data-name="Trazado 14409" d="M287.57,57.026l-3.29-1.9,3.29-1.911,3.29,1.911Z" transform="translate(-231.664 -22.848)" fill="#42e8e0" opacity="0.1"/>
              </g>
              <g id="Grupo_27205" data-name="Grupo 27205" transform="translate(6.596 26.687)">
                <path id="Trazado_14410" data-name="Trazado 14410" d="M248.52,39.506l-3.29-1.9,3.29-1.911,3.29,1.911Z" transform="translate(-245.23 -35.7)" fill="#42e8e0"/>
                <path id="Trazado_14411" data-name="Trazado 14411" d="M252.86,42l-3.29-1.9,3.29-1.9,3.275,1.9Z" transform="translate(-242.989 -34.404)" fill="#42e8e0" opacity="0.4"/>
                <path id="Trazado_14412" data-name="Trazado 14412" d="M257.19,44.516l-3.29-1.9,3.29-1.911,3.29,1.911Z" transform="translate(-240.754 -33.113)" fill="#42e8e0"/>
                <path id="Trazado_14413" data-name="Trazado 14413" d="M261.53,47.011l-3.29-1.9,3.29-1.9,3.29,1.9Z" transform="translate(-238.513 -31.817)" fill="#42e8e0"/>
                <path id="Trazado_14414" data-name="Trazado 14414" d="M265.87,49.526l-3.29-1.911,3.29-1.9,3.29,1.9Z" transform="translate(-236.272 -30.527)" fill="#42e8e0"/>
                <path id="Trazado_14415" data-name="Trazado 14415" d="M270.2,52.021l-3.275-1.9,3.275-1.9,3.29,1.9Z" transform="translate(-234.031 -29.231)" fill="#42e8e0"/>
                <path id="Trazado_14416" data-name="Trazado 14416" d="M274.54,54.521l-3.29-1.9,3.29-1.9,3.29,1.9Z" transform="translate(-231.795 -27.94)" fill="#42e8e0"/>
                <path id="Trazado_14417" data-name="Trazado 14417" d="M278.88,57.036l-3.29-1.9,3.29-1.911,3.29,1.911Z" transform="translate(-229.555 -26.649)" fill="#42e8e0" opacity="0.4"/>
                <path id="Trazado_14418" data-name="Trazado 14418" d="M283.22,59.531l-3.29-1.9,3.29-1.9,3.29,1.9Z" transform="translate(-227.314 -25.353)" fill="#42e8e0"/>
              </g>
              <g id="Grupo_27206" data-name="Grupo 27206" transform="translate(0 30.508)">
                <path id="Trazado_14419" data-name="Trazado 14419" d="M244.155,42.011l-3.275-1.9,3.275-1.9,3.29,1.9Z" transform="translate(-240.88 -38.22)" fill="#42e8e0"/>
                <path id="Trazado_14420" data-name="Trazado 14420" d="M248.5,44.526l-3.29-1.9,3.29-1.911,3.29,1.911Z" transform="translate(-238.644 -36.929)" fill="#42e8e0" opacity="0.1"/>
                <path id="Trazado_14421" data-name="Trazado 14421" d="M252.84,47.021l-3.29-1.9,3.29-1.9,3.29,1.9Z" transform="translate(-236.404 -35.633)" fill="#42e8e0"/>
                <path id="Trazado_14422" data-name="Trazado 14422" d="M257.18,49.521l-3.29-1.9,3.29-1.9,3.275,1.9Z" transform="translate(-234.163 -34.342)" fill="#42e8e0"/>
                <path id="Trazado_14423" data-name="Trazado 14423" d="M261.51,52.036l-3.29-1.9,3.29-1.911,3.29,1.911Z" transform="translate(-231.927 -33.052)" fill="#42e8e0"/>
                <path id="Trazado_14424" data-name="Trazado 14424" d="M265.85,54.531l-3.29-1.9,3.29-1.9,3.29,1.9Z" transform="translate(-229.686 -31.756)" fill="#42e8e0"/>
                <path id="Trazado_14425" data-name="Trazado 14425" d="M270.19,57.046l-3.29-1.9,3.29-1.911,3.29,1.911Z" transform="translate(-227.445 -30.465)" fill="#42e8e0" opacity="0.4"/>
                <path id="Trazado_14426" data-name="Trazado 14426" d="M274.515,59.541l-3.275-1.9,3.275-1.9,3.29,1.9Z" transform="translate(-225.205 -29.169)" fill="#42e8e0"/>
                <path id="Trazado_14427" data-name="Trazado 14427" d="M278.86,62.056l-3.29-1.911,3.29-1.9,3.29,1.9Z" transform="translate(-222.969 -27.878)" fill="#42e8e0"/>
              </g>
            </g>
          </g>
        </g>
      </g>
      <g id="Grupo_27226" data-name="Grupo 27226" transform="translate(0 154.768)">
        <g id="Grupo_27221" data-name="Grupo 27221">
          <path id="Trazado_14428" data-name="Trazado 14428" d="M93.963,283a9.1,9.1,0,0,1-4.549-1.2L37.389,251.736a2.593,2.593,0,0,1,0-4.549L131.855,192.6l.682.394,55.891,32.282a2.578,2.578,0,0,1,0,4.549L98.481,281.8A9.1,9.1,0,0,1,93.963,283Zm37.908-89.144L37.859,248.112a1.516,1.516,0,0,0,0,2.76l52.1,30.069a8.2,8.2,0,0,0,8.021,0l89.948-51.934a1.516,1.516,0,0,0,.8-1.38,1.607,1.607,0,0,0-.8-1.395Z" transform="translate(-16.299 -96.054)" fill="#8686f2"/>
          <g id="Grupo_27215" data-name="Grupo 27215">
            <g id="Grupo_27212" data-name="Grupo 27212">
              <path id="Trazado_14429" data-name="Trazado 14429" d="M138.661,204.7l-12.525-74.3,1-.425-1.516-.879h0a1.092,1.092,0,0,0-1.168,0L24.376,186.93a2.775,2.775,0,0,0-1.3,2.547L35.7,264.414a.9.9,0,0,0,.531.758h0l1.516.864.258-1.395h-.076l99.546-57.468a2.836,2.836,0,0,0,1.183-2.472Z" transform="translate(-22.999 -128.928)" fill="url(#linear-gradient-17)"/>
              <path id="Trazado_14430" data-name="Trazado 14430" d="M24.884,168.8l-1.638-.728a2.335,2.335,0,0,0-.212,1.243L35.665,244.25a.9.9,0,0,0,.531.758h0l1.516.864.258-1.395h-.076l5.034-2.911Z" transform="translate(-23.022 -108.719)" fill="url(#linear-gradient-18)"/>
              <path id="Trazado_14431" data-name="Trazado 14431" d="M138.4,207.836,38.249,265.669c-.773.44-1.425.182-1.516-.622L24.1,190.111a2.836,2.836,0,0,1,1.289-2.547l100.153-57.817c.773-.455,1.516-.2,1.516.607l12.631,74.936a2.775,2.775,0,0,1-1.289,2.547Z" transform="translate(-22.467 -128.622)" fill="#24126a"/>
              <g id="Grupo_27211" data-name="Grupo 27211" transform="translate(5.183 5.916)" opacity="0.51">
                <path id="Trazado_14432" data-name="Trazado 14432" d="M130.964,105.97,34.42,161.71,46.4,232.279l96.468-55.694Z" transform="translate(-34.42 -105.97)" fill="#453c9e"/>
              </g>
            </g>
            <g id="Grupo_27214" data-name="Grupo 27214" transform="translate(15.483 78.957)">
              <path id="Trazado_14433" data-name="Trazado 14433" d="M196.638,214.493l-5.459,2.851L136.365,185.7a4.033,4.033,0,0,0-3.578.152L38.259,240.437c-.895-.5-5.019-2.487-5.019-2.487l2,5.216h0a1.274,1.274,0,0,0,.561.622l57.726,33.359a3.988,3.988,0,0,0,3.579-.136l96.726-55.846a1.82,1.82,0,0,0,.819-.864h0Z" transform="translate(-33.229 -178.753)" fill="url(#linear-gradient-19)"/>
              <path id="Trazado_14434" data-name="Trazado 14434" d="M195.808,217.634,96.671,274.875a4.094,4.094,0,0,1-3.669.152L33.865,240.864c-.94-.531-.819-1.516.273-2.108l99.137-57.241a4.049,4.049,0,0,1,3.654-.152l59.136,34.163C197.006,216.057,196.884,217.012,195.808,217.634Z" transform="translate(-33.233 -181)" fill="url(#linear-gradient-20)"/>
              <path id="Trazado_14435" data-name="Trazado 14435" d="M195.8,205.115,96.665,262.341a4.033,4.033,0,0,1-3.669.152L33.859,228.345a1.334,1.334,0,0,1-.576-.637,1,1,0,0,0,.576,1.2L93,263.069a4.094,4.094,0,0,0,3.669-.152L195.8,205.676c.728-.425,1-.986.834-1.516A1.789,1.789,0,0,1,195.8,205.115Z" transform="translate(-33.227 -169.042)" fill="#fff"/>
              <path id="Trazado_14436" data-name="Trazado 14436" d="M55.35,235.164v-1.122c0-.106,0-.152.136-.106l3.882,2.259a.334.334,0,0,1,.136.258v1.092c0,.106,0,.152-.136.106l-3.836-2.214A.349.349,0,0,1,55.35,235.164Z" transform="translate(-21.813 -153.677)" fill="#2842a2"/>
              <path id="Trazado_14437" data-name="Trazado 14437" d="M59.13,237.344v-1.092c0-.106,0-.152.136-.106L63.1,238.36a.349.349,0,0,1,.136.273v1.077c0,.106,0,.152-.136.106L59.266,237.6a.319.319,0,0,1-.136-.258Z" transform="translate(-19.862 -152.536)" fill="#2842a2"/>
              <path id="Trazado_14438" data-name="Trazado 14438" d="M43.92,234.663,126.3,187.081a1.774,1.774,0,0,1,1.774,0L157.4,204.048a.622.622,0,0,1,0,1.092L75.065,252.692a1.774,1.774,0,0,1-1.774,0L43.92,235.755a.622.622,0,0,1,0-1.092Z" transform="translate(-27.882 -177.983)" fill="#adb1f2"/>
              <path id="Trazado_14439" data-name="Trazado 14439" d="M43.92,235.755l.288.167L126.3,188.6a1.8,1.8,0,0,1,1.774,0l29.037,16.679.288-.182a.622.622,0,0,0,0-1.092l-29.326-16.922a1.774,1.774,0,0,0-1.774,0L43.92,234.663a.622.622,0,0,0,0,1.092Z" transform="translate(-27.882 -177.983)" fill="#9198db"/>
              <g id="Grupo_27213" data-name="Grupo 27213" transform="translate(20.148 11.585)">
                <path id="Trazado_14440" data-name="Trazado 14440" d="M134.2,163.615l-71.57,41.32-3.184-1.85,71.57-41.3Z" transform="translate(-51.944 -161.78)" fill="#24126a"/>
                <path id="Trazado_14441" data-name="Trazado 14441" d="M137.826,166.585,70.7,205.327l-3.169-1.835,67.112-38.742Z" transform="translate(-47.772 -160.247)" fill="#24126a"/>
                <path id="Trazado_14442" data-name="Trazado 14442" d="M145.235,168.515,66.2,214.141l-3.184-1.835,79.03-45.626Z" transform="translate(-50.101 -159.25)" fill="#24126a"/>
                <path id="Trazado_14443" data-name="Trazado 14443" d="M148.585,170.455l-79.03,45.626-3.184-1.835L145.4,168.62Z" transform="translate(-48.371 -158.248)" fill="#24126a"/>
                <path id="Trazado_14444" data-name="Trazado 14444" d="M151.935,172.385,72.9,218.011l-3.184-1.835,79.03-45.626Z" transform="translate(-46.642 -157.252)" fill="#24126a"/>
                <path id="Trazado_14445" data-name="Trazado 14445" d="M60.869,192.5l-3.184,1.835L54.5,192.5l3.184-1.835Z" transform="translate(-54.5 -146.864)" fill="#24126a"/>
                <path id="Trazado_14446" data-name="Trazado 14446" d="M69.43,194.175l-6.6,3.806-3.184-1.835,6.6-3.806Z" transform="translate(-51.841 -146.001)" fill="#24126a"/>
              </g>
              <path id="Trazado_14447" data-name="Trazado 14447" d="M106.7,234.1l22.214-12.828a.955.955,0,0,0,0-1.82l-15.163-8.764a3.472,3.472,0,0,0-3.139,0l-22.244,12.8c-.879.5-.879,1.3,0,1.8l15.163,8.779a3.5,3.5,0,0,0,3.169.03Z" transform="translate(-5.108 -165.865)" fill="url(#linear-gradient-21)"/>
              <path id="Trazado_14448" data-name="Trazado 14448" d="M88.361,224.239l22.214-12.858a3.473,3.473,0,0,1,3.139,0l15.163,8.764a1.516,1.516,0,0,1,.546.531c.227-.425,0-.925-.546-1.274l-15.163-8.764a3.472,3.472,0,0,0-3.139,0L88.361,223.511c-.607.334-.788.834-.546,1.274a1.228,1.228,0,0,1,.546-.546Z" transform="translate(-5.105 -165.891)" fill="#9198db"/>
            </g>
          </g>
          <g id="Grupo_27220" data-name="Grupo 27220" transform="translate(5.183 5.901)" opacity="0.11">
            <g id="Grupo_27219" data-name="Grupo 27219" clip-path="url(#clip-path)">
              <g id="Grupo_27218" data-name="Grupo 27218" transform="translate(-52.174 36.823)">
                <path id="Trazado_14449" data-name="Trazado 14449" d="M154.608,193.732,55.472,250.958a4.079,4.079,0,0,1-3.669.152L-7.334,216.962c-.94-.546-.819-1.516.258-2.123L92.06,157.613a4.14,4.14,0,0,1,3.669-.152l59.136,34.163C155.746,192.17,155.746,193.11,154.608,193.732Z" transform="translate(7.968 -157.105)" fill="url(#linear-gradient-22)"/>
                <path id="Trazado_14450" data-name="Trazado 14450" d="M40.138,196.1l22.214-12.828a.955.955,0,0,0,0-1.8l-15.163-8.779a3.472,3.472,0,0,0-3.139,0L21.836,185.516a.955.955,0,0,0,0,1.82L37,196.1a3.5,3.5,0,0,0,3.139,0Z" transform="translate(23.014 -149.252)" fill="url(#linear-gradient-23)"/>
                <path id="Trazado_14451" data-name="Trazado 14451" d="M21.811,186.289l22.214-12.828a3.472,3.472,0,0,1,3.139,0l15.163,8.779a1.41,1.41,0,0,1,.546.531c.227-.44,0-.925-.546-1.274l-15.163-8.779a3.473,3.473,0,0,0-3.139,0L21.811,185.546c-.607.349-.788.849-.546,1.274a1.319,1.319,0,0,1,.546-.531Z" transform="translate(23.008 -149.237)" fill="#9198db"/>
                <g id="Grupo_27217" data-name="Grupo 27217" transform="translate(34.684 19.134)">
                  <path id="Trazado_14452" data-name="Trazado 14452" d="M15.276,217.528l82.381-47.567a1.774,1.774,0,0,1,1.774,0l29.341,16.983a.622.622,0,0,1,0,1.092L46.436,235.572a1.774,1.774,0,0,1-1.774,0L15.276,218.665a.622.622,0,0,1,0-1.137Z" transform="translate(-14.906 -169.723)" fill="#adb1f2"/>
                  <path id="Trazado_14453" data-name="Trazado 14453" d="M15.276,218.665l.288.167,82.093-47.385a1.774,1.774,0,0,1,1.774,0L128.469,188.2l.288-.167a.622.622,0,0,0,0-1.092L99.432,169.961a1.774,1.774,0,0,0-1.774,0L15.276,217.528a.622.622,0,0,0,0,1.137Z" transform="translate(-14.906 -169.723)" fill="#9198db"/>
                  <g id="Grupo_27216" data-name="Grupo 27216" transform="translate(4.722 3.498)">
                    <path id="Trazado_14454" data-name="Trazado 14454" d="M117.347,153.46,45.58,194.886l2.836,1.653L120.183,155.1Z" transform="translate(-15.891 -140.89)" fill="#24126a"/>
                    <path id="Trazado_14455" data-name="Trazado 14455" d="M111.144,150.58l-68.2,39.379,2.836,1.638,68.219-39.379Z" transform="translate(-17.254 -142.377)" fill="#24126a"/>
                    <path id="Trazado_14456" data-name="Trazado 14456" d="M41.754,178.49l-6.384,3.685,2.851,1.638,6.369-3.685Z" transform="translate(-21.162 -127.966)" fill="#24126a"/>
                    <path id="Trazado_14457" data-name="Trazado 14457" d="M44.8,182.11l-4.443,2.563,2.851,1.638,4.428-2.563Z" transform="translate(-18.586 -126.097)" fill="#24126a"/>
                    <path id="Trazado_14458" data-name="Trazado 14458" d="M111.932,148.77l-79.682,46,2.836,1.638,79.682-45.99Z" transform="translate(-22.773 -143.311)" fill="#24126a"/>
                    <path id="Trazado_14459" data-name="Trazado 14459" d="M108.8,146.97l-79.667,46,2.836,1.638,79.682-46.005Z" transform="translate(-24.384 -144.241)" fill="#24126a"/>
                    <path id="Trazado_14460" data-name="Trazado 14460" d="M105.682,145.17,26,191.16l2.851,1.653,79.667-46.005Z" transform="translate(-26 -145.17)" fill="#24126a"/>
                  </g>
                </g>
              </g>
            </g>
          </g>
        </g>
        <g id="Grupo_27225" data-name="Grupo 27225" transform="translate(33.099 32.725)">
          <path id="Trazado_14461" data-name="Trazado 14461" d="M58.4,173.069l7.809-4.519.227,1.35-7.809,4.519Z" transform="translate(-49.954 -100.467)" fill="#42e8e0"/>
          <path id="Trazado_14462" data-name="Trazado 14462" d="M64.38,168.906l4.246-2.456.227,1.35-4.246,2.472Z" transform="translate(-46.867 -101.552)" fill="#42e8e0"/>
          <path id="Trazado_14463" data-name="Trazado 14463" d="M71.55,164.534l3.078-1.774.227,1.35-3.078,1.774Z" transform="translate(-43.165 -103.457)" fill="#42e8e0"/>
          <path id="Trazado_14464" data-name="Trazado 14464" d="M70.07,165l1.046-.622.227,1.365-1.046.607Z" transform="translate(-43.929 -102.62)" fill="#42e8e0"/>
          <path id="Trazado_14465" data-name="Trazado 14465" d="M68.02,166.347l1.911-1.107.227,1.35L68.247,167.7Z" transform="translate(-44.987 -102.176)" fill="#42e8e0"/>
          <path id="Trazado_14466" data-name="Trazado 14466" d="M62.47,165.284l3.078-1.774.227,1.365L62.7,166.649Z" transform="translate(-47.853 -103.07)" fill="#42e8e0"/>
          <path id="Trazado_14467" data-name="Trazado 14467" d="M57.7,168.628l6.035-3.488.243,1.35-6.035,3.488Z" transform="translate(-50.316 -102.228)" fill="#42e8e0"/>
          <g id="Grupo_27222" data-name="Grupo 27222" transform="translate(12.934 40.925)">
            <path id="Trazado_14468" data-name="Trazado 14468" d="M63.41,154.128l6.035-3.488L69.672,152l-6.035,3.488Z" transform="translate(-60.302 -150.64)" fill="#42e8e0"/>
            <path id="Trazado_14469" data-name="Trazado 14469" d="M61.36,154.507l1.911-1.107.227,1.35-1.911,1.107Z" transform="translate(-61.36 -149.215)" fill="#42e8e0"/>
          </g>
          <path id="Trazado_14470" data-name="Trazado 14470" d="M64.07,158.212,70.1,154.74l.227,1.35L64.3,159.577Z" transform="translate(-47.027 -107.598)" fill="#42e8e0"/>
          <path id="Trazado_14471" data-name="Trazado 14471" d="M62.03,158.6l1.911-1.107.227,1.35-1.911,1.107Z" transform="translate(-48.08 -106.178)" fill="#42e8e0"/>
          <path id="Trazado_14472" data-name="Trazado 14472" d="M64.415,135.74,53.057,142.32l-.227-1.365,11.357-6.566Z" transform="translate(-52.83 -118.105)" fill="#42e8e0"/>
          <path id="Trazado_14473" data-name="Trazado 14473" d="M64.143,134.225l-2.805,1.622-.227-1.365,2.805-1.622Z" transform="translate(-48.555 -118.895)" fill="#42e8e0"/>
          <path id="Trazado_14474" data-name="Trazado 14474" d="M80.24,133.355,68.867,139.92l-.227-1.365,11.372-6.566Z" transform="translate(-44.667 -119.344)" fill="#42e8e0"/>
          <path id="Trazado_14475" data-name="Trazado 14475" d="M79.968,131.82l-2.82,1.622-.227-1.35,2.82-1.622Z" transform="translate(-40.392 -120.129)" fill="#42e8e0"/>
          <path id="Trazado_14476" data-name="Trazado 14476" d="M56.476,140.955,53.4,142.729l-.227-1.365,3.078-1.774Z" transform="translate(-52.654 -115.42)" fill="#42e8e0"/>
          <path id="Trazado_14477" data-name="Trazado 14477" d="M68.836,138.29l-3.078,1.789-.227-1.365,3.078-1.774Z" transform="translate(-46.273 -116.788)" fill="#42e8e0"/>
          <path id="Trazado_14478" data-name="Trazado 14478" d="M62.252,138.19l-6.035,3.488-.227-1.365,6.035-3.472Z" transform="translate(-51.198 -116.84)" fill="#42e8e0"/>
          <path id="Trazado_14479" data-name="Trazado 14479" d="M62.9,137.015l-1.911,1.107-.227-1.365,1.911-1.107Z" transform="translate(-48.736 -117.454)" fill="#42e8e0"/>
          <path id="Trazado_14480" data-name="Trazado 14480" d="M69.1,134.245l-6.035,3.488-.227-1.365,6.035-3.487Z" transform="translate(-47.662 -118.884)" fill="#42e8e0"/>
          <path id="Trazado_14481" data-name="Trazado 14481" d="M69.753,133.05l-1.926,1.107-.227-1.35,1.911-1.107Z" transform="translate(-45.204 -119.494)" fill="#42e8e0"/>
          <path id="Trazado_14482" data-name="Trazado 14482" d="M68.486,136.25l-3.078,1.774-.227-1.35,3.078-1.774Z" transform="translate(-46.454 -117.841)" fill="#42e8e0"/>
          <path id="Trazado_14483" data-name="Trazado 14483" d="M74.262,133.5l-6.035,3.488L68,135.628l6.035-3.488Z" transform="translate(-44.998 -119.266)" fill="#42e8e0"/>
          <path id="Trazado_14484" data-name="Trazado 14484" d="M74.908,132.31,73,133.416l-.227-1.35,1.911-1.107Z" transform="translate(-42.535 -119.876)" fill="#42e8e0"/>
          <path id="Trazado_14485" data-name="Trazado 14485" d="M60.04,141.76,53.747,145.4l-.227-1.35,6.293-3.639Z" transform="translate(-52.474 -114.997)" fill="#42e8e0"/>
          <path id="Trazado_14486" data-name="Trazado 14486" d="M63.236,139.575,58.687,142.2l-.227-1.35,4.549-2.638Z" transform="translate(-49.923 -116.132)" fill="#42e8e0"/>
          <path id="Trazado_14487" data-name="Trazado 14487" d="M65.556,137.94l-3.078,1.774-.227-1.35,3.078-1.774Z" transform="translate(-47.966 -116.969)" fill="#42e8e0"/>
          <path id="Trazado_14488" data-name="Trazado 14488" d="M86.355,128.835l-6.308,3.639-.227-1.365,6.293-3.639Z" transform="translate(-38.895 -121.678)" fill="#42e8e0"/>
          <path id="Trazado_14489" data-name="Trazado 14489" d="M89.552,126.63l-4.564,2.638-.227-1.35,4.564-2.638Z" transform="translate(-36.344 -122.808)" fill="#42e8e0"/>
          <path id="Trazado_14490" data-name="Trazado 14490" d="M91.871,125.015l-3.093,1.774-.227-1.365,3.078-1.774Z" transform="translate(-34.387 -123.65)" fill="#42e8e0"/>
          <path id="Trazado_14491" data-name="Trazado 14491" d="M82.5,156.6l6.308-3.639.227,1.365-6.293,3.639Z" transform="translate(-37.511 -108.517)" fill="#42e8e0"/>
          <path id="Trazado_14492" data-name="Trazado 14492" d="M78.71,158.443l4.564-2.623.227,1.35-4.564,2.638Z" transform="translate(-39.468 -107.04)" fill="#42e8e0"/>
          <path id="Trazado_14493" data-name="Trazado 14493" d="M75.89,159.784l3.078-1.774.243,1.35-3.078,1.789Z" transform="translate(-40.924 -105.909)" fill="#42e8e0"/>
          <path id="Trazado_14494" data-name="Trazado 14494" d="M81.12,159.649l6.308-3.639.227,1.35-6.293,3.654Z" transform="translate(-38.223 -106.942)" fill="#42e8e0"/>
          <path id="Trazado_14495" data-name="Trazado 14495" d="M77.33,161.493l4.564-2.623.227,1.35-4.564,2.638Z" transform="translate(-40.18 -105.465)" fill="#42e8e0"/>
          <path id="Trazado_14496" data-name="Trazado 14496" d="M74.52,162.834,77.6,161.06l.227,1.35L74.747,164.2Z" transform="translate(-41.631 -104.335)" fill="#42e8e0"/>
          <path id="Trazado_14497" data-name="Trazado 14497" d="M64.35,155.048l2.123-1.228.227,1.365-2.123,1.228Z" transform="translate(-46.882 -108.073)" fill="#42e8e0"/>
          <path id="Trazado_14498" data-name="Trazado 14498" d="M61.71,156.712l2.805-1.622.227,1.35-2.805,1.622Z" transform="translate(-48.245 -107.417)" fill="#42e8e0"/>
          <path id="Trazado_14499" data-name="Trazado 14499" d="M60.41,143.79l-6.293,3.639-.227-1.35,6.293-3.639Z" transform="translate(-52.283 -113.948)" fill="#42e8e0"/>
          <path id="Trazado_14500" data-name="Trazado 14500" d="M63.622,141.6l-4.564,2.638-.227-1.365,4.564-2.623Z" transform="translate(-49.732 -115.079)" fill="#42e8e0"/>
          <path id="Trazado_14501" data-name="Trazado 14501" d="M65.926,139.97l-3.078,1.789-.227-1.365L65.7,138.62Z" transform="translate(-47.775 -115.921)" fill="#42e8e0"/>
          <path id="Trazado_14502" data-name="Trazado 14502" d="M56.6,147.435l-2.138,1.228L54.23,147.3l2.138-1.228Z" transform="translate(-52.107 -112.074)" fill="#42e8e0"/>
          <path id="Trazado_14503" data-name="Trazado 14503" d="M59.468,145.9l-2.805,1.622-.243-1.35,2.82-1.638Z" transform="translate(-50.976 -112.864)" fill="#42e8e0"/>
          <path id="Trazado_14504" data-name="Trazado 14504" d="M63.821,143.725,59.3,146.333l-.243-1.35,4.534-2.623Z" transform="translate(-49.613 -113.99)" fill="#42e8e0"/>
          <path id="Trazado_14505" data-name="Trazado 14505" d="M66.26,160.693l2.123-1.243.227,1.365-2.123,1.228Z" transform="translate(-45.896 -105.166)" fill="#42e8e0"/>
          <path id="Trazado_14506" data-name="Trazado 14506" d="M63.62,162.342l2.805-1.622.227,1.365-2.805,1.622Z" transform="translate(-47.259 -104.51)" fill="#42e8e0"/>
          <path id="Trazado_14507" data-name="Trazado 14507" d="M59.84,164.858l4.534-2.608.227,1.35-4.534,2.623Z" transform="translate(-49.211 -103.72)" fill="#42e8e0"/>
          <path id="Trazado_14508" data-name="Trazado 14508" d="M68.39,157.843l4.534-2.623.227,1.365-4.519,2.608Z" transform="translate(-44.796 -107.35)" fill="#42e8e0"/>
          <path id="Trazado_14509" data-name="Trazado 14509" d="M63.51,160.813l6.1-3.533.243,1.365-6.111,3.533Z" transform="translate(-47.316 -106.286)" fill="#42e8e0"/>
          <path id="Trazado_14510" data-name="Trazado 14510" d="M61.46,161.177l1.911-1.107.227,1.35-1.911,1.107Z" transform="translate(-48.374 -104.846)" fill="#42e8e0"/>
          <path id="Trazado_14511" data-name="Trazado 14511" d="M59.49,162.307l1.926-1.107.227,1.365-1.911,1.107Z" transform="translate(-49.391 -104.262)" fill="#42e8e0"/>
          <g id="Grupo_27224" data-name="Grupo 27224" transform="translate(2.654 32.404)">
            <path id="Trazado_14512" data-name="Trazado 14512" d="M59.77,151.578l6.02-3.488.243,1.35L60,152.927Z" transform="translate(-51.9 -143.435)" fill="#42e8e0"/>
            <path id="Trazado_14513" data-name="Trazado 14513" d="M57.72,151.947l1.911-1.107.227,1.365L57.947,153.3Z" transform="translate(-52.959 -142.015)" fill="#42e8e0"/>
            <path id="Trazado_14514" data-name="Trazado 14514" d="M60.04,148.4l2.123-1.228.227,1.365-2.123,1.228Z" transform="translate(-51.761 -143.91)" fill="#42e8e0"/>
            <path id="Trazado_14515" data-name="Trazado 14515" d="M64.99,150.038l2.138-1.228.227,1.35-2.138,1.228Z" transform="translate(-49.205 -143.063)" fill="#42e8e0"/>
            <path id="Trazado_14516" data-name="Trazado 14516" d="M66.99,149.477l5.11-2.957.227,1.35-5.11,2.957Z" transform="translate(-48.173 -144.246)" fill="#42e8e0"/>
            <path id="Trazado_14517" data-name="Trazado 14517" d="M70.96,146.779l3.033-1.759.227,1.35-3.033,1.759Z" transform="translate(-46.123 -145.02)" fill="#42e8e0"/>
            <path id="Trazado_14518" data-name="Trazado 14518" d="M57.4,150.062l2.805-1.622.227,1.35-2.805,1.638Z" transform="translate(-53.124 -143.254)" fill="#42e8e0"/>
            <g id="Grupo_27223" data-name="Grupo 27223" transform="translate(0 2.396)">
              <path id="Trazado_14519" data-name="Trazado 14519" d="M57.22,147.828l2.138-1.228.227,1.35-2.138,1.243Z" transform="translate(-53.217 -146.6)" fill="#42e8e0"/>
              <path id="Trazado_14520" data-name="Trazado 14520" d="M54.58,149.492l2.82-1.622.227,1.35-2.82,1.622Z" transform="translate(-54.58 -145.944)" fill="#42e8e0"/>
            </g>
            <path id="Trazado_14521" data-name="Trazado 14521" d="M62.96,151.177l1.911-1.107.227,1.35-1.911,1.107Z" transform="translate(-50.253 -142.413)" fill="#42e8e0"/>
            <path id="Trazado_14522" data-name="Trazado 14522" d="M60.99,152.307,62.9,151.2l.227,1.365-1.911,1.107Z" transform="translate(-51.27 -141.829)" fill="#42e8e0"/>
          </g>
          <path id="Trazado_14523" data-name="Trazado 14523" d="M70.67,163.48l6.52-3.76.227,1.35-6.52,3.76Z" transform="translate(-43.619 -105.027)" fill="#42e8e0"/>
          <path id="Trazado_14524" data-name="Trazado 14524" d="M65.86,166.178l6.111-3.518.227,1.35-6.111,3.533Z" transform="translate(-46.102 -103.509)" fill="#42e8e0"/>
          <path id="Trazado_14525" data-name="Trazado 14525" d="M63.81,166.547l1.911-1.107.227,1.35L64.037,167.9Z" transform="translate(-47.161 -102.073)" fill="#42e8e0"/>
          <path id="Trazado_14526" data-name="Trazado 14526" d="M61.85,167.677l1.911-1.107.227,1.365-1.911,1.107Z" transform="translate(-48.173 -101.49)" fill="#42e8e0"/>
          <path id="Trazado_14527" data-name="Trazado 14527" d="M62.174,167.92,58.05,170.3l.227,1.365,4.124-2.381Z" transform="translate(-50.135 -100.793)" fill="#42e8e0"/>
        </g>
      </g>
      <g id="Grupo_27242" data-name="Grupo 27242" transform="translate(564.65 154.768)">
        <g id="Grupo_27237" data-name="Grupo 27237">
          <path id="Trazado_14528" data-name="Trazado 14528" d="M494.816,282.987a9.1,9.1,0,0,1-4.549-1.2l-89.9-51.934a2.578,2.578,0,0,1,0-4.549l56.574-32.677.243.152,94.224,54.39a2.593,2.593,0,0,1,0,4.549l-52.07,30.069A9.1,9.1,0,0,1,494.816,282.987Zm-4-2.062a8.2,8.2,0,0,0,8.021,0l52.07-30.114a1.607,1.607,0,0,0,0-2.76L456.893,193.8l-.182.106L400.8,226.171a1.622,1.622,0,0,0-.789,1.395,1.592,1.592,0,0,0,.789,1.38Z" transform="translate(-393.548 -96.038)" fill="#8686f2"/>
          <g id="Grupo_27231" data-name="Grupo 27231">
            <g id="Grupo_27228" data-name="Grupo 27228" transform="translate(61.688)">
              <path id="Trazado_14529" data-name="Trazado 14529" d="M437.131,204.7l12.54-74.3-1.016-.425,1.516-.879h0a1.092,1.092,0,0,1,1.168,0L551.416,186.93a2.836,2.836,0,0,1,1.3,2.547l-12.631,74.936a.894.894,0,0,1-.531.758h0l-1.516.864-.243-1.395h.076L438.45,207.249a2.881,2.881,0,0,1-1.319-2.547Z" transform="translate(-435.55 -128.928)" fill="url(#linear-gradient-24)"/>
              <path id="Trazado_14530" data-name="Trazado 14530" d="M518.314,168.8l1.653-.728a2.336,2.336,0,0,1,.212,1.243L507.548,244.25a.9.9,0,0,1-.531.758h0l-1.516.864-.243-1.395h.076l-5.034-2.911Z" transform="translate(-402.934 -108.719)" fill="url(#linear-gradient-25)"/>
              <path id="Trazado_14531" data-name="Trazado 14531" d="M437.471,207.836l100.077,57.832c.773.44,1.425.182,1.516-.622L551.7,190.111a2.836,2.836,0,0,0-1.289-2.547L450.239,129.746c-.773-.455-1.425-.2-1.516.607l-12.631,74.936a2.775,2.775,0,0,0,1.38,2.547Z" transform="translate(-436.087 -128.622)" fill="#24126a"/>
              <g id="Grupo_27227" data-name="Grupo 27227" transform="translate(3.613 5.916)" opacity="0.51">
                <path id="Trazado_14532" data-name="Trazado 14532" d="M458.368,105.97,554.9,161.71l-11.964,70.569L446.45,176.585Z" transform="translate(-446.45 -105.97)" fill="#453c9e"/>
              </g>
            </g>
            <g id="Grupo_27230" data-name="Grupo 27230" transform="translate(0 78.957)">
              <path id="Trazado_14533" data-name="Trazado 14533" d="M395.44,214.493l5.459,2.851L455.7,185.7a4.033,4.033,0,0,1,3.578.152L553.8,240.437c.91-.5,5.034-2.487,5.034-2.487l-2,5.216h0a1.351,1.351,0,0,1-.561.622l-57.726,33.359a3.988,3.988,0,0,1-3.578-.136l-96.726-55.846a1.759,1.759,0,0,1-.819-.864h0Z" transform="translate(-395.386 -178.753)" fill="url(#linear-gradient-26)"/>
              <path id="Trazado_14534" data-name="Trazado 14534" d="M396.307,217.634l99.137,57.241a4.094,4.094,0,0,0,3.67.152l59.136-34.163c.94-.531.834-1.516-.258-2.108l-99.137-57.241a4.079,4.079,0,0,0-3.669-.152L396.05,215.527C395.094,216.057,395.216,217.013,396.307,217.634Z" transform="translate(-395.404 -181)" fill="url(#linear-gradient-27)"/>
              <path id="Trazado_14535" data-name="Trazado 14535" d="M396.3,205.115l99.137,57.226a4.033,4.033,0,0,0,3.669.152l59.136-34.147a1.2,1.2,0,0,0,.576-.637.986.986,0,0,1-.576,1.2l-59.136,34.163a4.094,4.094,0,0,1-3.669-.152L396.3,205.676c-.728-.425-1-.986-.834-1.516a1.789,1.789,0,0,0,.834.955Z" transform="translate(-395.397 -169.042)" fill="#fff"/>
              <path id="Trazado_14536" data-name="Trazado 14536" d="M482.489,235.164v-1.122c0-.106,0-.152-.136-.106l-3.836,2.214a.334.334,0,0,0-.136.258V237.5c0,.106,0,.152.136.106l3.836-2.214a.349.349,0,0,0,.137-.227Z" transform="translate(-352.563 -153.677)" fill="#2842a2"/>
              <path id="Trazado_14537" data-name="Trazado 14537" d="M478.709,237.344v-1.092c0-.106,0-.152-.136-.106l-3.836,2.214a.349.349,0,0,0-.136.273v1.077c0,.106,0,.152.136.106l3.836-2.214a.319.319,0,0,0,.136-.258Z" transform="translate(-354.515 -152.536)" fill="#2842a2"/>
              <path id="Trazado_14538" data-name="Trazado 14538" d="M531.381,234.663,449,187.081a1.774,1.774,0,0,0-1.774,0L417.9,204.064a.622.622,0,0,0,0,1.092l82.336,47.552a1.774,1.774,0,0,0,1.774,0l29.371-16.952a.622.622,0,0,0,0-1.092Z" transform="translate(-383.957 -177.983)" fill="#adb1f2"/>
              <path id="Trazado_14539" data-name="Trazado 14539" d="M531.371,235.755l-.288.167L448.99,188.6a1.8,1.8,0,0,0-1.774,0l-29.007,16.679-.288-.182a.622.622,0,0,1,0-1.092l29.3-16.922a1.774,1.774,0,0,1,1.774,0l82.381,47.567a.622.622,0,0,1,0,1.107Z" transform="translate(-383.946 -177.983)" fill="#9198db"/>
              <g id="Grupo_27229" data-name="Grupo 27229" transform="translate(38.007 11.585)">
                <path id="Trazado_14540" data-name="Trazado 14540" d="M443.65,163.615l71.555,41.32,3.184-1.85-71.555-41.3Z" transform="translate(-420.602 -161.78)" fill="#24126a"/>
                <path id="Trazado_14541" data-name="Trazado 14541" d="M438.51,166.585l67.112,38.742,3.184-1.835L441.694,164.75Z" transform="translate(-423.256 -160.247)" fill="#24126a"/>
                <path id="Trazado_14542" data-name="Trazado 14542" d="M435.16,168.515l79.015,45.626,3.184-1.835-79.03-45.626Z" transform="translate(-424.986 -159.25)" fill="#24126a"/>
                <path id="Trazado_14543" data-name="Trazado 14543" d="M431.81,170.455l79.015,45.626,3.184-1.835-79.03-45.626Z" transform="translate(-426.715 -158.248)" fill="#24126a"/>
                <path id="Trazado_14544" data-name="Trazado 14544" d="M428.45,172.385l79.03,45.626,3.184-1.835-79.03-45.626Z" transform="translate(-428.45 -157.252)" fill="#24126a"/>
                <path id="Trazado_14545" data-name="Trazado 14545" d="M493.7,192.5l3.169,1.835,3.184-1.835-3.184-1.835Z" transform="translate(-394.76 -146.864)" fill="#24126a"/>
                <path id="Trazado_14546" data-name="Trazado 14546" d="M486.3,194.175l6.6,3.806,3.184-1.835-6.611-3.806Z" transform="translate(-398.581 -146.001)" fill="#24126a"/>
              </g>
              <path id="Trazado_14547" data-name="Trazado 14547" d="M444,234.1l-22.214-12.828a.955.955,0,0,1,0-1.82l15.163-8.764a3.473,3.473,0,0,1,3.139,0l22.244,12.8a.955.955,0,0,1,0,1.8l-15.163,8.779A3.472,3.472,0,0,1,444,234.1Z" transform="translate(-382.126 -165.865)" fill="url(#linear-gradient-28)"/>
              <path id="Trazado_14548" data-name="Trazado 14548" d="M462.312,224.239,440.1,211.381a3.472,3.472,0,0,0-3.139,0L421.8,220.145a1.41,1.41,0,0,0-.546.531c-.227-.425,0-.925.546-1.274l15.163-8.764a3.473,3.473,0,0,1,3.139,0l22.214,12.873c.607.334.773.834.546,1.274a1.319,1.319,0,0,0-.546-.546Z" transform="translate(-382.105 -165.891)" fill="#9198db"/>
            </g>
          </g>
          <g id="Grupo_27236" data-name="Grupo 27236" transform="translate(65.316 5.901)" opacity="0.11">
            <g id="Grupo_27235" data-name="Grupo 27235" clip-path="url(#clip-path-2)">
              <g id="Grupo_27234" data-name="Grupo 27234" transform="translate(-2.862 36.808)">
                <path id="Trazado_14549" data-name="Trazado 14549" d="M437.5,193.737l99.137,57.226a4.048,4.048,0,0,0,3.654.152l59.136-34.147c.94-.546.819-1.516-.273-2.123L500.031,157.6a4.139,4.139,0,0,0-3.669-.152l-59.136,34.163C436.285,192.175,436.407,193.115,437.5,193.737Z" transform="translate(-436.593 -157.095)" fill="url(#linear-gradient-29)"/>
                <path id="Trazado_14550" data-name="Trazado 14550" d="M510.542,196.1l-22.214-12.828a.955.955,0,0,1,0-1.8l15.163-8.779a3.472,3.472,0,0,1,3.139,0l22.214,12.828a.955.955,0,0,1,0,1.82L513.681,196.1a3.472,3.472,0,0,1-3.139,0Z" transform="translate(-410.212 -149.237)" fill="url(#linear-gradient-30)"/>
                <path id="Trazado_14551" data-name="Trazado 14551" d="M528.862,186.289l-22.214-12.828a3.472,3.472,0,0,0-3.139,0l-15.163,8.779a1.319,1.319,0,0,0-.546.531c-.227-.44,0-.925.546-1.274l15.163-8.779a3.473,3.473,0,0,1,3.139,0l22.214,12.828c.607.349.773.849.546,1.274a1.409,1.409,0,0,0-.546-.531Z" transform="translate(-410.199 -149.222)" fill="#9198db"/>
                <g id="Grupo_27233" data-name="Grupo 27233" transform="translate(14.683 19.149)">
                  <path id="Trazado_14552" data-name="Trazado 14552" d="M560.021,217.528,477.7,169.961a1.774,1.774,0,0,0-1.774,0l-29.341,16.983a.637.637,0,0,0,0,1.092l82.351,47.536a1.774,1.774,0,0,0,1.774,0l29.31-16.907a.622.622,0,0,0,0-1.137Z" transform="translate(-446.276 -169.723)" fill="#adb1f2"/>
                  <path id="Trazado_14553" data-name="Trazado 14553" d="M560.021,218.665l-.288.167L477.7,171.4a1.774,1.774,0,0,0-1.774,0l-29.037,16.8-.3-.167a.637.637,0,0,1,0-1.092l29.341-16.983a1.774,1.774,0,0,1,1.774,0l82.381,47.567a.622.622,0,0,1-.061,1.137Z" transform="translate(-446.276 -169.723)" fill="#9198db"/>
                  <g id="Grupo_27232" data-name="Grupo 27232" transform="translate(5.085 3.498)">
                    <path id="Trazado_14554" data-name="Trazado 14554" d="M460.461,153.46l71.767,41.426-2.851,1.653L457.61,155.1Z" transform="translate(-457.61 -140.89)" fill="#24126a"/>
                    <path id="Trazado_14555" data-name="Trazado 14555" d="M465.435,150.58l68.219,39.379-2.836,1.638L462.6,152.218Z" transform="translate(-455.034 -142.377)" fill="#24126a"/>
                    <path id="Trazado_14556" data-name="Trazado 14556" d="M513.791,178.49l6.369,3.685-2.835,1.638-6.384-3.685Z" transform="translate(-430.075 -127.966)" fill="#24126a"/>
                    <path id="Trazado_14557" data-name="Trazado 14557" d="M510.081,182.11l4.428,2.563-2.836,1.638-4.443-2.563Z" transform="translate(-431.99 -126.097)" fill="#24126a"/>
                    <path id="Trazado_14558" data-name="Trazado 14558" d="M468.571,148.77l79.682,46-2.851,1.638-79.682-45.99Z" transform="translate(-453.423 -143.311)" fill="#24126a"/>
                    <path id="Trazado_14559" data-name="Trazado 14559" d="M471.685,146.97l79.682,46-2.836,1.638L468.85,148.608Z" transform="translate(-451.807 -144.241)" fill="#24126a"/>
                    <path id="Trazado_14560" data-name="Trazado 14560" d="M474.821,145.17,554.5,191.16l-2.851,1.653L471.97,146.808Z" transform="translate(-450.196 -145.17)" fill="#24126a"/>
                  </g>
                </g>
              </g>
            </g>
          </g>
        </g>
        <g id="Grupo_27241" data-name="Grupo 27241" transform="translate(90.017 31.072)">
          <path id="Trazado_14561" data-name="Trazado 14561" d="M468.32,123.91l7.809,4.519.243-1.365-7.824-4.5Z" transform="translate(-459.874 -122.56)" fill="#42e8e0"/>
          <path id="Trazado_14562" data-name="Trazado 14562" d="M474.3,127.36l4.261,2.472.227-1.365-4.261-2.456Z" transform="translate(-456.787 -120.779)" fill="#42e8e0"/>
          <path id="Trazado_14563" data-name="Trazado 14563" d="M481.48,131.515l3.078,1.774.227-1.365-3.078-1.774Z" transform="translate(-453.079 -118.641)" fill="#42e8e0"/>
          <path id="Trazado_14564" data-name="Trazado 14564" d="M480,130.65l1.046.607.227-1.35-1.046-.607Z" transform="translate(-453.844 -119.08)" fill="#42e8e0"/>
          <path id="Trazado_14565" data-name="Trazado 14565" d="M477.95,129.475l1.911,1.107.227-1.365-1.911-1.107Z" transform="translate(-454.902 -119.694)" fill="#42e8e0"/>
          <path id="Trazado_14566" data-name="Trazado 14566" d="M472.4,130.75l3.078,1.789.227-1.365-3.078-1.774Z" transform="translate(-457.768 -119.028)" fill="#42e8e0"/>
          <path id="Trazado_14567" data-name="Trazado 14567" d="M467.63,128l6.035,3.488.228-1.365-6.035-3.488Z" transform="translate(-460.23 -120.453)" fill="#42e8e0"/>
          <g id="Grupo_27238" data-name="Grupo 27238" transform="translate(12.949 26.384)">
            <path id="Trazado_14568" data-name="Trazado 14568" d="M473.34,142.49l6.035,3.488.227-1.35-6.035-3.488Z" transform="translate(-470.232 -139.351)" fill="#42e8e0"/>
            <path id="Trazado_14569" data-name="Trazado 14569" d="M471.29,141.31l1.911,1.107.227-1.35-1.911-1.107Z" transform="translate(-471.29 -139.96)" fill="#42e8e0"/>
          </g>
          <path id="Trazado_14570" data-name="Trazado 14570" d="M474,138.4l6.035,3.488.227-1.35-6.035-3.488Z" transform="translate(-456.941 -115.079)" fill="#42e8e0"/>
          <path id="Trazado_14571" data-name="Trazado 14571" d="M471.95,137.22l1.911,1.107.243-1.365-1.911-1.092Z" transform="translate(-458 -115.688)" fill="#42e8e0"/>
          <path id="Trazado_14572" data-name="Trazado 14572" d="M474.35,161.926l-11.372-6.566-.227,1.365,11.372,6.566Z" transform="translate(-462.75 -105.625)" fill="#42e8e0"/>
          <path id="Trazado_14573" data-name="Trazado 14573" d="M474.073,161.772l-2.805-1.622-.227,1.35,2.805,1.622Z" transform="translate(-458.47 -103.152)" fill="#42e8e0"/>
          <path id="Trazado_14574" data-name="Trazado 14574" d="M490.155,164.326,478.8,157.76l-.227,1.35,11.357,6.566Z" transform="translate(-454.582 -104.386)" fill="#42e8e0"/>
          <path id="Trazado_14575" data-name="Trazado 14575" d="M489.9,164.178l-2.82-1.638-.227,1.365,2.805,1.622Z" transform="translate(-450.307 -101.918)" fill="#42e8e0"/>
          <path id="Trazado_14576" data-name="Trazado 14576" d="M466.406,155.094l-3.078-1.774-.227,1.35,3.078,1.789Z" transform="translate(-462.569 -106.678)" fill="#42e8e0"/>
          <path id="Trazado_14577" data-name="Trazado 14577" d="M478.771,157.744l-3.078-1.774-.243,1.35,3.093,1.789Z" transform="translate(-456.193 -105.31)" fill="#42e8e0"/>
          <path id="Trazado_14578" data-name="Trazado 14578" d="M472.182,158.438l-6.035-3.488-.227,1.35,6.02,3.488Z" transform="translate(-461.113 -105.837)" fill="#42e8e0"/>
          <path id="Trazado_14579" data-name="Trazado 14579" d="M472.818,158.807l-1.911-1.107-.227,1.35,1.911,1.107Z" transform="translate(-458.656 -104.417)" fill="#42e8e0"/>
          <path id="Trazado_14580" data-name="Trazado 14580" d="M479.032,162.388,473,158.9l-.227,1.35,6.035,3.488Z" transform="translate(-457.577 -103.797)" fill="#42e8e0"/>
          <path id="Trazado_14581" data-name="Trazado 14581" d="M479.668,162.752l-1.911-1.092-.227,1.35,1.911,1.107Z" transform="translate(-455.119 -102.372)" fill="#42e8e0"/>
          <path id="Trazado_14582" data-name="Trazado 14582" d="M478.416,159.8l-3.078-1.789-.227,1.365,3.078,1.774Z" transform="translate(-456.368 -104.257)" fill="#42e8e0"/>
          <path id="Trazado_14583" data-name="Trazado 14583" d="M484.192,163.128l-6.035-3.488-.227,1.35,6.02,3.5Z" transform="translate(-454.912 -103.415)" fill="#42e8e0"/>
          <path id="Trazado_14584" data-name="Trazado 14584" d="M484.828,163.492l-1.911-1.092-.227,1.35,1.911,1.107Z" transform="translate(-452.455 -101.99)" fill="#42e8e0"/>
          <path id="Trazado_14585" data-name="Trazado 14585" d="M469.975,154.919l-6.293-3.639-.243,1.35,6.308,3.639Z" transform="translate(-462.394 -107.731)" fill="#42e8e0"/>
          <path id="Trazado_14586" data-name="Trazado 14586" d="M473.166,156.768l-4.549-2.638-.227,1.365,4.549,2.623Z" transform="translate(-459.838 -106.26)" fill="#42e8e0"/>
          <path id="Trazado_14587" data-name="Trazado 14587" d="M475.486,158.109l-3.078-1.789-.227,1.365,3.078,1.774Z" transform="translate(-457.881 -105.129)" fill="#42e8e0"/>
          <path id="Trazado_14588" data-name="Trazado 14588" d="M496.27,167.849l-6.293-3.639-.227,1.35,6.293,3.654Z" transform="translate(-448.809 -101.055)" fill="#42e8e0"/>
          <path id="Trazado_14589" data-name="Trazado 14589" d="M499.482,169.693l-4.564-2.623-.227,1.35,4.549,2.638Z" transform="translate(-446.259 -99.579)" fill="#42e8e0"/>
          <path id="Trazado_14590" data-name="Trazado 14590" d="M501.786,171.034l-3.078-1.774-.227,1.35,3.078,1.789Z" transform="translate(-444.302 -98.448)" fill="#42e8e0"/>
          <path id="Trazado_14591" data-name="Trazado 14591" d="M492.43,140.07l6.308,3.639.227-1.35-6.308-3.639Z" transform="translate(-447.426 -114.216)" fill="#42e8e0"/>
          <path id="Trazado_14592" data-name="Trazado 14592" d="M488.64,137.88l4.549,2.638.243-1.365-4.564-2.623Z" transform="translate(-449.383 -115.347)" fill="#42e8e0"/>
          <path id="Trazado_14593" data-name="Trazado 14593" d="M485.82,136.25l3.078,1.789.227-1.365-3.078-1.774Z" transform="translate(-450.839 -116.189)" fill="#42e8e0"/>
          <path id="Trazado_14594" data-name="Trazado 14594" d="M491.05,137.035l6.308,3.639.227-1.365-6.308-3.639Z" transform="translate(-448.138 -115.791)" fill="#42e8e0"/>
          <path id="Trazado_14595" data-name="Trazado 14595" d="M487.26,134.829l4.549,2.638.243-1.35-4.564-2.638Z" transform="translate(-450.095 -116.922)" fill="#42e8e0"/>
          <path id="Trazado_14596" data-name="Trazado 14596" d="M484.44,133.215l3.078,1.774.227-1.35-3.078-1.789Z" transform="translate(-451.551 -117.763)" fill="#42e8e0"/>
          <path id="Trazado_14597" data-name="Trazado 14597" d="M474.27,140.8l2.138,1.243.227-1.365-2.123-1.228Z" transform="translate(-456.802 -113.839)" fill="#42e8e0"/>
          <path id="Trazado_14598" data-name="Trazado 14598" d="M471.63,139.285l2.82,1.622.227-1.35-2.805-1.638Z" transform="translate(-458.165 -114.629)" fill="#42e8e0"/>
          <path id="Trazado_14599" data-name="Trazado 14599" d="M470.34,152.894l-6.293-3.654-.227,1.365,6.293,3.639Z" transform="translate(-462.198 -108.785)" fill="#42e8e0"/>
          <path id="Trazado_14600" data-name="Trazado 14600" d="M473.536,154.738l-4.549-2.638-.227,1.35,4.549,2.638Z" transform="translate(-459.647 -107.308)" fill="#42e8e0"/>
          <path id="Trazado_14601" data-name="Trazado 14601" d="M475.856,156.079l-3.078-1.789-.227,1.365,3.078,1.774Z" transform="translate(-457.69 -106.177)" fill="#42e8e0"/>
          <path id="Trazado_14602" data-name="Trazado 14602" d="M466.51,148.428l-2.123-1.228-.227,1.35,2.123,1.243Z" transform="translate(-462.022 -109.838)" fill="#42e8e0"/>
          <path id="Trazado_14603" data-name="Trazado 14603" d="M469.4,150.092l-2.82-1.622-.227,1.35,2.82,1.622Z" transform="translate(-460.891 -109.182)" fill="#42e8e0"/>
          <path id="Trazado_14604" data-name="Trazado 14604" d="M473.751,152.613l-4.534-2.623-.227,1.365,4.534,2.623Z" transform="translate(-459.528 -108.397)" fill="#42e8e0"/>
          <path id="Trazado_14605" data-name="Trazado 14605" d="M476.18,135.17l2.138,1.228.227-1.35-2.138-1.228Z" transform="translate(-455.816 -116.746)" fill="#42e8e0"/>
          <path id="Trazado_14606" data-name="Trazado 14606" d="M473.54,133.64l2.82,1.638.227-1.365-2.82-1.622Z" transform="translate(-457.179 -117.536)" fill="#42e8e0"/>
          <path id="Trazado_14607" data-name="Trazado 14607" d="M469.77,131.46l4.534,2.623.227-1.35L470,130.11Z" transform="translate(-459.125 -118.662)" fill="#42e8e0"/>
          <path id="Trazado_14608" data-name="Trazado 14608" d="M478.32,138.495l4.534,2.608.227-1.35-4.534-2.623Z" transform="translate(-454.711 -115.037)" fill="#42e8e0"/>
          <path id="Trazado_14609" data-name="Trazado 14609" d="M473.43,135.82l6.111,3.533.227-1.35-6.111-3.533Z" transform="translate(-457.236 -116.411)" fill="#42e8e0"/>
          <path id="Trazado_14610" data-name="Trazado 14610" d="M471.39,134.64l1.911,1.107.227-1.365-1.911-1.092Z" transform="translate(-458.289 -117.02)" fill="#42e8e0"/>
          <path id="Trazado_14611" data-name="Trazado 14611" d="M469.42,133.5l1.911,1.107.227-1.35-1.911-1.107Z" transform="translate(-459.306 -117.609)" fill="#42e8e0"/>
          <g id="Grupo_27240" data-name="Grupo 27240" transform="translate(2.669 29.705)">
            <path id="Trazado_14612" data-name="Trazado 14612" d="M469.69,145.049l6.035,3.488.227-1.35-6.035-3.488Z" transform="translate(-461.836 -141.35)" fill="#42e8e0"/>
            <path id="Trazado_14613" data-name="Trazado 14613" d="M467.64,143.875l1.911,1.092.243-1.35-1.911-1.107Z" transform="translate(-462.894 -141.964)" fill="#42e8e0"/>
            <path id="Trazado_14614" data-name="Trazado 14614" d="M469.97,147.45l2.123,1.228.227-1.35L470.2,146.1Z" transform="translate(-461.691 -140.111)" fill="#42e8e0"/>
            <path id="Trazado_14615" data-name="Trazado 14615" d="M474.92,145.825l2.123,1.228.243-1.365-2.138-1.228Z" transform="translate(-459.135 -140.957)" fill="#42e8e0"/>
            <path id="Trazado_14616" data-name="Trazado 14616" d="M476.92,146.97l5.11,2.957.227-1.365-5.11-2.942Z" transform="translate(-458.103 -140.358)" fill="#42e8e0"/>
            <path id="Trazado_14617" data-name="Trazado 14617" d="M480.89,149.26l3.033,1.759.227-1.365-3.033-1.744Z" transform="translate(-456.053 -139.176)" fill="#42e8e0"/>
            <path id="Trazado_14618" data-name="Trazado 14618" d="M467.32,145.935l2.82,1.622.227-1.365-2.805-1.622Z" transform="translate(-463.059 -140.9)" fill="#42e8e0"/>
            <g id="Grupo_27239" data-name="Grupo 27239" transform="translate(0 4.534)">
              <path id="Trazado_14619" data-name="Trazado 14619" d="M467.15,148.02l2.123,1.243.227-1.365-2.123-1.228Z" transform="translate(-463.147 -144.35)" fill="#42e8e0"/>
              <path id="Trazado_14620" data-name="Trazado 14620" d="M464.51,146.5l2.805,1.622.227-1.35-2.805-1.638Z" transform="translate(-464.51 -145.14)" fill="#42e8e0"/>
            </g>
            <path id="Trazado_14621" data-name="Trazado 14621" d="M472.88,144.639l1.911,1.107.243-1.365-1.911-1.092Z" transform="translate(-460.188 -141.561)" fill="#42e8e0"/>
            <path id="Trazado_14622" data-name="Trazado 14622" d="M470.92,143.5l1.911,1.107.227-1.35-1.911-1.107Z" transform="translate(-461.2 -142.15)" fill="#42e8e0"/>
          </g>
          <path id="Trazado_14623" data-name="Trazado 14623" d="M480.6,133.245l6.52,3.76.227-1.35-6.52-3.776Z" transform="translate(-453.534 -117.748)" fill="#42e8e0"/>
          <path id="Trazado_14624" data-name="Trazado 14624" d="M475.79,130.45l6.1,3.533.227-1.35-6.1-3.533Z" transform="translate(-456.017 -119.183)" fill="#42e8e0"/>
          <path id="Trazado_14625" data-name="Trazado 14625" d="M473.74,129.27l1.911,1.107.227-1.365-1.911-1.092Z" transform="translate(-457.076 -119.793)" fill="#42e8e0"/>
          <path id="Trazado_14626" data-name="Trazado 14626" d="M471.77,128.13l1.911,1.107.227-1.35L472,126.78Z" transform="translate(-458.093 -120.381)" fill="#42e8e0"/>
          <path id="Trazado_14627" data-name="Trazado 14627" d="M472.1,128.32l-4.124-2.381.227-1.35,4.124,2.381Z" transform="translate(-460.05 -121.512)" fill="#42e8e0"/>
        </g>
      </g>
      <path id="Trazado_14628" data-name="Trazado 14628" d="M224.528,338.991a7.582,7.582,0,0,1-3.776-1.016L108.409,273.107a2.411,2.411,0,0,1,0-4.17L207.136,212l.5.864-98.742,57.013a1.395,1.395,0,0,0,0,2.441l112.359,64.868a6.6,6.6,0,0,0,6.566,0l58.227-33.617.5.864L228.3,338.051A7.582,7.582,0,0,1,224.528,338.991Z" transform="translate(20.445 68.731)" fill="#8686f2"/>
      <path id="Trazado_14629" data-name="Trazado 14629" d="M150.063,272.779a3.867,3.867,0,1,0-1.38,5.291A3.882,3.882,0,0,0,150.063,272.779Z" transform="translate(38.853 99.128)" fill="url(#radial-gradient)"/>
      <path id="Trazado_14630" data-name="Trazado 14630" d="M216.622,279.281a3.867,3.867,0,1,0-1.38,5.292,3.867,3.867,0,0,0,1.38-5.292Z" transform="translate(73.219 102.482)" fill="url(#radial-gradient-2)"/>
      <path id="Trazado_14631" data-name="Trazado 14631" d="M330.814,278.533a3.867,3.867,0,1,0-1.4,5.292,3.867,3.867,0,0,0,1.4-5.292Z" transform="translate(132.175 102.092)" fill="url(#radial-gradient-3)"/>
      <circle id="Elipse_1441" data-name="Elipse 1441" cx="3.867" cy="3.867" r="3.867" transform="translate(474.392 389.617)" fill="url(#radial-gradient-4)"/>
      <path id="Trazado_14632" data-name="Trazado 14632" d="M409.992,266.341a3.867,3.867,0,1,0-1.38,5.292,3.867,3.867,0,0,0,1.38-5.292Z" transform="translate(173.059 95.801)" fill="url(#radial-gradient-5)"/>
      <path id="Trazado_14633" data-name="Trazado 14633" d="M425.811,243.142a3.836,3.836,0,1,0-1.365,5.262,3.836,3.836,0,0,0,1.365-5.262Z" transform="translate(181.258 83.836)" fill="url(#radial-gradient-6)"/>
      <path id="Trazado_14634" data-name="Trazado 14634" d="M411.356,234.657a3.867,3.867,0,1,0-1.4,5.277A3.867,3.867,0,0,0,411.356,234.657Z" transform="translate(173.757 79.433)" fill="url(#radial-gradient-7)"/>
      <path id="Trazado_14635" data-name="Trazado 14635" d="M396.914,226.733a3.867,3.867,0,1,0-1.4,5.292,3.867,3.867,0,0,0,1.4-5.292Z" transform="translate(166.304 75.347)" fill="url(#radial-gradient-8)"/>
      <circle id="Elipse_1442" data-name="Elipse 1442" cx="3.867" cy="3.867" r="3.867" transform="translate(164.017 359.7)" fill="url(#radial-gradient-9)"/>
      <path id="Trazado_14636" data-name="Trazado 14636" d="M126.734,259.2a3.867,3.867,0,1,0-1.4,5.292A3.867,3.867,0,0,0,126.734,259.2Z" transform="translate(26.806 92.112)" fill="url(#radial-gradient-10)"/>
      <path id="Trazado_14637" data-name="Trazado 14637" d="M155.062,224.2a3.867,3.867,0,1,0-1.38,5.292A3.867,3.867,0,0,0,155.062,224.2Z" transform="translate(41.434 74.043)" fill="url(#radial-gradient-11)"/>
      <path id="Trazado_14638" data-name="Trazado 14638" d="M167.534,217.653a3.851,3.851,0,1,0,.406,2.937A3.867,3.867,0,0,0,167.534,217.653Z" transform="translate(47.871 70.659)" fill="url(#radial-gradient-12)"/>
    </g>
  </g>
</svg>
