<svg xmlns="http://www.w3.org/2000/svg" width="134.384" height="135.802" viewBox="0 0 134.384 135.802">
  <g id="Grupo_25229" data-name="Grupo 25229" transform="translate(-179 -1383.083)">
    <g id="Grupo_25228" data-name="Grupo 25228" transform="translate(179 1394.226)">
      <g id="compliance" transform="translate(0 0)">
        <path id="Trazado_9927" data-name="Trazado 9927" d="M41.513,12.76a.229.229,0,0,1,.229-.229H75.737V7.843a.343.343,0,0,0-.343-.343H36.825a.343.343,0,0,0-.343.343V59.085a.343.343,0,0,0,.343.343h4.688Z" transform="translate(-35.624 -6.642)" fill="#4dd0e1"/>
        <path id="Trazado_9928" data-name="Trazado 9928" d="M41.513,12.76a.229.229,0,0,1,.229-.229h.518V7.843A.343.343,0,0,1,42.6,7.5H36.825a.343.343,0,0,0-.343.343V59.085a.343.343,0,0,0,.343.343h4.688Z" transform="translate(-35.624 -6.642)" fill="#039be5"/>
        <path id="Trazado_9929" data-name="Trazado 9929" d="M109.791,96.415a.458.458,0,0,1-.458-.457V84.471a.458.458,0,0,1,.458-.458h8.935V80.321h-8.935a.458.458,0,0,1-.458-.458V68.377a.458.458,0,0,1,.458-.458h8.935V50.832a.343.343,0,0,0-.343-.343H79.814a.343.343,0,0,0-.343.343v51.242a.343.343,0,0,0,.343.343h38.568a.343.343,0,0,0,.343-.343V96.415Z" transform="translate(-73.696 -44.714)" fill="#fff3de"/>
        <g id="Grupo_25220" data-name="Grupo 25220" transform="translate(5.775 5.775)">
          <path id="Trazado_9930" data-name="Trazado 9930" d="M84.312,102.074V50.832a.343.343,0,0,1,.343-.343H79.814a.343.343,0,0,0-.343.343v51.242a.343.343,0,0,0,.343.343h4.841A.343.343,0,0,1,84.312,102.074Z" transform="translate(-79.471 -50.489)" fill="#ffe5c2"/>
        </g>
        <g id="Grupo_25223" data-name="Grupo 25223" transform="translate(35.522 39.185)">
          <g id="Grupo_25221" data-name="Grupo 25221" transform="translate(0)">
            <path id="Trazado_9931" data-name="Trazado 9931" d="M351.617,355.227H340.13a.572.572,0,0,1-.572-.572V343.168a.572.572,0,0,1,.572-.572h11.487a.572.572,0,0,1,.572.572v11.487A.572.572,0,0,1,351.617,355.227Z" transform="translate(-339.558 -342.596)" fill="#ffca28"/>
          </g>
          <g id="Grupo_25222" data-name="Grupo 25222">
            <path id="Trazado_9932" data-name="Trazado 9932" d="M343.383,354.655V343.168a.572.572,0,0,1,.572-.572H340.13a.572.572,0,0,0-.572.572v11.487a.572.572,0,0,0,.572.572h3.825A.572.572,0,0,1,343.383,354.655Z" transform="translate(-339.558 -342.596)" fill="#e3c136"/>
          </g>
        </g>
        <g id="Grupo_25227" data-name="Grupo 25227" transform="translate(0 0)">
          <g id="Grupo_25224" data-name="Grupo 25224" transform="translate(35.522 23.091)">
            <path id="Trazado_9933" data-name="Trazado 9933" d="M351.617,214.517H340.13a.572.572,0,0,1-.572-.572V202.458a.572.572,0,0,1,.572-.572h11.487a.572.572,0,0,1,.572.572v11.487A.572.572,0,0,1,351.617,214.517Z" transform="translate(-339.558 -201.886)" fill="#ffca28"/>
          </g>
          <g id="Grupo_25225" data-name="Grupo 25225" transform="translate(35.522 23.091)">
            <path id="Trazado_9934" data-name="Trazado 9934" d="M343.383,213.945V202.458a.572.572,0,0,1,.572-.572H340.13a.572.572,0,0,0-.572.572v11.487a.572.572,0,0,0,.572.572h3.825A.572.572,0,0,1,343.383,213.945Z" transform="translate(-339.558 -201.886)" fill="#efbe2b"/>
          </g>
          <g id="Grupo_25226" data-name="Grupo 25226">
            <path id="Trazado_9935" data-name="Trazado 9935" d="M146.752,167.01H169.1a.858.858,0,1,0,0-1.716H146.752a.858.858,0,0,0,0,1.716Z" transform="translate(-132.522 -146.388)"/>
            <path id="Trazado_9936" data-name="Trazado 9936" d="M146.753,211.135h7.961a.858.858,0,1,0,0-1.716h-7.961a.858.858,0,0,0,0,1.716Z" transform="translate(-132.523 -185.467)"/>
            <path id="Trazado_9937" data-name="Trazado 9937" d="M146.752,343.512h12.765a.858.858,0,1,0,0-1.716H146.752a.858.858,0,1,0,0,1.716Z" transform="translate(-132.522 -302.703)"/>
            <path id="Trazado_9938" data-name="Trazado 9938" d="M184.383,110.013h13.736a.858.858,0,0,0,0-1.716H184.383a.858.858,0,1,0,0,1.716Z" transform="translate(-165.849 -95.91)"/>
            <path id="Trazado_9939" data-name="Trazado 9939" d="M79.447,38.51l-1.456,1.456v-.209a1.431,1.431,0,0,0-1.43-1.43H74.868V36.579h1.694a1.431,1.431,0,0,0,1.43-1.43V33.741a.858.858,0,0,0-1.716,0v1.123H65.361V23.949H76.276v1.639L71.566,30.3l-3.085-3.085a.858.858,0,0,0-1.213,1.213l3.692,3.692a.858.858,0,0,0,1.213,0l4.1-4.1v1.724a.858.858,0,0,0,1.716,0V26.3l2.669-2.669a.858.858,0,0,0-1.213-1.213l-1.456,1.456v-.209a1.431,1.431,0,0,0-1.43-1.43H74.868V6.118a1.2,1.2,0,0,0-1.2-1.2H69.951V1.2A1.2,1.2,0,0,0,68.75,0H30.182a1.2,1.2,0,0,0-1.2,1.2V52.443a1.2,1.2,0,0,0,1.2,1.2H33.9v3.716a1.2,1.2,0,0,0,1.2,1.2H73.667a1.2,1.2,0,0,0,1.2-1.2V52.673h1.694a1.431,1.431,0,0,0,1.43-1.43V42.392l2.669-2.669a.858.858,0,0,0-1.213-1.213Zm-3.171,3.171-4.711,4.71-3.085-3.085a.858.858,0,0,0-1.213,1.213l3.692,3.692a.858.858,0,0,0,1.213,0l4.1-4.1v6.85H72.789a.858.858,0,1,0,0,1.716h.363v4.172H35.614V6.633h7.9a.858.858,0,0,0,0-1.716H35.1a1.2,1.2,0,0,0-1.2,1.2v45.81H30.7V1.716H68.236v3.2H47.512a.858.858,0,1,0,0,1.716H73.153v15.6H65.075a1.431,1.431,0,0,0-1.43,1.43v.29H54.375a.858.858,0,0,0,0,1.716h9.271V29H43.211a.858.858,0,0,0,0,1.716H63.646v3.331H43.211a.858.858,0,0,0,0,1.716H63.785a1.43,1.43,0,0,0,1.29.817h8.077v1.748H65.075a1.43,1.43,0,0,0-1.265.766H59.178a.858.858,0,1,0,0,1.716h4.467V44.14H43.211a.858.858,0,0,0,0,1.716H63.646v3.331H43.211a.858.858,0,1,0,0,1.716H63.646v.341a1.431,1.431,0,0,0,1.43,1.43h3.711a.858.858,0,1,0,0-1.716H65.361V40.042H76.276v1.639Z" transform="translate(-28.981 0)"/>
          </g>
        </g>
      </g>
      <g id="compliance-2" data-name="compliance" transform="translate(62.03 0)">
        <path id="Trazado_9927-2" data-name="Trazado 9927" d="M41.513,12.76a.229.229,0,0,1,.229-.229H75.737V7.843a.343.343,0,0,0-.343-.343H36.825a.343.343,0,0,0-.343.343V59.085a.343.343,0,0,0,.343.343h4.688Z" transform="translate(-35.624 -6.642)" fill="#4dd0e1"/>
        <path id="Trazado_9928-2" data-name="Trazado 9928" d="M41.513,12.76a.229.229,0,0,1,.229-.229h.518V7.843A.343.343,0,0,1,42.6,7.5H36.825a.343.343,0,0,0-.343.343V59.085a.343.343,0,0,0,.343.343h4.688Z" transform="translate(-35.624 -6.642)" fill="#039be5"/>
        <path id="Trazado_9929-2" data-name="Trazado 9929" d="M109.791,96.415a.458.458,0,0,1-.458-.457V84.471a.458.458,0,0,1,.458-.458h8.935V80.321h-8.935a.458.458,0,0,1-.458-.458V68.377a.458.458,0,0,1,.458-.458h8.935V50.832a.343.343,0,0,0-.343-.343H79.814a.343.343,0,0,0-.343.343v51.242a.343.343,0,0,0,.343.343h38.568a.343.343,0,0,0,.343-.343V96.415Z" transform="translate(-73.696 -44.714)" fill="#fff3de"/>
        <g id="Grupo_25220-2" data-name="Grupo 25220" transform="translate(5.775 5.775)">
          <path id="Trazado_9930-2" data-name="Trazado 9930" d="M84.312,102.074V50.832a.343.343,0,0,1,.343-.343H79.814a.343.343,0,0,0-.343.343v51.242a.343.343,0,0,0,.343.343h4.841A.343.343,0,0,1,84.312,102.074Z" transform="translate(-79.471 -50.489)" fill="#ffe5c2"/>
        </g>
        <g id="Grupo_25223-2" data-name="Grupo 25223" transform="translate(35.522 39.185)">
          <g id="Grupo_25221-2" data-name="Grupo 25221" transform="translate(0)">
            <path id="Trazado_9931-2" data-name="Trazado 9931" d="M351.617,355.227H340.13a.572.572,0,0,1-.572-.572V343.168a.572.572,0,0,1,.572-.572h11.487a.572.572,0,0,1,.572.572v11.487A.572.572,0,0,1,351.617,355.227Z" transform="translate(-339.558 -342.596)" fill="#ffca28"/>
          </g>
          <g id="Grupo_25222-2" data-name="Grupo 25222">
            <path id="Trazado_9932-2" data-name="Trazado 9932" d="M343.383,354.655V343.168a.572.572,0,0,1,.572-.572H340.13a.572.572,0,0,0-.572.572v11.487a.572.572,0,0,0,.572.572h3.825A.572.572,0,0,1,343.383,354.655Z" transform="translate(-339.558 -342.596)" fill="#e3c136"/>
          </g>
        </g>
        <g id="Grupo_25227-2" data-name="Grupo 25227" transform="translate(0 0)">
          <g id="Grupo_25224-2" data-name="Grupo 25224" transform="translate(35.522 23.091)">
            <path id="Trazado_9933-2" data-name="Trazado 9933" d="M351.617,214.517H340.13a.572.572,0,0,1-.572-.572V202.458a.572.572,0,0,1,.572-.572h11.487a.572.572,0,0,1,.572.572v11.487A.572.572,0,0,1,351.617,214.517Z" transform="translate(-339.558 -201.886)" fill="#ffca28"/>
          </g>
          <g id="Grupo_25225-2" data-name="Grupo 25225" transform="translate(35.522 23.091)">
            <path id="Trazado_9934-2" data-name="Trazado 9934" d="M343.383,213.945V202.458a.572.572,0,0,1,.572-.572H340.13a.572.572,0,0,0-.572.572v11.487a.572.572,0,0,0,.572.572h3.825A.572.572,0,0,1,343.383,213.945Z" transform="translate(-339.558 -201.886)" fill="#efbe2b"/>
          </g>
          <g id="Grupo_25226-2" data-name="Grupo 25226" transform="translate(0)">
            <path id="Trazado_9935-2" data-name="Trazado 9935" d="M146.752,167.01H169.1a.858.858,0,1,0,0-1.716H146.752a.858.858,0,0,0,0,1.716Z" transform="translate(-132.522 -146.388)"/>
            <path id="Trazado_9936-2" data-name="Trazado 9936" d="M146.753,211.135h7.961a.858.858,0,1,0,0-1.716h-7.961a.858.858,0,0,0,0,1.716Z" transform="translate(-132.523 -185.467)"/>
            <path id="Trazado_9937-2" data-name="Trazado 9937" d="M146.752,343.512h12.765a.858.858,0,1,0,0-1.716H146.752a.858.858,0,1,0,0,1.716Z" transform="translate(-132.522 -302.703)"/>
            <path id="Trazado_9938-2" data-name="Trazado 9938" d="M184.383,110.013h13.736a.858.858,0,0,0,0-1.716H184.383a.858.858,0,1,0,0,1.716Z" transform="translate(-165.849 -95.91)"/>
            <path id="Trazado_9939-2" data-name="Trazado 9939" d="M79.447,38.51l-1.456,1.456v-.209a1.431,1.431,0,0,0-1.43-1.43H74.868V36.579h1.694a1.431,1.431,0,0,0,1.43-1.43V33.741a.858.858,0,0,0-1.716,0v1.123H65.361V23.949H76.276v1.639L71.566,30.3l-3.085-3.085a.858.858,0,0,0-1.213,1.213l3.692,3.692a.858.858,0,0,0,1.213,0l4.1-4.1v1.724a.858.858,0,0,0,1.716,0V26.3l2.669-2.669a.858.858,0,0,0-1.213-1.213l-1.456,1.456v-.209a1.431,1.431,0,0,0-1.43-1.43H74.868V6.118a1.2,1.2,0,0,0-1.2-1.2H69.951V1.2A1.2,1.2,0,0,0,68.75,0H30.182a1.2,1.2,0,0,0-1.2,1.2V52.443a1.2,1.2,0,0,0,1.2,1.2H33.9v3.716a1.2,1.2,0,0,0,1.2,1.2H73.667a1.2,1.2,0,0,0,1.2-1.2V52.673h1.694a1.431,1.431,0,0,0,1.43-1.43V42.392l2.669-2.669a.858.858,0,0,0-1.213-1.213Zm-3.171,3.171-4.711,4.71-3.085-3.085a.858.858,0,0,0-1.213,1.213l3.692,3.692a.858.858,0,0,0,1.213,0l4.1-4.1v6.85H72.789a.858.858,0,1,0,0,1.716h.363v4.172H35.614V6.633h7.9a.858.858,0,0,0,0-1.716H35.1a1.2,1.2,0,0,0-1.2,1.2v45.81H30.7V1.716H68.236v3.2H47.512a.858.858,0,1,0,0,1.716H73.153v15.6H65.075a1.431,1.431,0,0,0-1.43,1.43v.29H54.375a.858.858,0,0,0,0,1.716h9.271V29H43.211a.858.858,0,0,0,0,1.716H63.646v3.331H43.211a.858.858,0,0,0,0,1.716H63.785a1.43,1.43,0,0,0,1.29.817h8.077v1.748H65.075a1.43,1.43,0,0,0-1.265.766H59.178a.858.858,0,1,0,0,1.716h4.467V44.14H43.211a.858.858,0,0,0,0,1.716H63.646v3.331H43.211a.858.858,0,1,0,0,1.716H63.646v.341a1.431,1.431,0,0,0,1.43,1.43h3.711a.858.858,0,1,0,0-1.716H65.361V40.042H76.276v1.639Z" transform="translate(-28.981 0)"/>
          </g>
        </g>
      </g>
      <g id="compliance-3" data-name="compliance" transform="translate(0 66.098)">
        <path id="Trazado_9927-3" data-name="Trazado 9927" d="M41.513,12.76a.229.229,0,0,1,.229-.229H75.737V7.843a.343.343,0,0,0-.343-.343H36.825a.343.343,0,0,0-.343.343V59.085a.343.343,0,0,0,.343.343h4.688Z" transform="translate(-35.624 -6.642)" fill="#4dd0e1"/>
        <path id="Trazado_9928-3" data-name="Trazado 9928" d="M41.513,12.76a.229.229,0,0,1,.229-.229h.518V7.843A.343.343,0,0,1,42.6,7.5H36.825a.343.343,0,0,0-.343.343V59.085a.343.343,0,0,0,.343.343h4.688Z" transform="translate(-35.624 -6.642)" fill="#039be5"/>
        <path id="Trazado_9929-3" data-name="Trazado 9929" d="M109.791,96.415a.458.458,0,0,1-.458-.457V84.471a.458.458,0,0,1,.458-.458h8.935V80.321h-8.935a.458.458,0,0,1-.458-.458V68.377a.458.458,0,0,1,.458-.458h8.935V50.832a.343.343,0,0,0-.343-.343H79.814a.343.343,0,0,0-.343.343v51.242a.343.343,0,0,0,.343.343h38.568a.343.343,0,0,0,.343-.343V96.415Z" transform="translate(-73.696 -44.714)" fill="#fff3de"/>
        <g id="Grupo_25220-3" data-name="Grupo 25220" transform="translate(5.775 5.775)">
          <path id="Trazado_9930-3" data-name="Trazado 9930" d="M84.312,102.074V50.832a.343.343,0,0,1,.343-.343H79.814a.343.343,0,0,0-.343.343v51.242a.343.343,0,0,0,.343.343h4.841A.343.343,0,0,1,84.312,102.074Z" transform="translate(-79.471 -50.489)" fill="#ffe5c2"/>
        </g>
        <g id="Grupo_25223-3" data-name="Grupo 25223" transform="translate(35.522 39.185)">
          <g id="Grupo_25221-3" data-name="Grupo 25221" transform="translate(0)">
            <path id="Trazado_9931-3" data-name="Trazado 9931" d="M351.617,355.227H340.13a.572.572,0,0,1-.572-.572V343.168a.572.572,0,0,1,.572-.572h11.487a.572.572,0,0,1,.572.572v11.487A.572.572,0,0,1,351.617,355.227Z" transform="translate(-339.558 -342.596)" fill="#ffca28"/>
          </g>
          <g id="Grupo_25222-3" data-name="Grupo 25222">
            <path id="Trazado_9932-3" data-name="Trazado 9932" d="M343.383,354.655V343.168a.572.572,0,0,1,.572-.572H340.13a.572.572,0,0,0-.572.572v11.487a.572.572,0,0,0,.572.572h3.825A.572.572,0,0,1,343.383,354.655Z" transform="translate(-339.558 -342.596)" fill="#e3c136"/>
          </g>
        </g>
        <g id="Grupo_25227-3" data-name="Grupo 25227" transform="translate(0 0)">
          <g id="Grupo_25224-3" data-name="Grupo 25224" transform="translate(35.522 23.091)">
            <path id="Trazado_9933-3" data-name="Trazado 9933" d="M351.617,214.517H340.13a.572.572,0,0,1-.572-.572V202.458a.572.572,0,0,1,.572-.572h11.487a.572.572,0,0,1,.572.572v11.487A.572.572,0,0,1,351.617,214.517Z" transform="translate(-339.558 -201.886)" fill="#ffca28"/>
          </g>
          <g id="Grupo_25225-3" data-name="Grupo 25225" transform="translate(35.522 23.091)">
            <path id="Trazado_9934-3" data-name="Trazado 9934" d="M343.383,213.945V202.458a.572.572,0,0,1,.572-.572H340.13a.572.572,0,0,0-.572.572v11.487a.572.572,0,0,0,.572.572h3.825A.572.572,0,0,1,343.383,213.945Z" transform="translate(-339.558 -201.886)" fill="#efbe2b"/>
          </g>
          <g id="Grupo_25226-3" data-name="Grupo 25226">
            <path id="Trazado_9935-3" data-name="Trazado 9935" d="M146.752,167.01H169.1a.858.858,0,1,0,0-1.716H146.752a.858.858,0,0,0,0,1.716Z" transform="translate(-132.522 -146.388)"/>
            <path id="Trazado_9936-3" data-name="Trazado 9936" d="M146.753,211.135h7.961a.858.858,0,1,0,0-1.716h-7.961a.858.858,0,0,0,0,1.716Z" transform="translate(-132.523 -185.467)"/>
            <path id="Trazado_9937-3" data-name="Trazado 9937" d="M146.752,343.512h12.765a.858.858,0,1,0,0-1.716H146.752a.858.858,0,1,0,0,1.716Z" transform="translate(-132.522 -302.703)"/>
            <path id="Trazado_9938-3" data-name="Trazado 9938" d="M184.383,110.013h13.736a.858.858,0,0,0,0-1.716H184.383a.858.858,0,1,0,0,1.716Z" transform="translate(-165.849 -95.91)"/>
            <path id="Trazado_9939-3" data-name="Trazado 9939" d="M79.447,38.51l-1.456,1.456v-.209a1.431,1.431,0,0,0-1.43-1.43H74.868V36.579h1.694a1.431,1.431,0,0,0,1.43-1.43V33.741a.858.858,0,0,0-1.716,0v1.123H65.361V23.949H76.276v1.639L71.566,30.3l-3.085-3.085a.858.858,0,0,0-1.213,1.213l3.692,3.692a.858.858,0,0,0,1.213,0l4.1-4.1v1.724a.858.858,0,0,0,1.716,0V26.3l2.669-2.669a.858.858,0,0,0-1.213-1.213l-1.456,1.456v-.209a1.431,1.431,0,0,0-1.43-1.43H74.868V6.118a1.2,1.2,0,0,0-1.2-1.2H69.951V1.2A1.2,1.2,0,0,0,68.75,0H30.182a1.2,1.2,0,0,0-1.2,1.2V52.443a1.2,1.2,0,0,0,1.2,1.2H33.9v3.716a1.2,1.2,0,0,0,1.2,1.2H73.667a1.2,1.2,0,0,0,1.2-1.2V52.673h1.694a1.431,1.431,0,0,0,1.43-1.43V42.392l2.669-2.669a.858.858,0,0,0-1.213-1.213Zm-3.171,3.171-4.711,4.71-3.085-3.085a.858.858,0,0,0-1.213,1.213l3.692,3.692a.858.858,0,0,0,1.213,0l4.1-4.1v6.85H72.789a.858.858,0,1,0,0,1.716h.363v4.172H35.614V6.633h7.9a.858.858,0,0,0,0-1.716H35.1a1.2,1.2,0,0,0-1.2,1.2v45.81H30.7V1.716H68.236v3.2H47.512a.858.858,0,1,0,0,1.716H73.153v15.6H65.075a1.431,1.431,0,0,0-1.43,1.43v.29H54.375a.858.858,0,0,0,0,1.716h9.271V29H43.211a.858.858,0,0,0,0,1.716H63.646v3.331H43.211a.858.858,0,0,0,0,1.716H63.785a1.43,1.43,0,0,0,1.29.817h8.077v1.748H65.075a1.43,1.43,0,0,0-1.265.766H59.178a.858.858,0,1,0,0,1.716h4.467V44.14H43.211a.858.858,0,0,0,0,1.716H63.646v3.331H43.211a.858.858,0,1,0,0,1.716H63.646v.341a1.431,1.431,0,0,0,1.43,1.43h3.711a.858.858,0,1,0,0-1.716H65.361V40.042H76.276v1.639Z" transform="translate(-28.981 0)"/>
          </g>
        </g>
      </g>
      <g id="compliance-4" data-name="compliance" transform="translate(62.03 66.098)">
        <path id="Trazado_9927-4" data-name="Trazado 9927" d="M41.513,12.76a.229.229,0,0,1,.229-.229H75.737V7.843a.343.343,0,0,0-.343-.343H36.825a.343.343,0,0,0-.343.343V59.085a.343.343,0,0,0,.343.343h4.688Z" transform="translate(-35.624 -6.642)" fill="#4dd0e1"/>
        <path id="Trazado_9928-4" data-name="Trazado 9928" d="M41.513,12.76a.229.229,0,0,1,.229-.229h.518V7.843A.343.343,0,0,1,42.6,7.5H36.825a.343.343,0,0,0-.343.343V59.085a.343.343,0,0,0,.343.343h4.688Z" transform="translate(-35.624 -6.642)" fill="#039be5"/>
        <path id="Trazado_9929-4" data-name="Trazado 9929" d="M109.791,96.415a.458.458,0,0,1-.458-.457V84.471a.458.458,0,0,1,.458-.458h8.935V80.321h-8.935a.458.458,0,0,1-.458-.458V68.377a.458.458,0,0,1,.458-.458h8.935V50.832a.343.343,0,0,0-.343-.343H79.814a.343.343,0,0,0-.343.343v51.242a.343.343,0,0,0,.343.343h38.568a.343.343,0,0,0,.343-.343V96.415Z" transform="translate(-73.696 -44.714)" fill="#fff3de"/>
        <g id="Grupo_25220-4" data-name="Grupo 25220" transform="translate(5.775 5.775)">
          <path id="Trazado_9930-4" data-name="Trazado 9930" d="M84.312,102.074V50.832a.343.343,0,0,1,.343-.343H79.814a.343.343,0,0,0-.343.343v51.242a.343.343,0,0,0,.343.343h4.841A.343.343,0,0,1,84.312,102.074Z" transform="translate(-79.471 -50.489)" fill="#ffe5c2"/>
        </g>
        <g id="Grupo_25223-4" data-name="Grupo 25223" transform="translate(35.522 39.185)">
          <g id="Grupo_25221-4" data-name="Grupo 25221" transform="translate(0)">
            <path id="Trazado_9931-4" data-name="Trazado 9931" d="M351.617,355.227H340.13a.572.572,0,0,1-.572-.572V343.168a.572.572,0,0,1,.572-.572h11.487a.572.572,0,0,1,.572.572v11.487A.572.572,0,0,1,351.617,355.227Z" transform="translate(-339.558 -342.596)" fill="#e94c73"/>
          </g>
          <g id="Grupo_25222-4" data-name="Grupo 25222">
            <path id="Trazado_9932-4" data-name="Trazado 9932" d="M343.383,354.655V343.168a.572.572,0,0,1,.572-.572H340.13a.572.572,0,0,0-.572.572v11.487a.572.572,0,0,0,.572.572h3.825A.572.572,0,0,1,343.383,354.655Z" transform="translate(-339.558 -342.596)" fill="#e9275a"/>
          </g>
        </g>
        <g id="Grupo_25227-4" data-name="Grupo 25227" transform="translate(0 0)">
          <g id="Grupo_25224-4" data-name="Grupo 25224" transform="translate(35.522 23.091)">
            <path id="Trazado_9933-4" data-name="Trazado 9933" d="M351.617,214.517H340.13a.572.572,0,0,1-.572-.572V202.458a.572.572,0,0,1,.572-.572h11.487a.572.572,0,0,1,.572.572v11.487A.572.572,0,0,1,351.617,214.517Z" transform="translate(-339.558 -201.886)" fill="#f5426b"/>
          </g>
          <g id="Grupo_25225-4" data-name="Grupo 25225" transform="translate(35.522 23.091)">
            <path id="Trazado_9934-4" data-name="Trazado 9934" d="M343.383,213.945V202.458a.572.572,0,0,1,.572-.572H340.13a.572.572,0,0,0-.572.572v11.487a.572.572,0,0,0,.572.572h3.825A.572.572,0,0,1,343.383,213.945Z" transform="translate(-339.558 -201.886)" fill="#f51b51"/>
          </g>
          <g id="Grupo_25226-4" data-name="Grupo 25226" transform="translate(0)">
            <path id="Trazado_9935-4" data-name="Trazado 9935" d="M146.752,167.01H169.1a.858.858,0,1,0,0-1.716H146.752a.858.858,0,0,0,0,1.716Z" transform="translate(-132.522 -146.388)"/>
            <path id="Trazado_9936-4" data-name="Trazado 9936" d="M146.753,211.135h7.961a.858.858,0,1,0,0-1.716h-7.961a.858.858,0,0,0,0,1.716Z" transform="translate(-132.523 -185.467)"/>
            <path id="Trazado_9937-4" data-name="Trazado 9937" d="M146.752,343.512h12.765a.858.858,0,1,0,0-1.716H146.752a.858.858,0,1,0,0,1.716Z" transform="translate(-132.522 -302.703)"/>
            <path id="Trazado_9938-4" data-name="Trazado 9938" d="M184.383,110.013h13.736a.858.858,0,0,0,0-1.716H184.383a.858.858,0,1,0,0,1.716Z" transform="translate(-165.849 -95.91)"/>
            <path id="Trazado_9939-4" data-name="Trazado 9939" d="M79.447,38.51l-1.456,1.456v-.209a1.431,1.431,0,0,0-1.43-1.43H74.868V36.579h1.694a1.431,1.431,0,0,0,1.43-1.43V33.741a.858.858,0,0,0-1.716,0v1.123H65.361V23.949H76.276v1.639L71.566,30.3l-3.085-3.085a.858.858,0,0,0-1.213,1.213l3.692,3.692a.858.858,0,0,0,1.213,0l4.1-4.1v1.724a.858.858,0,0,0,1.716,0V26.3l2.669-2.669a.858.858,0,0,0-1.213-1.213l-1.456,1.456v-.209a1.431,1.431,0,0,0-1.43-1.43H74.868V6.118a1.2,1.2,0,0,0-1.2-1.2H69.951V1.2A1.2,1.2,0,0,0,68.75,0H30.182a1.2,1.2,0,0,0-1.2,1.2V52.443a1.2,1.2,0,0,0,1.2,1.2H33.9v3.716a1.2,1.2,0,0,0,1.2,1.2H73.667a1.2,1.2,0,0,0,1.2-1.2V52.673h1.694a1.431,1.431,0,0,0,1.43-1.43V42.392l2.669-2.669a.858.858,0,0,0-1.213-1.213Zm-3.171,3.171-4.711,4.71-3.085-3.085a.858.858,0,0,0-1.213,1.213l3.692,3.692a.858.858,0,0,0,1.213,0l4.1-4.1v6.85H72.789a.858.858,0,1,0,0,1.716h.363v4.172H35.614V6.633h7.9a.858.858,0,0,0,0-1.716H35.1a1.2,1.2,0,0,0-1.2,1.2v45.81H30.7V1.716H68.236v3.2H47.512a.858.858,0,1,0,0,1.716H73.153v15.6H65.075a1.431,1.431,0,0,0-1.43,1.43v.29H54.375a.858.858,0,0,0,0,1.716h9.271V29H43.211a.858.858,0,0,0,0,1.716H63.646v3.331H43.211a.858.858,0,0,0,0,1.716H63.785a1.43,1.43,0,0,0,1.29.817h8.077v1.748H65.075a1.43,1.43,0,0,0-1.265.766H59.178a.858.858,0,1,0,0,1.716h4.467V44.14H43.211a.858.858,0,0,0,0,1.716H63.646v3.331H43.211a.858.858,0,1,0,0,1.716H63.646v.341a1.431,1.431,0,0,0,1.43,1.43h3.711a.858.858,0,1,0,0-1.716H65.361V40.042H76.276v1.639Z" transform="translate(-28.981 0)"/>
          </g>
        </g>
      </g>
    </g>
    <g id="approved" transform="translate(278.73 1383.083)">
      <g id="Grupo_25216" data-name="Grupo 25216" transform="translate(0.508 0.507)">
        <g id="Grupo_25214" data-name="Grupo 25214">
          <circle id="Elipse_1381" data-name="Elipse 1381" cx="10.717" cy="10.717" r="10.717" transform="translate(0 0)" fill="#95d6a4"/>
          <path id="Trazado_9920" data-name="Trazado 9920" d="M19.546,28.85a10.717,10.717,0,1,1,0-21.271,10.718,10.718,0,0,0,0,21.271Z" transform="translate(-7.502 -7.497)" fill="#78c2a4"/>
          <path id="Trazado_9921" data-name="Trazado 9921" d="M86.892,75.311a1.088,1.088,0,0,0-.491-1.458l-1.685-.835a1.088,1.088,0,0,0-1.458.491l-3.334,6.728L78.3,77.521a1.088,1.088,0,0,0-1.492-.376l-1.614.965a1.088,1.088,0,0,0-.376,1.492l3.2,5.352a1.089,1.089,0,0,0,.976.529l2.268-.089a1.086,1.086,0,0,0,.931-.6Z" transform="translate(-70.117 -68.477)" fill="#f8f6f9"/>
        </g>
        <g id="Grupo_25215" data-name="Grupo 25215" transform="translate(12.204 12.204)">
          <circle id="Elipse_1382" data-name="Elipse 1382" cx="10.717" cy="10.717" r="10.717" transform="translate(0 0)" fill="#e27f83"/>
          <path id="Trazado_9922" data-name="Trazado 9922" d="M199.856,209.16a10.717,10.717,0,1,1,0-21.271,10.718,10.718,0,0,0,0,21.271Z" transform="translate(-187.812 -187.807)" fill="#c8646d"/>
        </g>
        <path id="Trazado_9923" data-name="Trazado 9923" d="M276.392,273.71l2.29-2.29a.989.989,0,0,0,0-1.4l-1.28-1.28a.989.989,0,0,0-1.4,0l-2.289,2.29-2.29-2.29a.989.989,0,0,0-1.4,0l-1.28,1.28a.989.989,0,0,0,0,1.4l2.29,2.29-2.29,2.29a.989.989,0,0,0,0,1.4l1.28,1.281a.989.989,0,0,0,1.4,0l2.29-2.29,2.289,2.29a.989.989,0,0,0,1.4,0l1.28-1.281a.989.989,0,0,0,0-1.4Z" transform="translate(-250.791 -250.788)" fill="#f8f6f9"/>
      </g>
      <g id="Grupo_25217" data-name="Grupo 25217" transform="translate(0 0)">
        <path id="Trazado_9924" data-name="Trazado 9924" d="M79.624,66.413l-1.685-.835A1.6,1.6,0,0,0,75.8,66.3l-.881,1.777a.508.508,0,1,0,.91.451l.88-1.777a.582.582,0,0,1,.779-.262l1.684.834a.581.581,0,0,1,.262.778l-4.7,9.481a.578.578,0,0,1-.5.322l-2.268.089a.581.581,0,0,1-.52-.283l-3.2-5.353a.58.58,0,0,1,.2-.8l1.614-.965a.581.581,0,0,1,.8.2l1.624,2.716a.508.508,0,0,0,.891-.035l1.556-3.14a.508.508,0,0,0-.91-.451L72.88,72.194l-1.146-1.917a1.6,1.6,0,0,0-2.189-.551l-1.614.965a1.595,1.595,0,0,0-.551,2.188l3.2,5.353a1.6,1.6,0,0,0,1.369.777h.063l2.268-.089a1.592,1.592,0,0,0,1.366-.886l4.7-9.48A1.6,1.6,0,0,0,79.624,66.413Z" transform="translate(-62.608 -60.986)"/>
        <path id="Trazado_9925" data-name="Trazado 9925" d="M23.43,12.206c-.346,0-.689.017-1.027.047.031-.34.047-.683.047-1.027A11.225,11.225,0,1,0,11.225,22.451c.343,0,.687-.016,1.027-.047-.031.338-.047.681-.047,1.027a11.225,11.225,0,0,0,19.734,7.32.508.508,0,1,0-.769-.663,10.18,10.18,0,1,1,1.1-1.554.508.508,0,1,0,.879.508A11.228,11.228,0,0,0,23.43,12.206ZM12.4,21.369a10.326,10.326,0,0,1-1.17.067A10.209,10.209,0,1,1,21.434,11.227a10.328,10.328,0,0,1-.067,1.17A11.256,11.256,0,0,0,12.4,21.369Z" transform="translate(0 -0.002)"/>
        <path id="Trazado_9926" data-name="Trazado 9926" d="M272.058,262.68l-1.28-1.28a1.5,1.5,0,0,0-2.117,0l-1.931,1.931L264.8,261.4a1.5,1.5,0,0,0-2.117,0l-1.28,1.28a1.5,1.5,0,0,0,0,2.117l1.931,1.931-1.931,1.931a1.5,1.5,0,0,0,0,2.117l1.28,1.28a1.5,1.5,0,0,0,2.117,0l1.931-1.931,1.931,1.931a1.5,1.5,0,0,0,2.117,0l1.28-1.28a1.5,1.5,0,0,0,0-2.117l-1.931-1.931,1.931-1.931A1.5,1.5,0,0,0,272.058,262.68Zm-.718,1.4-2.29,2.29a.508.508,0,0,0,0,.718l2.29,2.29a.482.482,0,0,1,0,.681l-1.28,1.28a.482.482,0,0,1-.681,0l-2.29-2.29a.507.507,0,0,0-.718,0l-2.29,2.29a.482.482,0,0,1-.681,0l-1.28-1.28a.482.482,0,0,1,0-.681l2.29-2.29a.508.508,0,0,0,0-.718l-2.29-2.29a.482.482,0,0,1,0-.681l1.28-1.28a.482.482,0,0,1,.681,0l2.29,2.29a.508.508,0,0,0,.718,0l2.29-2.29a.482.482,0,0,1,.681,0l1.28,1.28A.482.482,0,0,1,271.341,264.079Z" transform="translate(-243.301 -243.299)"/>
      </g>
    </g>
  </g>
</svg>
