<svg xmlns="http://www.w3.org/2000/svg" width="119.945" height="270.034" viewBox="0 0 119.945 270.034">
  <g id="Grupo_27304" data-name="Grupo 27304" transform="translate(-266.922 -4744.5)">
    <g id="Grupo_25245" data-name="Grupo 25245" transform="translate(87.922 619.5)">
      <g id="acceso_1_" data-name="acceso (1)" transform="translate(179 4125)">
        <path id="Trazado_9962" data-name="Trazado 9962" d="M107.976,117.766h-88A14,14,0,0,0,6,131.809v61.564A14.029,14.029,0,0,0,20.013,207.4l87.124-.05a13.989,13.989,0,0,0,13.979-14.026V131.741A14.017,14.017,0,0,0,107.976,117.766Zm0,0" transform="translate(-3.585 -70.361)" fill="#ffca28"/>
        <path id="Trazado_9963" data-name="Trazado 9963" d="M16.428,206.228A16.454,16.454,0,0,1,0,189.788V128.224a16.42,16.42,0,0,1,16.394-16.458h88c.049,0,.1,0,.148,0a16.445,16.445,0,0,1,15.406,16.386v61.581a16.4,16.4,0,0,1-16.392,16.441ZM16.394,116.6A11.588,11.588,0,0,0,4.83,128.219v61.568a11.618,11.618,0,0,0,11.6,11.612l87.123-.052a11.572,11.572,0,0,0,11.565-11.606V128.156a11.609,11.609,0,0,0-10.8-11.56Zm0,0" transform="translate(0 -66.776)"/>
        <path id="Trazado_9964" data-name="Trazado 9964" d="M145.4,236.8a2.416,2.416,0,0,1-2.415-2.415V202.482a2.415,2.415,0,1,1,4.83,0v31.905A2.415,2.415,0,0,1,145.4,236.8Zm0,0" transform="translate(-85.431 -119.533)" fill="#fff"/>
        <path id="Trazado_9965" data-name="Trazado 9965" d="M128.955,38.869a2.416,2.416,0,0,1-2.415-2.415,31.55,31.55,0,1,0-63.1,0,2.415,2.415,0,0,1-4.83,0,36.38,36.38,0,1,1,72.761,0A2.415,2.415,0,0,1,128.955,38.869Zm0,0" transform="translate(-35.017)"/>
        <path id="Trazado_9966" data-name="Trazado 9966" d="M77.467,400.3l-2.052,3.055L69.5,399.324l.2,6.574H65.77l.148-6.408-5.8,3.889L58.1,400.3l6.56-3.87-6.541-3.907,2-3.093L65.9,393.38l-.129-6.408h3.917l-.148,6.425L75.4,389.49l2.052,3.074-6.615,3.852Zm0,0" transform="translate(-34.714 -231.204)"/>
        <path id="Trazado_9967" data-name="Trazado 9967" d="M144.3,400.3l-2.05,3.055-5.914-4.036.2,6.574h-3.936l.148-6.408-5.8,3.889-2.014-3.074,6.558-3.87-6.54-3.907,2-3.093,5.783,3.945-.129-6.408h3.917l-.148,6.425,5.857-3.907,2.05,3.074-6.615,3.852Zm0,0" transform="translate(-74.646 -231.204)"/>
        <path id="Trazado_9968" data-name="Trazado 9968" d="M211.135,400.3l-2.052,3.055-5.912-4.036.2,6.574h-3.936l.148-6.408-5.8,3.889L191.77,400.3l6.56-3.87-6.541-3.907,2-3.093,5.783,3.945-.129-6.408h3.917l-.148,6.425,5.857-3.907,2.052,3.074-6.615,3.852Zm0,0" transform="translate(-114.576 -231.204)"/>
      </g>
      <g id="estructura-de-la-jerarquia" transform="translate(202.647 4322.384)">
        <g id="Grupo_25243" data-name="Grupo 25243" transform="translate(1.172 1.172)">
          <g id="Grupo_25232" data-name="Grupo 25232" transform="translate(30.466 8.202)">
            <path id="Trazado_9969" data-name="Trazado 9969" d="M28,20.718V9H46.748V20.718A2.35,2.35,0,0,1,44.4,23.061H30.344A2.35,2.35,0,0,1,28,20.718Z" transform="translate(-28 -9)" fill="#e6e9ed"/>
          </g>
          <g id="Grupo_25233" data-name="Grupo 25233" transform="translate(0 51.558)">
            <path id="Trazado_9970" data-name="Trazado 9970" d="M27.779,46V62.4a2.35,2.35,0,0,1-2.344,2.344H4.344A2.35,2.35,0,0,1,2,62.4V46Z" transform="translate(-2 -46)" fill="#e6e9ed"/>
          </g>
          <g id="Grupo_25234" data-name="Grupo 25234" transform="translate(46.871 44.527)">
            <path id="Trazado_9971" data-name="Trazado 9971" d="M42,56.4V40H65.435V56.4a2.35,2.35,0,0,1-2.344,2.344H44.344A2.35,2.35,0,0,1,42,56.4Z" transform="translate(-42 -40)" fill="#e6e9ed"/>
          </g>
          <g id="Grupo_25235" data-name="Grupo 25235" transform="translate(4.687 56.245)">
            <path id="Trazado_9972" data-name="Trazado 9972" d="M6,50h7.031v4.687H6Z" transform="translate(-6 -50)" fill="#fcd770"/>
          </g>
          <g id="Grupo_25236" data-name="Grupo 25236" transform="translate(51.558 49.214)">
            <path id="Trazado_9973" data-name="Trazado 9973" d="M46,44h4.687v4.687H46Z" transform="translate(-46 -44)" fill="#4fc1e9"/>
          </g>
          <g id="Grupo_25237" data-name="Grupo 25237" transform="translate(36.372 31.366)">
            <ellipse id="Elipse_1386" data-name="Elipse 1386" cx="3.337" cy="3.754" rx="3.337" ry="3.754" transform="translate(0 0)" fill="#ff826e"/>
          </g>
          <g id="Grupo_25238" data-name="Grupo 25238" transform="translate(0)">
            <path id="Trazado_9974" data-name="Trazado 9974" d="M27.779,14.89v2.344l-2.812.773a11.055,11.055,0,0,1-.75,1.8l1.441,2.531-3.316,3.316-2.531-1.441a11.055,11.055,0,0,1-1.8.75l-.773,2.812H12.546l-.773-2.812a11.055,11.055,0,0,1-1.8-.75L7.437,25.658,4.121,22.342l1.441-2.531a11.055,11.055,0,0,1-.75-1.8L2,17.233V12.546l2.812-.773a11.055,11.055,0,0,1,.75-1.8L4.121,7.437,7.437,4.121,9.968,5.562a11.055,11.055,0,0,1,1.8-.75L12.546,2h4.687l.773,2.812a11.055,11.055,0,0,1,1.8.75l2.531-1.441,3.316,3.316L24.217,9.968a11.055,11.055,0,0,1,.75,1.8l2.812.773Zm-7.031,0a5.859,5.859,0,1,0-5.859,5.859A5.861,5.861,0,0,0,20.748,14.89Z" transform="translate(-2 -2)" fill="#fcd770"/>
          </g>
          <g id="Grupo_25239" data-name="Grupo 25239" transform="translate(56.245 7.031)">
            <path id="Trazado_9975" data-name="Trazado 9975" d="M60.546,10.344a5.79,5.79,0,0,1,1.172,3.515,5.859,5.859,0,1,1-1.172-3.515Z" transform="translate(-50 -8)" fill="#ffeaa7"/>
          </g>
          <g id="Grupo_25240" data-name="Grupo 25240" transform="translate(30.466 3.515)">
            <path id="Trazado_9976" data-name="Trazado 9976" d="M46.748,7.344V9.687H28V7.344A2.35,2.35,0,0,1,30.344,5H44.4A2.35,2.35,0,0,1,46.748,7.344Z" transform="translate(-28 -5)" fill="#b4dd7f"/>
          </g>
          <g id="Grupo_25241" data-name="Grupo 25241" transform="translate(0 46.871)">
            <path id="Trazado_9977" data-name="Trazado 9977" d="M27.779,44.344v2.344H2V44.344A2.35,2.35,0,0,1,4.344,42H25.435A2.35,2.35,0,0,1,27.779,44.344Z" transform="translate(-2 -42)" fill="#b4dd7f"/>
          </g>
          <g id="Grupo_25242" data-name="Grupo 25242" transform="translate(46.871 39.84)">
            <path id="Trazado_9978" data-name="Trazado 9978" d="M65.435,38.344v2.344H42V38.344A2.35,2.35,0,0,1,44.344,36H63.092A2.35,2.35,0,0,1,65.435,38.344Z" transform="translate(-42 -36)" fill="#b4dd7f"/>
          </g>
        </g>
        <g id="Grupo_25244" data-name="Grupo 25244" transform="translate(0 0)">
          <path id="Trazado_9979" data-name="Trazado 9979" d="M14.031,7a7.031,7.031,0,1,0,7.031,7.031A7.038,7.038,0,0,0,14.031,7Zm0,11.718a4.687,4.687,0,1,1,4.687-4.687A4.692,4.692,0,0,1,14.031,18.718Z" transform="translate(0.031 0.031)"/>
          <path id="Trazado_9980" data-name="Trazado 9980" d="M31,12h2.344v2.344H31Z" transform="translate(4.153 0.89)"/>
          <path id="Trazado_9981" data-name="Trazado 9981" d="M35,12h7.031v2.344H35Z" transform="translate(4.84 0.89)"/>
          <path id="Trazado_9982" data-name="Trazado 9982" d="M31,16H42.718v2.344H31Z" transform="translate(4.153 1.577)"/>
          <path id="Trazado_9983" data-name="Trazado 9983" d="M14.374,49H5v7.031h9.374Zm-2.344,4.687H7.344V51.344h4.687Z" transform="translate(-0.313 7.245)"/>
          <path id="Trazado_9984" data-name="Trazado 9984" d="M15,49h7.031v2.344H15Z" transform="translate(1.405 7.245)"/>
          <path id="Trazado_9985" data-name="Trazado 9985" d="M15,53h7.031v2.344H15Z" transform="translate(1.405 7.932)"/>
          <path id="Trazado_9986" data-name="Trazado 9986" d="M5,57H23.748v2.344H5Z" transform="translate(-0.313 8.619)"/>
          <path id="Trazado_9987" data-name="Trazado 9987" d="M70.135,40.84H51.386a3.52,3.52,0,0,0-3.515,3.515v8.2H43.184V41.846a4.664,4.664,0,0,0,0-9.041v-7.2h5.859a3.52,3.52,0,0,0,3.515-3.515V16.233h4.793A7.027,7.027,0,1,0,70.456,11.71l2.851-2.851L71.65,7.2,68.991,9.861a7.012,7.012,0,0,0-11.64,4.029H52.558V8.031a3.52,3.52,0,0,0-3.515-3.515H34.981a3.52,3.52,0,0,0-3.515,3.515V13.89H29.123V11.824l-3.076-.841c-.1-.268-.212-.537-.335-.8l1.582-2.772L22.714,2.828,19.942,4.41c-.266-.122-.533-.234-.8-.335L18.3,1H11.824l-.841,3.076c-.268.1-.537.212-.8.335L7.407,2.829,2.829,7.408l1.582,2.772c-.122.266-.234.533-.335.8L1,11.824V18.3l3.076.841c.1.268.212.537.335.8L2.829,22.715l4.579,4.579,2.772-1.582c.266.122.533.234.8.335l.84,3.075h2.066V47.871H4.515A3.52,3.52,0,0,0,1,51.386V70.135A3.52,3.52,0,0,0,4.515,73.65H25.607a3.52,3.52,0,0,0,3.515-3.515V51.386a3.52,3.52,0,0,0-3.515-3.515H16.233V29.123H18.3l.841-3.076c.268-.1.537-.212.8-.335l2.772,1.582,4.579-4.579-1.582-2.772c.122-.266.234-.533.335-.8l3.075-.84V16.233h2.344v5.859a3.52,3.52,0,0,0,3.515,3.515H40.84v7.2a4.664,4.664,0,0,0,0,9.041V54.9h7.031v8.2a3.52,3.52,0,0,0,3.515,3.515H70.135A3.52,3.52,0,0,0,73.65,63.1V44.356a3.52,3.52,0,0,0-3.515-3.515ZM64.276,10.374a4.643,4.643,0,0,1,3.047,1.155l-3.047,3.047-1.515-1.515L61.1,14.718l3.172,3.172,4.4-4.4a4.676,4.676,0,1,1-4.4-3.118ZM25.607,71.306H4.515a1.173,1.173,0,0,1-1.172-1.172V54.9H26.779V70.135A1.173,1.173,0,0,1,25.607,71.306Zm1.172-19.92v1.172H3.344V51.386a1.173,1.173,0,0,1,1.172-1.172H25.607A1.173,1.173,0,0,1,26.779,51.386Zm0-34.875-2.57.7-.19.615a9.3,9.3,0,0,1-.67,1.607l-.3.569,1.323,2.319-2.051,2.051L20,23.052l-.569.3a9.358,9.358,0,0,1-1.607.67l-.615.19-.7,2.567h-2.9l-.7-2.57-.615-.19a9.3,9.3,0,0,1-1.607-.67l-.569-.3L7.8,24.372,5.748,22.322,7.071,20l-.3-.569a9.358,9.358,0,0,1-.67-1.607l-.19-.615-2.567-.7v-2.9l2.57-.7.19-.615a9.3,9.3,0,0,1,.67-1.607l.3-.569L5.75,7.8,7.8,5.75,10.12,7.073l.569-.3A9.358,9.358,0,0,1,12.3,6.1l.615-.19.7-2.57h2.9l.7,2.57.615.19a9.3,9.3,0,0,1,1.606.67l.569.3L22.324,5.75,24.375,7.8,23.052,10.12l.3.569a9.358,9.358,0,0,1,.67,1.607l.19.615,2.57.7v2.9Zm8.2-9.652H49.043a1.174,1.174,0,0,1,1.172,1.172V9.2H33.81V8.031A1.174,1.174,0,0,1,34.981,6.859ZM33.81,22.092V11.546h16.4V22.092a1.174,1.174,0,0,1-1.172,1.172H34.981A1.174,1.174,0,0,1,33.81,22.092Zm5.859,15.233a2.344,2.344,0,1,1,2.344,2.344A2.346,2.346,0,0,1,39.669,37.325Zm11.718,5.859H70.135a1.173,1.173,0,0,1,1.172,1.172v1.172H50.214V44.356A1.173,1.173,0,0,1,51.386,43.184ZM70.135,64.276H51.386A1.173,1.173,0,0,1,50.214,63.1V47.871H71.306V63.1A1.173,1.173,0,0,1,70.135,64.276Z" transform="translate(-1 -1)"/>
          <path id="Trazado_9988" data-name="Trazado 9988" d="M52.031,43H45v7.031h7.031Zm-2.344,4.687H47.344V45.344h2.344Z" transform="translate(6.558 6.214)"/>
          <path id="Trazado_9989" data-name="Trazado 9989" d="M53,43h7.031v2.344H53Z" transform="translate(7.932 6.214)"/>
          <path id="Trazado_9990" data-name="Trazado 9990" d="M53,47h7.031v2.344H53Z" transform="translate(7.932 6.902)"/>
          <path id="Trazado_9991" data-name="Trazado 9991" d="M45,51H61.4v2.344H45Z" transform="translate(6.558 7.589)"/>
        </g>
      </g>
    </g>
  </g>
</svg>
