<svg xmlns="http://www.w3.org/2000/svg" width="568.336" height="254.5" viewBox="0 0 568.336 254.5">
  <g id="Grupo_27306" data-name="Grupo 27306" transform="translate(-399 -5280)">
    <g id="Grupo_27305" data-name="Grupo 27305">
      <g id="Grupo_25250" data-name="Grupo 25250" transform="translate(84 448)">
        <g id="Rectángulo_5839" data-name="Rectángulo 5839" transform="translate(315 4832)" fill="#fff" stroke="#039be5" stroke-width="1">
          <rect width="268" height="254" stroke="none"/>
          <rect x="0.5" y="0.5" width="267" height="253" fill="none"/>
        </g>
        <g id="Rectángulo_5840" data-name="Rectángulo 5840" transform="translate(315 4832)" fill="#039be5" stroke="#039be5" stroke-width="1">
          <rect width="268" height="55" stroke="none"/>
          <rect x="0.5" y="0.5" width="267" height="54" fill="none"/>
        </g>
        <g id="Rectángulo_5841" data-name="Rectángulo 5841" transform="translate(315 4887)" fill="#e6f7ff" stroke="#039be5" stroke-width="1">
          <rect width="268" height="39" stroke="none"/>
          <rect x="0.5" y="0.5" width="267" height="38" fill="none"/>
        </g>
        <path id="Trazado_14872" data-name="Trazado 14872" d="M9.026-5.1H4.052V0H.967V-12.8H9.527v2.382H4.052v2.944H9.026ZM15.732,0a3.344,3.344,0,0,1-.281-.853A2.754,2.754,0,0,1,13.166.176a3.374,3.374,0,0,1-2.285-.813,2.588,2.588,0,0,1-.94-2.043,2.66,2.66,0,0,1,1.143-2.338,5.821,5.821,0,0,1,3.322-.791h.914v-.5q0-1.316-1.134-1.316a.927.927,0,0,0-1.055,1.042H10.169a2.655,2.655,0,0,1,1.173-2.239,4.931,4.931,0,0,1,2.993-.86,4.323,4.323,0,0,1,2.874.888A3.086,3.086,0,0,1,18.29-6.363v4.21a4.311,4.311,0,0,0,.4,2V0ZM13.878-1.934a1.652,1.652,0,0,0,.918-.237,1.487,1.487,0,0,0,.523-.536V-4.228h-.861q-1.547,0-1.547,1.389a.848.848,0,0,0,.272.655A.986.986,0,0,0,13.878-1.934ZM23.95-2.109a1.317,1.317,0,0,0,.967-.338,1.241,1.241,0,0,0,.334-.945h2.777A3.288,3.288,0,0,1,26.908-.826a4.168,4.168,0,0,1-2.887,1,4.22,4.22,0,0,1-3.27-1.3,5.125,5.125,0,0,1-1.2-3.6v-.123A5.792,5.792,0,0,1,20.087-7.4a3.872,3.872,0,0,1,1.534-1.7,4.573,4.573,0,0,1,2.373-.593,4.116,4.116,0,0,1,2.944,1.028,3.647,3.647,0,0,1,1.09,2.786H25.251A1.626,1.626,0,0,0,24.891-7a1.244,1.244,0,0,0-.967-.4q-1.151,0-1.345,1.468a10.357,10.357,0,0,0-.062,1.283,4.068,4.068,0,0,0,.343,1.986A1.187,1.187,0,0,0,23.95-2.109Zm8.78-9.765V-9.51h1.564v2.057H32.73V-3.1a1.111,1.111,0,0,0,.193.747,1.037,1.037,0,0,0,.765.211,4.345,4.345,0,0,0,.738-.053V-.079a5.466,5.466,0,0,1-1.67.255A3.1,3.1,0,0,1,30.5-.545a2.954,2.954,0,0,1-.729-2.188v-4.72H28.556V-9.51h1.213v-2.364ZM41.124-1.028a3.054,3.054,0,0,1-2.54,1.2,3,3,0,0,1-2.369-.91,3.826,3.826,0,0,1-.8-2.615V-9.51h2.962v6.179A1.065,1.065,0,0,0,39.56-2.109a1.548,1.548,0,0,0,1.45-.729V-9.51h2.979V0H41.212Zm10.239-5.8-.976-.07a1.752,1.752,0,0,0-1.793.879V0H45.633V-9.51H48.41l.1,1.222a2.294,2.294,0,0,1,2.083-1.4,2.888,2.888,0,0,1,.826.105ZM57.524,0a3.344,3.344,0,0,1-.281-.853A2.754,2.754,0,0,1,54.958.176a3.374,3.374,0,0,1-2.285-.813,2.588,2.588,0,0,1-.94-2.043,2.66,2.66,0,0,1,1.143-2.338A5.821,5.821,0,0,1,56.2-5.81h.914v-.5q0-1.316-1.134-1.316a.927.927,0,0,0-1.055,1.042H51.961a2.655,2.655,0,0,1,1.173-2.239,4.931,4.931,0,0,1,2.993-.86A4.323,4.323,0,0,1,59-8.8a3.086,3.086,0,0,1,1.081,2.435v4.21a4.311,4.311,0,0,0,.4,2V0ZM55.67-1.934a1.652,1.652,0,0,0,.918-.237,1.487,1.487,0,0,0,.523-.536V-4.228H56.25q-1.547,0-1.547,1.389a.848.848,0,0,0,.272.655A.986.986,0,0,0,55.67-1.934ZM66.7-2.672a.684.684,0,0,0-.4-.606,6.016,6.016,0,0,0-1.5-.475A6.853,6.853,0,0,1,62.974-4.4a3.062,3.062,0,0,1-1.1-.971A2.319,2.319,0,0,1,61.5-6.68a2.628,2.628,0,0,1,1.081-2.158,4.453,4.453,0,0,1,2.83-.848,4.934,4.934,0,0,1,3.023.853,2.666,2.666,0,0,1,1.143,2.241H66.6q0-1.143-1.2-1.143a1.194,1.194,0,0,0-.782.259.8.8,0,0,0-.316.646.737.737,0,0,0,.387.642,3.654,3.654,0,0,0,1.235.4,10.671,10.671,0,0,1,1.49.378A2.706,2.706,0,0,1,69.557-2.76,2.491,2.491,0,0,1,68.4-.642a5.068,5.068,0,0,1-2.993.817,5.172,5.172,0,0,1-2.18-.439,3.645,3.645,0,0,1-1.494-1.2A2.707,2.707,0,0,1,61.2-3.05h2.769a1.145,1.145,0,0,0,.439.962,1.808,1.808,0,0,0,1.081.3,1.422,1.422,0,0,0,.91-.246A.787.787,0,0,0,66.7-2.672Z" transform="translate(414 4863)" fill="#fff"/>
        <path id="Trazado_9992" data-name="Trazado 9992" d="M4763.732,4887v199" transform="translate(-4314.232)" fill="none" stroke="#039be5" stroke-width="1"/>
        <path id="Trazado_14856" data-name="Trazado 14856" d="M8.675-5.423H3.524V0H1.3V-12.8h8.13V-11H3.524V-7.2h5.15Zm7.989,2.443H11.707L10.67,0H8.358l4.834-12.8h2L20.03,0H17.71ZM12.331-4.772H16.04l-1.854-5.309Zm18.914.606A4.621,4.621,0,0,1,29.733-.971,5.154,5.154,0,0,1,26.227.176a4.99,4.99,0,0,1-2.694-.725,4.759,4.759,0,0,1-1.8-2.061,7.438,7.438,0,0,1-.659-3.1v-1.2a7.491,7.491,0,0,1,.642-3.19,4.835,4.835,0,0,1,1.841-2.127,5.136,5.136,0,0,1,2.773-.747,4.946,4.946,0,0,1,3.41,1.147,4.793,4.793,0,0,1,1.5,3.248H29.03a3.161,3.161,0,0,0-.8-1.991,2.658,2.658,0,0,0-1.894-.611A2.6,2.6,0,0,0,24.1-10.12a5.3,5.3,0,0,0-.8,3.11v1.135a5.62,5.62,0,0,0,.743,3.167,2.464,2.464,0,0,0,2.175,1.091A2.875,2.875,0,0,0,28.2-2.206a3.071,3.071,0,0,0,.835-1.96ZM34.356-2.25a1.22,1.22,0,0,1,.923.338,1.175,1.175,0,0,1,.325.848,1.134,1.134,0,0,1-.325.831,1.238,1.238,0,0,1-.923.33,1.242,1.242,0,0,1-.905-.325,1.115,1.115,0,0,1-.334-.835,1.175,1.175,0,0,1,.325-.848A1.208,1.208,0,0,1,34.356-2.25ZM52.893,0H50.669l-5.7-9.079V0H42.741V-12.8h2.224l5.722,9.114V-12.8h2.206ZM64.881-12.8v8.552a4.156,4.156,0,0,1-1.305,3.23A4.958,4.958,0,0,1,60.1.176,4.993,4.993,0,0,1,56.61-1a4.176,4.176,0,0,1-1.292-3.256V-12.8h2.215v8.561a2.719,2.719,0,0,0,.65,1.96A2.537,2.537,0,0,0,60.1-1.6q2.566,0,2.566-2.707V-12.8Zm5.256,0,3.691,9.809L77.511-12.8h2.874V0H78.17V-4.219l.22-5.643L74.61,0H73.02L69.249-9.853l.22,5.634V0H67.254V-12.8Z" transform="translate(336 4913)" fill="#1565c0"/>
        <path id="Trazado_14855" data-name="Trazado 14855" d="M11.065-4.166A4.621,4.621,0,0,1,9.554-.971,5.154,5.154,0,0,1,6.047.176,4.99,4.99,0,0,1,3.353-.549a4.759,4.759,0,0,1-1.8-2.061A7.438,7.438,0,0,1,.9-5.713v-1.2a7.491,7.491,0,0,1,.642-3.19,4.835,4.835,0,0,1,1.841-2.127,5.136,5.136,0,0,1,2.773-.747,4.946,4.946,0,0,1,3.41,1.147,4.793,4.793,0,0,1,1.5,3.248H8.851a3.161,3.161,0,0,0-.8-1.991,2.658,2.658,0,0,0-1.894-.611,2.6,2.6,0,0,0-2.228,1.06,5.3,5.3,0,0,0-.8,3.11v1.135a5.62,5.62,0,0,0,.743,3.167A2.464,2.464,0,0,0,6.047-1.617a2.875,2.875,0,0,0,1.969-.589,3.071,3.071,0,0,0,.835-1.96Zm4.21,2.391h5.81V0H13.052V-12.8h2.224ZM25.137,0H22.922V-12.8h2.215ZM35.35-5.713H30.094v3.938h6.144V0H27.87V-12.8h8.306V-11H30.094v3.533H35.35ZM48.2,0H45.976l-5.7-9.079V0H38.048V-12.8h2.224l5.722,9.114V-12.8H48.2ZM60.073-11h-3.99V0H53.877V-11H49.922V-12.8H60.073Zm9.158,5.291H63.976v3.938h6.144V0H61.752V-12.8h8.306V-11H63.976v3.533h5.256Z" transform="translate(477 4913)" fill="#1565c0"/>
        <path id="Trazado_14857" data-name="Trazado 14857" d="M9.088-5.458a7.436,7.436,0,0,1-.976,4.245A3.47,3.47,0,0,1,5.063.176,3.5,3.5,0,0,1,2.03-1.182a7.058,7.058,0,0,1-1.02-4.056V-7.409A7.271,7.271,0,0,1,1.986-11.6a3.5,3.5,0,0,1,3.059-1.371A3.528,3.528,0,0,1,8.086-11.65a7.017,7.017,0,0,1,1,4.083ZM7.462-7.682a5.958,5.958,0,0,0-.58-3.01,2,2,0,0,0-1.837-.945,1.97,1.97,0,0,0-1.819.94A5.817,5.817,0,0,0,2.637-7.8v2.6a6.053,6.053,0,0,0,.6,3.063,1.993,1.993,0,0,0,1.824.989,1.966,1.966,0,0,0,1.789-.932,5.834,5.834,0,0,0,.611-2.936ZM19.2-5.458a7.436,7.436,0,0,1-.976,4.245A3.47,3.47,0,0,1,15.17.176a3.5,3.5,0,0,1-3.032-1.358,7.058,7.058,0,0,1-1.02-4.056V-7.409a7.271,7.271,0,0,1,.976-4.192,3.5,3.5,0,0,1,3.059-1.371,3.528,3.528,0,0,1,3.041,1.323,7.017,7.017,0,0,1,1,4.083ZM17.569-7.682a5.958,5.958,0,0,0-.58-3.01,2,2,0,0,0-1.837-.945,1.97,1.97,0,0,0-1.819.94A5.817,5.817,0,0,0,12.744-7.8v2.6a6.053,6.053,0,0,0,.6,3.063,1.993,1.993,0,0,0,1.824.989,1.966,1.966,0,0,0,1.789-.932,5.834,5.834,0,0,0,.611-2.936ZM29.3-5.458a7.436,7.436,0,0,1-.976,4.245A3.47,3.47,0,0,1,25.277.176a3.5,3.5,0,0,1-3.032-1.358,7.058,7.058,0,0,1-1.02-4.056V-7.409A7.271,7.271,0,0,1,22.2-11.6a3.5,3.5,0,0,1,3.059-1.371A3.528,3.528,0,0,1,28.3-11.65a7.017,7.017,0,0,1,1,4.083ZM27.677-7.682a5.958,5.958,0,0,0-.58-3.01,2,2,0,0,0-1.837-.945,1.97,1.97,0,0,0-1.819.94A5.817,5.817,0,0,0,22.852-7.8v2.6a6.053,6.053,0,0,0,.6,3.063,1.993,1.993,0,0,0,1.824.989,1.966,1.966,0,0,0,1.789-.932,5.834,5.834,0,0,0,.611-2.936ZM39.41-5.458a7.436,7.436,0,0,1-.976,4.245A3.47,3.47,0,0,1,35.385.176a3.5,3.5,0,0,1-3.032-1.358,7.058,7.058,0,0,1-1.02-4.056V-7.409a7.271,7.271,0,0,1,.976-4.192,3.5,3.5,0,0,1,3.059-1.371,3.528,3.528,0,0,1,3.041,1.323,7.017,7.017,0,0,1,1,4.083ZM37.784-7.682a5.958,5.958,0,0,0-.58-3.01,2,2,0,0,0-1.837-.945,1.97,1.97,0,0,0-1.819.94A5.817,5.817,0,0,0,32.959-7.8v2.6a6.053,6.053,0,0,0,.6,3.063,1.993,1.993,0,0,0,1.824.989,1.966,1.966,0,0,0,1.789-.932,5.834,5.834,0,0,0,.611-2.936ZM46.837,0H45.2V-10.837l-3.278,1.2v-1.477l4.658-1.749h.255Z" transform="translate(336 4954)" fill="#1565c0"/>
        <path id="Trazado_14858" data-name="Trazado 14858" d="M9.088-5.458a7.436,7.436,0,0,1-.976,4.245A3.47,3.47,0,0,1,5.063.176,3.5,3.5,0,0,1,2.03-1.182a7.058,7.058,0,0,1-1.02-4.056V-7.409A7.271,7.271,0,0,1,1.986-11.6a3.5,3.5,0,0,1,3.059-1.371A3.528,3.528,0,0,1,8.086-11.65a7.017,7.017,0,0,1,1,4.083ZM7.462-7.682a5.958,5.958,0,0,0-.58-3.01,2,2,0,0,0-1.837-.945,1.97,1.97,0,0,0-1.819.94A5.817,5.817,0,0,0,2.637-7.8v2.6a6.053,6.053,0,0,0,.6,3.063,1.993,1.993,0,0,0,1.824.989,1.966,1.966,0,0,0,1.789-.932,5.834,5.834,0,0,0,.611-2.936ZM19.2-5.458a7.436,7.436,0,0,1-.976,4.245A3.47,3.47,0,0,1,15.17.176a3.5,3.5,0,0,1-3.032-1.358,7.058,7.058,0,0,1-1.02-4.056V-7.409a7.271,7.271,0,0,1,.976-4.192,3.5,3.5,0,0,1,3.059-1.371,3.528,3.528,0,0,1,3.041,1.323,7.017,7.017,0,0,1,1,4.083ZM17.569-7.682a5.958,5.958,0,0,0-.58-3.01,2,2,0,0,0-1.837-.945,1.97,1.97,0,0,0-1.819.94A5.817,5.817,0,0,0,12.744-7.8v2.6a6.053,6.053,0,0,0,.6,3.063,1.993,1.993,0,0,0,1.824.989,1.966,1.966,0,0,0,1.789-.932,5.834,5.834,0,0,0,.611-2.936ZM29.3-5.458a7.436,7.436,0,0,1-.976,4.245A3.47,3.47,0,0,1,25.277.176a3.5,3.5,0,0,1-3.032-1.358,7.058,7.058,0,0,1-1.02-4.056V-7.409A7.271,7.271,0,0,1,22.2-11.6a3.5,3.5,0,0,1,3.059-1.371A3.528,3.528,0,0,1,28.3-11.65a7.017,7.017,0,0,1,1,4.083ZM27.677-7.682a5.958,5.958,0,0,0-.58-3.01,2,2,0,0,0-1.837-.945,1.97,1.97,0,0,0-1.819.94A5.817,5.817,0,0,0,22.852-7.8v2.6a6.053,6.053,0,0,0,.6,3.063,1.993,1.993,0,0,0,1.824.989,1.966,1.966,0,0,0,1.789-.932,5.834,5.834,0,0,0,.611-2.936ZM39.41-5.458a7.436,7.436,0,0,1-.976,4.245A3.47,3.47,0,0,1,35.385.176a3.5,3.5,0,0,1-3.032-1.358,7.058,7.058,0,0,1-1.02-4.056V-7.409a7.271,7.271,0,0,1,.976-4.192,3.5,3.5,0,0,1,3.059-1.371,3.528,3.528,0,0,1,3.041,1.323,7.017,7.017,0,0,1,1,4.083ZM37.784-7.682a5.958,5.958,0,0,0-.58-3.01,2,2,0,0,0-1.837-.945,1.97,1.97,0,0,0-1.819.94A5.817,5.817,0,0,0,32.959-7.8v2.6a6.053,6.053,0,0,0,.6,3.063,1.993,1.993,0,0,0,1.824.989,1.966,1.966,0,0,0,1.789-.932,5.834,5.834,0,0,0,.611-2.936ZM49.878,0H41.493V-1.169l4.43-4.922a10.524,10.524,0,0,0,1.358-1.815,3.029,3.029,0,0,0,.374-1.446A2.3,2.3,0,0,0,47.048-11a2.12,2.12,0,0,0-1.617-.642,2.511,2.511,0,0,0-1.885.69,2.635,2.635,0,0,0-.672,1.92H41.247a3.774,3.774,0,0,1,1.138-2.856,4.219,4.219,0,0,1,3.045-1.09,4.054,4.054,0,0,1,2.821.936,3.193,3.193,0,0,1,1.037,2.492q0,1.89-2.408,4.5L43.453-1.327h6.425Z" transform="translate(336 4992)" fill="#1565c0"/>
        <path id="Trazado_14859" data-name="Trazado 14859" d="M9.088-5.458a7.436,7.436,0,0,1-.976,4.245A3.47,3.47,0,0,1,5.063.176,3.5,3.5,0,0,1,2.03-1.182a7.058,7.058,0,0,1-1.02-4.056V-7.409A7.271,7.271,0,0,1,1.986-11.6a3.5,3.5,0,0,1,3.059-1.371A3.528,3.528,0,0,1,8.086-11.65a7.017,7.017,0,0,1,1,4.083ZM7.462-7.682a5.958,5.958,0,0,0-.58-3.01,2,2,0,0,0-1.837-.945,1.97,1.97,0,0,0-1.819.94A5.817,5.817,0,0,0,2.637-7.8v2.6a6.053,6.053,0,0,0,.6,3.063,1.993,1.993,0,0,0,1.824.989,1.966,1.966,0,0,0,1.789-.932,5.834,5.834,0,0,0,.611-2.936ZM19.2-5.458a7.436,7.436,0,0,1-.976,4.245A3.47,3.47,0,0,1,15.17.176a3.5,3.5,0,0,1-3.032-1.358,7.058,7.058,0,0,1-1.02-4.056V-7.409a7.271,7.271,0,0,1,.976-4.192,3.5,3.5,0,0,1,3.059-1.371,3.528,3.528,0,0,1,3.041,1.323,7.017,7.017,0,0,1,1,4.083ZM17.569-7.682a5.958,5.958,0,0,0-.58-3.01,2,2,0,0,0-1.837-.945,1.97,1.97,0,0,0-1.819.94A5.817,5.817,0,0,0,12.744-7.8v2.6a6.053,6.053,0,0,0,.6,3.063,1.993,1.993,0,0,0,1.824.989,1.966,1.966,0,0,0,1.789-.932,5.834,5.834,0,0,0,.611-2.936ZM29.3-5.458a7.436,7.436,0,0,1-.976,4.245A3.47,3.47,0,0,1,25.277.176a3.5,3.5,0,0,1-3.032-1.358,7.058,7.058,0,0,1-1.02-4.056V-7.409A7.271,7.271,0,0,1,22.2-11.6a3.5,3.5,0,0,1,3.059-1.371A3.528,3.528,0,0,1,28.3-11.65a7.017,7.017,0,0,1,1,4.083ZM27.677-7.682a5.958,5.958,0,0,0-.58-3.01,2,2,0,0,0-1.837-.945,1.97,1.97,0,0,0-1.819.94A5.817,5.817,0,0,0,22.852-7.8v2.6a6.053,6.053,0,0,0,.6,3.063,1.993,1.993,0,0,0,1.824.989,1.966,1.966,0,0,0,1.789-.932,5.834,5.834,0,0,0,.611-2.936ZM39.41-5.458a7.436,7.436,0,0,1-.976,4.245A3.47,3.47,0,0,1,35.385.176a3.5,3.5,0,0,1-3.032-1.358,7.058,7.058,0,0,1-1.02-4.056V-7.409a7.271,7.271,0,0,1,.976-4.192,3.5,3.5,0,0,1,3.059-1.371,3.528,3.528,0,0,1,3.041,1.323,7.017,7.017,0,0,1,1,4.083ZM37.784-7.682a5.958,5.958,0,0,0-.58-3.01,2,2,0,0,0-1.837-.945,1.97,1.97,0,0,0-1.819.94A5.817,5.817,0,0,0,32.959-7.8v2.6a6.053,6.053,0,0,0,.6,3.063,1.993,1.993,0,0,0,1.824.989,1.966,1.966,0,0,0,1.789-.932,5.834,5.834,0,0,0,.611-2.936Zm6.073.492h1.222A2.685,2.685,0,0,0,46.89-7.8a2.026,2.026,0,0,0,.659-1.591,1.985,1.985,0,0,0-2.241-2.25,2.331,2.331,0,0,0-1.683.6A2.107,2.107,0,0,0,43-9.439H41.37a3.264,3.264,0,0,1,1.112-2.527,4.05,4.05,0,0,1,2.826-1.006,4,4,0,0,1,2.839.958,3.461,3.461,0,0,1,1.028,2.663,2.809,2.809,0,0,1-.541,1.617,3.264,3.264,0,0,1-1.472,1.169,3.145,3.145,0,0,1,1.63,1.107,3.076,3.076,0,0,1,.576,1.89A3.491,3.491,0,0,1,48.243-.835,4.213,4.213,0,0,1,45.316.176,4.324,4.324,0,0,1,42.385-.8a3.236,3.236,0,0,1-1.129-2.575h1.635a2.092,2.092,0,0,0,.659,1.617,2.507,2.507,0,0,0,1.767.606,2.46,2.46,0,0,0,1.8-.615,2.371,2.371,0,0,0,.624-1.767,2.151,2.151,0,0,0-.686-1.714,2.987,2.987,0,0,0-1.978-.615H43.857Z" transform="translate(336 5032)" fill="#1565c0"/>
        <path id="Trazado_14860" data-name="Trazado 14860" d="M9.088-5.458a7.436,7.436,0,0,1-.976,4.245A3.47,3.47,0,0,1,5.063.176,3.5,3.5,0,0,1,2.03-1.182a7.058,7.058,0,0,1-1.02-4.056V-7.409A7.271,7.271,0,0,1,1.986-11.6a3.5,3.5,0,0,1,3.059-1.371A3.528,3.528,0,0,1,8.086-11.65a7.017,7.017,0,0,1,1,4.083ZM7.462-7.682a5.958,5.958,0,0,0-.58-3.01,2,2,0,0,0-1.837-.945,1.97,1.97,0,0,0-1.819.94A5.817,5.817,0,0,0,2.637-7.8v2.6a6.053,6.053,0,0,0,.6,3.063,1.993,1.993,0,0,0,1.824.989,1.966,1.966,0,0,0,1.789-.932,5.834,5.834,0,0,0,.611-2.936ZM19.2-5.458a7.436,7.436,0,0,1-.976,4.245A3.47,3.47,0,0,1,15.17.176a3.5,3.5,0,0,1-3.032-1.358,7.058,7.058,0,0,1-1.02-4.056V-7.409a7.271,7.271,0,0,1,.976-4.192,3.5,3.5,0,0,1,3.059-1.371,3.528,3.528,0,0,1,3.041,1.323,7.017,7.017,0,0,1,1,4.083ZM17.569-7.682a5.958,5.958,0,0,0-.58-3.01,2,2,0,0,0-1.837-.945,1.97,1.97,0,0,0-1.819.94A5.817,5.817,0,0,0,12.744-7.8v2.6a6.053,6.053,0,0,0,.6,3.063,1.993,1.993,0,0,0,1.824.989,1.966,1.966,0,0,0,1.789-.932,5.834,5.834,0,0,0,.611-2.936ZM29.3-5.458a7.436,7.436,0,0,1-.976,4.245A3.47,3.47,0,0,1,25.277.176a3.5,3.5,0,0,1-3.032-1.358,7.058,7.058,0,0,1-1.02-4.056V-7.409A7.271,7.271,0,0,1,22.2-11.6a3.5,3.5,0,0,1,3.059-1.371A3.528,3.528,0,0,1,28.3-11.65a7.017,7.017,0,0,1,1,4.083ZM27.677-7.682a5.958,5.958,0,0,0-.58-3.01,2,2,0,0,0-1.837-.945,1.97,1.97,0,0,0-1.819.94A5.817,5.817,0,0,0,22.852-7.8v2.6a6.053,6.053,0,0,0,.6,3.063,1.993,1.993,0,0,0,1.824.989,1.966,1.966,0,0,0,1.789-.932,5.834,5.834,0,0,0,.611-2.936ZM39.41-5.458a7.436,7.436,0,0,1-.976,4.245A3.47,3.47,0,0,1,35.385.176a3.5,3.5,0,0,1-3.032-1.358,7.058,7.058,0,0,1-1.02-4.056V-7.409a7.271,7.271,0,0,1,.976-4.192,3.5,3.5,0,0,1,3.059-1.371,3.528,3.528,0,0,1,3.041,1.323,7.017,7.017,0,0,1,1,4.083ZM37.784-7.682a5.958,5.958,0,0,0-.58-3.01,2,2,0,0,0-1.837-.945,1.97,1.97,0,0,0-1.819.94A5.817,5.817,0,0,0,32.959-7.8v2.6a6.053,6.053,0,0,0,.6,3.063,1.993,1.993,0,0,0,1.824.989,1.966,1.966,0,0,0,1.789-.932,5.834,5.834,0,0,0,.611-2.936ZM48.357-4.3h1.775v1.327H48.357V0H46.723V-2.971H40.9v-.958l5.73-8.868h1.731Zm-5.616,0h3.981v-6.275l-.193.352Z" transform="translate(336 5072)" fill="#1565c0"/>
        <path id="Trazado_14871" data-name="Trazado 14871" d="M6.407,0H4.772V-10.837l-3.278,1.2v-1.477l4.658-1.749h.255Z" transform="translate(505 4954)" fill="#1565c0"/>
        <path id="Trazado_14870" data-name="Trazado 14870" d="M9.448,0H1.063V-1.169l4.43-4.922A10.524,10.524,0,0,0,6.851-7.906a3.029,3.029,0,0,0,.374-1.446A2.3,2.3,0,0,0,6.618-11,2.12,2.12,0,0,0,5-11.637a2.511,2.511,0,0,0-1.885.69,2.635,2.635,0,0,0-.672,1.92H.817a3.774,3.774,0,0,1,1.138-2.856A4.219,4.219,0,0,1,5-12.973a4.054,4.054,0,0,1,2.821.936A3.193,3.193,0,0,1,8.859-9.545q0,1.89-2.408,4.5L3.023-1.327H9.448Z" transform="translate(505 4992)" fill="#1565c0"/>
        <path id="Trazado_14869" data-name="Trazado 14869" d="M3.428-7.189H4.649A2.685,2.685,0,0,0,6.46-7.8a2.026,2.026,0,0,0,.659-1.591,1.985,1.985,0,0,0-2.241-2.25,2.331,2.331,0,0,0-1.683.6,2.107,2.107,0,0,0-.628,1.6H.94a3.264,3.264,0,0,1,1.112-2.527,4.05,4.05,0,0,1,2.826-1.006,4,4,0,0,1,2.839.958A3.461,3.461,0,0,1,8.745-9.352,2.809,2.809,0,0,1,8.2-7.734,3.264,3.264,0,0,1,6.732-6.565a3.145,3.145,0,0,1,1.63,1.107,3.076,3.076,0,0,1,.576,1.89A3.491,3.491,0,0,1,7.813-.835,4.213,4.213,0,0,1,4.887.176,4.324,4.324,0,0,1,1.956-.8,3.236,3.236,0,0,1,.826-3.375H2.461A2.092,2.092,0,0,0,3.12-1.758a2.507,2.507,0,0,0,1.767.606,2.46,2.46,0,0,0,1.8-.615,2.371,2.371,0,0,0,.624-1.767,2.151,2.151,0,0,0-.686-1.714,2.987,2.987,0,0,0-1.978-.615H3.428Z" transform="translate(505 5032)" fill="#1565c0"/>
        <path id="Trazado_14868" data-name="Trazado 14868" d="M7.928-4.3H9.7v1.327H7.928V0H6.293V-2.971H.466v-.958L6.2-12.8H7.928Zm-5.616,0H6.293v-6.275l-.193.352Z" transform="translate(505 5072)" fill="#1565c0"/>
        <path id="Trazado_9994" data-name="Trazado 9994" d="M4623,4975h268" transform="translate(-4308 -9)" fill="none" stroke="#039be5" stroke-width="1"/>
        <path id="Trazado_9995" data-name="Trazado 9995" d="M4623,4975h268" transform="translate(-4308 31)" fill="none" stroke="#039be5" stroke-width="1"/>
        <path id="Trazado_9996" data-name="Trazado 9996" d="M4623,4975h268" transform="translate(-4308 71)" fill="none" stroke="#039be5" stroke-width="1"/>
        <path id="Trazado_9997" data-name="Trazado 9997" d="M4623,4975h268" transform="translate(-4308 111)" fill="none" stroke="#039be5" stroke-width="1"/>
        <g id="Rectángulo_5842" data-name="Rectángulo 5842" transform="translate(691 4832)" fill="#fff" stroke="#039be5" stroke-width="1">
          <rect width="192" height="174" stroke="none"/>
          <rect x="0.5" y="0.5" width="191" height="173" fill="none"/>
        </g>
        <g id="Rectángulo_5843" data-name="Rectángulo 5843" transform="translate(691 4832)" fill="#039be5" stroke="#039be5" stroke-width="1">
          <rect width="192" height="55" stroke="none"/>
          <rect x="0.5" y="0.5" width="191" height="54" fill="none"/>
        </g>
        <g id="Rectángulo_5844" data-name="Rectángulo 5844" transform="translate(691 4887)" fill="#e6f7ff" stroke="#039be5" stroke-width="1">
          <rect width="192" height="39" stroke="none"/>
          <rect x="0.5" y="0.5" width="191" height="38" fill="none"/>
        </g>
        <path id="Trazado_14862" data-name="Trazado 14862" d="M11.32-4.333a4.673,4.673,0,0,1-.721,2.36A4.35,4.35,0,0,1,8.75-.387a6.3,6.3,0,0,1-2.72.563A5.025,5.025,0,0,1,2.057-1.468,6.786,6.786,0,0,1,.606-6.108v-.633a7.746,7.746,0,0,1,.655-3.292,4.961,4.961,0,0,1,1.885-2.18,5.26,5.26,0,0,1,2.848-.769,5.516,5.516,0,0,1,3.744,1.226,4.844,4.844,0,0,1,1.608,3.379H8.271a2.292,2.292,0,0,0-.589-1.679,2.422,2.422,0,0,0-1.687-.51A1.843,1.843,0,0,0,4.307-9.7a5.536,5.536,0,0,0-.562,2.751v.905A6.125,6.125,0,0,0,4.258-3.12a1.882,1.882,0,0,0,1.771.879,2.369,2.369,0,0,0,1.626-.5,2.126,2.126,0,0,0,.6-1.591ZM15.768,0H12.8V-13.5h2.971Zm4.948,0H17.745V-9.51h2.971ZM17.569-11.962A1.322,1.322,0,0,1,18.026-13a1.724,1.724,0,0,1,1.187-.4A1.724,1.724,0,0,1,20.4-13a1.322,1.322,0,0,1,.457,1.037,1.322,1.322,0,0,1-.457,1.037,1.724,1.724,0,0,1-1.187.4,1.724,1.724,0,0,1-1.187-.4A1.322,1.322,0,0,1,17.569-11.962ZM27.141.176A4.889,4.889,0,0,1,23.6-1.129a4.507,4.507,0,0,1-1.354-3.4v-.246a5.84,5.84,0,0,1,.541-2.575,3.955,3.955,0,0,1,1.578-1.727,4.763,4.763,0,0,1,2.461-.611,4.117,4.117,0,0,1,3.164,1.244,4.887,4.887,0,0,1,1.16,3.467v1.151H25.26a2.135,2.135,0,0,0,.694,1.257,2.066,2.066,0,0,0,1.389.457,2.662,2.662,0,0,0,2.2-.984l1.354,1.6A3.784,3.784,0,0,1,29.325-.277,5.3,5.3,0,0,1,27.141.176ZM26.807-7.4q-1.3,0-1.547,1.723h2.988v-.229a1.467,1.467,0,0,0-.36-1.1A1.434,1.434,0,0,0,26.807-7.4ZM35.06-9.51l.1,1.116a3.225,3.225,0,0,1,2.716-1.292,2.713,2.713,0,0,1,2.219.888,4.226,4.226,0,0,1,.76,2.672V0H37.881V-6a1.6,1.6,0,0,0-.29-1.059A1.342,1.342,0,0,0,36.536-7.4a1.413,1.413,0,0,0-1.292.686V0H32.282V-9.51ZM45.94-11.874V-9.51H47.5v2.057H45.94V-3.1a1.111,1.111,0,0,0,.193.747,1.037,1.037,0,0,0,.765.211,4.345,4.345,0,0,0,.738-.053V-.079a5.466,5.466,0,0,1-1.67.255,3.1,3.1,0,0,1-2.259-.721,2.954,2.954,0,0,1-.729-2.188v-4.72H41.766V-9.51h1.213v-2.364ZM53.271.176a4.889,4.889,0,0,1-3.542-1.305,4.507,4.507,0,0,1-1.354-3.4v-.246a5.84,5.84,0,0,1,.541-2.575,3.955,3.955,0,0,1,1.578-1.727,4.763,4.763,0,0,1,2.461-.611,4.117,4.117,0,0,1,3.164,1.244,4.887,4.887,0,0,1,1.16,3.467v1.151H51.39a2.135,2.135,0,0,0,.694,1.257,2.066,2.066,0,0,0,1.389.457,2.662,2.662,0,0,0,2.2-.984l1.354,1.6A3.784,3.784,0,0,1,55.455-.277,5.3,5.3,0,0,1,53.271.176ZM52.937-7.4q-1.3,0-1.547,1.723h2.988v-.229a1.467,1.467,0,0,0-.36-1.1A1.434,1.434,0,0,0,52.937-7.4ZM63.448-2.672a.684.684,0,0,0-.4-.606,6.016,6.016,0,0,0-1.5-.475A6.853,6.853,0,0,1,59.722-4.4a3.062,3.062,0,0,1-1.1-.971,2.319,2.319,0,0,1-.378-1.31,2.628,2.628,0,0,1,1.081-2.158,4.453,4.453,0,0,1,2.83-.848,4.934,4.934,0,0,1,3.023.853,2.666,2.666,0,0,1,1.143,2.241H63.352q0-1.143-1.2-1.143a1.194,1.194,0,0,0-.782.259.8.8,0,0,0-.316.646.737.737,0,0,0,.387.642,3.654,3.654,0,0,0,1.235.4,10.671,10.671,0,0,1,1.49.378A2.706,2.706,0,0,1,66.3-2.76,2.491,2.491,0,0,1,65.149-.642a5.068,5.068,0,0,1-2.993.817,5.172,5.172,0,0,1-2.18-.439,3.645,3.645,0,0,1-1.494-1.2,2.707,2.707,0,0,1-.536-1.591h2.769a1.145,1.145,0,0,0,.439.962,1.808,1.808,0,0,0,1.081.3,1.422,1.422,0,0,0,.91-.246A.787.787,0,0,0,63.448-2.672Z" transform="translate(753 4863)" fill="#fff"/>
        <path id="Trazado_9998" data-name="Trazado 9998" d="M4763.732,4887v119" transform="translate(-4006.232)" fill="none" stroke="#039be5" stroke-width="1"/>
        <path id="Trazado_14863" data-name="Trazado 14863" d="M3.647,0H1.433V-12.8H3.647ZM6.381,0V-12.8H10.16a5.928,5.928,0,0,1,3.01.756A5.154,5.154,0,0,1,15.205-9.9a6.807,6.807,0,0,1,.721,3.182v.642a6.779,6.779,0,0,1-.725,3.2A5.092,5.092,0,0,1,13.135-.747,6.2,6.2,0,0,1,10.063,0ZM8.6-11v9.229h1.45A3.339,3.339,0,0,0,12.74-2.87a4.766,4.766,0,0,0,.954-3.142v-.712a4.891,4.891,0,0,0-.905-3.182A3.209,3.209,0,0,0,10.16-11Z" transform="translate(712 4913)" fill="#1565c0"/>
        <path id="Trazado_14861" data-name="Trazado 14861" d="M11.452,0H9.229l-5.7-9.079V0H1.3V-12.8H3.524L9.246-3.683V-12.8h2.206ZM24.293-6.064a7.851,7.851,0,0,1-.65,3.3,4.918,4.918,0,0,1-1.859,2.18A5.113,5.113,0,0,1,19,.176a5.125,5.125,0,0,1-2.773-.76,4.993,4.993,0,0,1-1.881-2.167,7.606,7.606,0,0,1-.672-3.243v-.721a7.784,7.784,0,0,1,.664-3.3,4.987,4.987,0,0,1,1.872-2.193,5.1,5.1,0,0,1,2.773-.76,5.142,5.142,0,0,1,2.773.751,4.924,4.924,0,0,1,1.868,2.162,7.767,7.767,0,0,1,.668,3.283Zm-2.224-.668a5.594,5.594,0,0,0-.8-3.261,2.631,2.631,0,0,0-2.281-1.134A2.623,2.623,0,0,0,16.73-10,5.486,5.486,0,0,0,15.9-6.8v.738A5.552,5.552,0,0,0,16.721-2.8,2.646,2.646,0,0,0,19-1.652a2.615,2.615,0,0,0,2.272-1.125,5.671,5.671,0,0,0,.8-3.287ZM29.391-12.8l3.691,9.809L36.765-12.8h2.874V0H37.424V-4.219l.22-5.643L33.864,0H32.273L28.5-9.853l.22,5.634V0H26.508V-12.8ZM42.267,0V-12.8h4.386a5.354,5.354,0,0,1,3.3.87,3.065,3.065,0,0,1,1.134,2.593,2.763,2.763,0,0,1-.475,1.582,3.055,3.055,0,0,1-1.389,1.09,2.825,2.825,0,0,1,1.6,1.059A3.085,3.085,0,0,1,51.4-3.735,3.407,3.407,0,0,1,50.243-.967,5.025,5.025,0,0,1,46.934,0ZM44.49-5.774v4h2.47a2.39,2.39,0,0,0,1.635-.519,1.82,1.82,0,0,0,.589-1.441,1.826,1.826,0,0,0-2.039-2.039Zm0-1.635h2.18a2.521,2.521,0,0,0,1.622-.47,1.611,1.611,0,0,0,.584-1.332,1.633,1.633,0,0,0-.541-1.371A2.73,2.73,0,0,0,46.652-11H44.49ZM58.324-4.922H55.846V0H53.622V-12.8h4.5a5.235,5.235,0,0,1,3.419.994,3.516,3.516,0,0,1,1.2,2.876,3.6,3.6,0,0,1-.62,2.151A3.943,3.943,0,0,1,60.4-5.443L63.272-.114V0H60.891ZM55.846-6.715h2.285a2.541,2.541,0,0,0,1.758-.567,1.977,1.977,0,0,0,.633-1.551,2.1,2.1,0,0,0-.584-1.591A2.483,2.483,0,0,0,58.192-11H55.846Zm16.488,1H67.078v3.938h6.144V0H64.854V-12.8H73.16V-11H67.078v3.533h5.256Z" transform="translate(781 4913)" fill="#1565c0"/>
        <path id="Trazado_14864" data-name="Trazado 14864" d="M6.407,0H4.772V-10.837l-3.278,1.2v-1.477l4.658-1.749h.255Z" transform="translate(712 4954)" fill="#1565c0"/>
        <path id="Trazado_14865" data-name="Trazado 14865" d="M9.448,0H1.063V-1.169l4.43-4.922A10.524,10.524,0,0,0,6.851-7.906a3.029,3.029,0,0,0,.374-1.446A2.3,2.3,0,0,0,6.618-11,2.12,2.12,0,0,0,5-11.637a2.511,2.511,0,0,0-1.885.69,2.635,2.635,0,0,0-.672,1.92H.817a3.774,3.774,0,0,1,1.138-2.856A4.219,4.219,0,0,1,5-12.973a4.054,4.054,0,0,1,2.821.936A3.193,3.193,0,0,1,8.859-9.545q0,1.89-2.408,4.5L3.023-1.327H9.448Z" transform="translate(712 4992)" fill="#1565c0"/>
        <path id="Trazado_14866" data-name="Trazado 14866" d="M11.32,0h-1.7L3.182-9.861V0h-1.7V-12.8h1.7l6.46,9.905V-12.8H11.32Zm2.312-4.843a5.617,5.617,0,0,1,.549-2.514A4.1,4.1,0,0,1,15.71-9.079a4.163,4.163,0,0,1,2.237-.606,4.01,4.01,0,0,1,3.142,1.345,5.174,5.174,0,0,1,1.2,3.577v.114a5.666,5.666,0,0,1-.532,2.492A4.038,4.038,0,0,1,20.237-.439a4.211,4.211,0,0,1-2.272.615,4,4,0,0,1-3.133-1.345,5.147,5.147,0,0,1-1.2-3.56Zm1.635.193A4.068,4.068,0,0,0,16-2.109a2.349,2.349,0,0,0,1.964.958,2.335,2.335,0,0,0,1.969-.971,4.449,4.449,0,0,0,.729-2.72,4.061,4.061,0,0,0-.743-2.536,2.361,2.361,0,0,0-1.973-.971A2.335,2.335,0,0,0,16-7.392,4.416,4.416,0,0,0,15.267-4.649ZM25.857-9.51,25.9-8.455a3.512,3.512,0,0,1,2.821-1.23,2.719,2.719,0,0,1,2.716,1.529,3.6,3.6,0,0,1,1.235-1.107,3.647,3.647,0,0,1,1.8-.422q3.129,0,3.182,3.313V0H36.026V-6.275A2.184,2.184,0,0,0,35.561-7.8,2.051,2.051,0,0,0,34-8.306a2.156,2.156,0,0,0-1.5.541A2.193,2.193,0,0,0,31.8-6.311V0H30.164V-6.231a1.814,1.814,0,0,0-2.03-2.074,2.175,2.175,0,0,0-2.188,1.362V0H24.319V-9.51Zm22.3,4.86a5.654,5.654,0,0,1-1,3.5A3.2,3.2,0,0,1,44.464.176,3.315,3.315,0,0,1,41.678-1.1L41.6,0H40.1V-13.5H41.73v5.036a3.3,3.3,0,0,1,2.716-1.222,3.221,3.221,0,0,1,2.72,1.31,5.824,5.824,0,0,1,.989,3.586Zm-1.626-.185A4.394,4.394,0,0,0,45.888-7.4a2.124,2.124,0,0,0-1.846-.905A2.387,2.387,0,0,0,41.73-6.812V-2.7A2.454,2.454,0,0,0,44.06-1.2a2.112,2.112,0,0,0,1.819-.905A4.672,4.672,0,0,0,46.529-4.834ZM54.8-8.051a4.873,4.873,0,0,0-.8-.062A2.143,2.143,0,0,0,51.829-6.75V0H50.2V-9.51h1.582l.026,1.1a2.532,2.532,0,0,1,2.268-1.274,1.661,1.661,0,0,1,.721.123ZM60.24.176a4.155,4.155,0,0,1-3.146-1.27,4.714,4.714,0,0,1-1.213-3.4v-.3a5.707,5.707,0,0,1,.541-2.527,4.217,4.217,0,0,1,1.512-1.74,3.8,3.8,0,0,1,2.1-.628,3.562,3.562,0,0,1,2.883,1.222,5.289,5.289,0,0,1,1.028,3.5v.677H57.507a3.38,3.38,0,0,0,.822,2.272,2.583,2.583,0,0,0,2,.866A2.832,2.832,0,0,0,61.787-1.5a3.666,3.666,0,0,0,1.046-.932l.993.773A3.993,3.993,0,0,1,60.24.176Zm-.2-8.525a2.169,2.169,0,0,0-1.652.716,3.482,3.482,0,0,0-.826,2.008h4.764v-.123a3.1,3.1,0,0,0-.668-1.92A2.042,2.042,0,0,0,60.038-8.35ZM75.463,0H73.828V-10.837l-3.278,1.2v-1.477l4.658-1.749h.255Z" transform="translate(780 4954)" fill="#1565c0"/>
        <path id="Trazado_9999" data-name="Trazado 9999" d="M4623,4975h192.336" transform="translate(-3932 -9)" fill="none" stroke="#039be5" stroke-width="1"/>
        <path id="Trazado_10000" data-name="Trazado 10000" d="M4623,4975h192.336" transform="translate(-3932 31)" fill="none" stroke="#039be5" stroke-width="1"/>
        <path id="Trazado_10001" data-name="Trazado 10001" d="M4900.338,5069.323l106.847-5.549" transform="translate(-4308)" fill="none" stroke="red" stroke-width="1"/>
        <path id="Polígono_1" data-name="Polígono 1" d="M4.443,0,8.886,7.519H0Z" transform="translate(705.605 5057.779) rotate(82)" fill="red"/>
        <path id="Trazado_14873" data-name="Trazado 14873" d="M3.138-3.618a5.246,5.246,0,0,1,.237-1.65,4.231,4.231,0,0,1,.9-1.343L5.423-7.8a2.655,2.655,0,0,0,.738-1.789,2.041,2.041,0,0,0-.483-1.443,1.823,1.823,0,0,0-1.406-.522,2.116,2.116,0,0,0-1.441.475A1.6,1.6,0,0,0,2.285-9.8H.659a2.961,2.961,0,0,1,1.015-2.3,3.8,3.8,0,0,1,2.6-.875,3.583,3.583,0,0,1,2.588.891,3.229,3.229,0,0,1,.927,2.444A4.416,4.416,0,0,1,6.363-6.611l-.958.948a2.951,2.951,0,0,0-.642,2.045ZM3.067-.826a.969.969,0,0,1,.242-.67.911.911,0,0,1,.716-.271.925.925,0,0,1,.721.271.959.959,0,0,1,.246.67.927.927,0,0,1-.246.661A.942.942,0,0,1,4.025.1a.928.928,0,0,1-.716-.262A.937.937,0,0,1,3.067-.826Zm8.569-2.792a5.246,5.246,0,0,1,.237-1.65,4.231,4.231,0,0,1,.9-1.343L13.922-7.8a2.655,2.655,0,0,0,.738-1.789,2.041,2.041,0,0,0-.483-1.443,1.823,1.823,0,0,0-1.406-.522,2.116,2.116,0,0,0-1.441.475A1.6,1.6,0,0,0,10.784-9.8H9.158a2.961,2.961,0,0,1,1.015-2.3,3.8,3.8,0,0,1,2.6-.875,3.583,3.583,0,0,1,2.588.891,3.229,3.229,0,0,1,.927,2.444,4.416,4.416,0,0,1-1.424,3.027l-.958.948a2.951,2.951,0,0,0-.642,2.045Zm-.07,2.792a.969.969,0,0,1,.242-.67.911.911,0,0,1,.716-.271.925.925,0,0,1,.721.271.959.959,0,0,1,.246.67.927.927,0,0,1-.246.661A.942.942,0,0,1,12.524.1a.928.928,0,0,1-.716-.262A.937.937,0,0,1,11.566-.826Zm8.569-2.792a5.246,5.246,0,0,1,.237-1.65,4.231,4.231,0,0,1,.9-1.343L22.421-7.8a2.655,2.655,0,0,0,.738-1.789,2.041,2.041,0,0,0-.483-1.443,1.823,1.823,0,0,0-1.406-.522,2.116,2.116,0,0,0-1.441.475A1.6,1.6,0,0,0,19.283-9.8H17.657a2.961,2.961,0,0,1,1.015-2.3,3.8,3.8,0,0,1,2.6-.875,3.583,3.583,0,0,1,2.588.891,3.229,3.229,0,0,1,.927,2.444,4.416,4.416,0,0,1-1.424,3.027l-.958.948a2.951,2.951,0,0,0-.642,2.045Zm-.07,2.792a.969.969,0,0,1,.242-.67.911.911,0,0,1,.716-.271.925.925,0,0,1,.721.271.959.959,0,0,1,.246.67.927.927,0,0,1-.246.661A.942.942,0,0,1,21.023.1a.928.928,0,0,1-.716-.262A.937.937,0,0,1,20.065-.826Z" transform="translate(717 5070)" fill="#1565c0"/>
        <path id="Trazado_10002" data-name="Trazado 10002" d="M4896.832,4933.531l92.779,9.471" transform="translate(-4308)" fill="none" stroke="#1565c0" stroke-width="1"/>
        <path id="Trazado_10003" data-name="Trazado 10003" d="M4896.832,5033.288l95.2-44.75" transform="translate(-4308)" fill="none" stroke="#1565c0" stroke-width="1"/>
        <path id="Trazado_10004" data-name="Trazado 10004" d="M4896.832,4988.538l91.416-33.057" transform="translate(-4308)" fill="none" stroke="#1565c0" stroke-width="1"/>
        <path id="Polígono_3" data-name="Polígono 3" d="M4.862,0,9.724,8.228H0Z" transform="matrix(-0.052, 0.999, -0.999, -0.052, 685.974, 4938.697)" fill="#1565c0"/>
        <path id="Trazado_14867" data-name="Trazado 14867" d="M11.32,0h-1.7L3.182-9.861V0h-1.7V-12.8h1.7l6.46,9.905V-12.8H11.32Zm2.312-4.843a5.617,5.617,0,0,1,.549-2.514A4.1,4.1,0,0,1,15.71-9.079a4.163,4.163,0,0,1,2.237-.606,4.01,4.01,0,0,1,3.142,1.345,5.174,5.174,0,0,1,1.2,3.577v.114a5.666,5.666,0,0,1-.532,2.492A4.038,4.038,0,0,1,20.237-.439a4.211,4.211,0,0,1-2.272.615,4,4,0,0,1-3.133-1.345,5.147,5.147,0,0,1-1.2-3.56Zm1.635.193A4.068,4.068,0,0,0,16-2.109a2.349,2.349,0,0,0,1.964.958,2.335,2.335,0,0,0,1.969-.971,4.449,4.449,0,0,0,.729-2.72,4.061,4.061,0,0,0-.743-2.536,2.361,2.361,0,0,0-1.973-.971A2.335,2.335,0,0,0,16-7.392,4.416,4.416,0,0,0,15.267-4.649ZM25.857-9.51,25.9-8.455a3.512,3.512,0,0,1,2.821-1.23,2.719,2.719,0,0,1,2.716,1.529,3.6,3.6,0,0,1,1.235-1.107,3.647,3.647,0,0,1,1.8-.422q3.129,0,3.182,3.313V0H36.026V-6.275A2.184,2.184,0,0,0,35.561-7.8,2.051,2.051,0,0,0,34-8.306a2.156,2.156,0,0,0-1.5.541A2.193,2.193,0,0,0,31.8-6.311V0H30.164V-6.231a1.814,1.814,0,0,0-2.03-2.074,2.175,2.175,0,0,0-2.188,1.362V0H24.319V-9.51Zm22.3,4.86a5.654,5.654,0,0,1-1,3.5A3.2,3.2,0,0,1,44.464.176,3.315,3.315,0,0,1,41.678-1.1L41.6,0H40.1V-13.5H41.73v5.036a3.3,3.3,0,0,1,2.716-1.222,3.221,3.221,0,0,1,2.72,1.31,5.824,5.824,0,0,1,.989,3.586Zm-1.626-.185A4.394,4.394,0,0,0,45.888-7.4a2.124,2.124,0,0,0-1.846-.905A2.387,2.387,0,0,0,41.73-6.812V-2.7A2.454,2.454,0,0,0,44.06-1.2a2.112,2.112,0,0,0,1.819-.905A4.672,4.672,0,0,0,46.529-4.834ZM54.8-8.051a4.873,4.873,0,0,0-.8-.062A2.143,2.143,0,0,0,51.829-6.75V0H50.2V-9.51h1.582l.026,1.1a2.532,2.532,0,0,1,2.268-1.274,1.661,1.661,0,0,1,.721.123ZM60.24.176a4.155,4.155,0,0,1-3.146-1.27,4.714,4.714,0,0,1-1.213-3.4v-.3a5.707,5.707,0,0,1,.541-2.527,4.217,4.217,0,0,1,1.512-1.74,3.8,3.8,0,0,1,2.1-.628,3.562,3.562,0,0,1,2.883,1.222,5.289,5.289,0,0,1,1.028,3.5v.677H57.507a3.38,3.38,0,0,0,.822,2.272,2.583,2.583,0,0,0,2,.866A2.832,2.832,0,0,0,61.787-1.5a3.666,3.666,0,0,0,1.046-.932l.993.773A3.993,3.993,0,0,1,60.24.176Zm-.2-8.525a2.169,2.169,0,0,0-1.652.716,3.482,3.482,0,0,0-.826,2.008h4.764v-.123a3.1,3.1,0,0,0-.668-1.92A2.042,2.042,0,0,0,60.038-8.35ZM78.5,0H70.119V-1.169l4.43-4.922a10.524,10.524,0,0,0,1.358-1.815,3.029,3.029,0,0,0,.374-1.446A2.3,2.3,0,0,0,75.674-11a2.12,2.12,0,0,0-1.617-.642,2.511,2.511,0,0,0-1.885.69,2.635,2.635,0,0,0-.672,1.92H69.873a3.774,3.774,0,0,1,1.138-2.856,4.219,4.219,0,0,1,3.045-1.09,4.054,4.054,0,0,1,2.821.936,3.193,3.193,0,0,1,1.037,2.492q0,1.89-2.408,4.5L72.079-1.327H78.5Z" transform="translate(780 4991)" fill="#1565c0"/>
        <path id="Polígono_4" data-name="Polígono 4" d="M4.862,0,9.724,8.228H0Z" transform="translate(680.17 4949.408) rotate(60)" fill="#1565c0"/>
        <path id="Polígono_5" data-name="Polígono 5" d="M4.862,0,9.724,8.228H0Z" transform="translate(687.743 4980.408) rotate(60)" fill="#1565c0"/>
      </g>
    </g>
  </g>
</svg>
