<svg xmlns="http://www.w3.org/2000/svg" width="1006.436" height="469.219" viewBox="0 0 1006.436 469.219">
  <g id="Grupo_27303" data-name="Grupo 27303" transform="translate(-154.866 -382.343)">
    <g id="Grupo_27282" data-name="Grupo 27282" transform="translate(-2086.171 114.685)">
      <g id="Grupo_27245" data-name="Grupo 27245" transform="translate(2286.41 393.337)">
        <path id="Trazado_14639" data-name="Trazado 14639" d="M2311.192,682.465l223.93-129.287a8.24,8.24,0,0,1,8.219-.013L2671.9,626.873a8.241,8.241,0,0,1,.051,14.27l-47.584,27.729a8.241,8.241,0,0,0-.012,14.234l27.155,15.882a8.241,8.241,0,0,1-.187,14.334L2495.8,798.909a8.24,8.24,0,0,1-8.1-.086L2311.186,696.735A8.241,8.241,0,0,1,2311.192,682.465Z" transform="translate(-2307.071 -479.706)" fill="#15325c" opacity="0.22" style="mix-blend-mode: multiply;isolation: isolate"/>
        <g id="Grupo_27243" data-name="Grupo 27243" transform="translate(336.777 141.847)">
          <path id="Trazado_14640" data-name="Trazado 14640" d="M2880.2,681.306l-.206-.137a1.273,1.273,0,0,1-.422.416L2815.4,718.63a1.2,1.2,0,0,1-.564.166,1.257,1.257,0,0,1-.7-.171L2797.82,709a1.23,1.23,0,0,1-.593-1.231l-.017-.006V696.8l8.3,5.6,9.326-5.386,46.992-27.126a1.251,1.251,0,0,1,1.249,0l5.859,3.385,11.229-3.551Z" transform="translate(-2797.208 -658.366)" fill="#d6edff"/>
          <path id="Trazado_14641" data-name="Trazado 14641" d="M2814.84,709.351v21.775a1.258,1.258,0,0,1-.7-.171l-16.325-9.622a1.23,1.23,0,0,1-.593-1.231l-.017-.006V709.135l8.3,5.6Z" transform="translate(-2797.208 -670.696)" fill="#bbe0fd"/>
          <path id="Trazado_14642" data-name="Trazado 14642" d="M2797.821,692.948l16.322,9.622a1.25,1.25,0,0,0,1.259.006l64.169-37.049a1.249,1.249,0,0,0,0-2.164l-16.494-9.523a1.249,1.249,0,0,0-1.25,0l-64,36.949A1.25,1.25,0,0,0,2797.821,692.948Z" transform="translate(-2797.206 -653.343)" fill="#fff"/>
          <path id="Trazado_14643" data-name="Trazado 14643" d="M2797.821,692.466l16.322,9.622a1.248,1.248,0,0,0,1.259.006l64.169-37.049a1.249,1.249,0,0,0,0-2.164l-16.494-9.523a1.252,1.252,0,0,0-1.25,0l-64,36.949A1.25,1.25,0,0,0,2797.821,692.466Z" transform="translate(-2797.206 -653.192)" fill="#fff"/>
        </g>
        <g id="Grupo_27244" data-name="Grupo 27244" transform="translate(311.5 115.168)">
          <path id="Trazado_14644" data-name="Trazado 14644" d="M2843.416,642.479l-.2-.137a1.282,1.282,0,0,1-.422.416L2778.618,679.8a1.2,1.2,0,0,1-.564.165,1.248,1.248,0,0,1-.7-.17l-16.325-9.622a1.231,1.231,0,0,1-.593-1.231l-.017-.006V657.977l8.305,5.6,9.326-5.386,46.99-27.126a1.25,1.25,0,0,1,1.249,0l5.86,3.385,11.229-3.551Z" transform="translate(-2760.42 -619.538)" fill="#d6edff"/>
          <path id="Trazado_14645" data-name="Trazado 14645" d="M2778.054,670.523V692.3a1.248,1.248,0,0,1-.7-.17l-16.325-9.622a1.231,1.231,0,0,1-.593-1.231l-.017-.006V670.307l8.305,5.6Z" transform="translate(-2760.42 -631.868)" fill="#bbe0fd"/>
          <path id="Trazado_14646" data-name="Trazado 14646" d="M2761.035,654.12l16.321,9.622a1.251,1.251,0,0,0,1.259.006l64.17-37.049a1.25,1.25,0,0,0,0-2.164l-16.494-9.523a1.25,1.25,0,0,0-1.25,0l-64,36.949A1.25,1.25,0,0,0,2761.035,654.12Z" transform="translate(-2760.42 -614.515)" fill="#fff"/>
          <path id="Trazado_14647" data-name="Trazado 14647" d="M2761.035,653.639l16.321,9.623a1.25,1.25,0,0,0,1.259.005l64.17-37.048a1.25,1.25,0,0,0,0-2.165l-16.494-9.523a1.253,1.253,0,0,0-1.25,0l-64,36.949A1.25,1.25,0,0,0,2761.035,653.639Z" transform="translate(-2760.42 -614.364)" fill="#fff"/>
        </g>
        <path id="Trazado_14648" data-name="Trazado 14648" d="M2676.043,538.3v27.47l-.027-.018a8.122,8.122,0,0,1-4.062,6.452l-47.582,27.731a8.248,8.248,0,0,0-.018,14.243l14.98,8.761,5.427-11.853,10.774,1.968v23.139a8.308,8.308,0,0,1,0,1.833v.054l-.009-.01a8.064,8.064,0,0,1-4.205,6.308L2639,651.164l-2.373,1.294-2.857,1.581-3.343,1.851L2495.8,729.981a8.254,8.254,0,0,1-6.56.6,8.442,8.442,0,0,1-1.537-.692l-91.73-53.054-3.334-1.931-2.866-1.654-2.354-1.375L2311.191,627.8a8.125,8.125,0,0,1-3.936-5.472v-.009a8.477,8.477,0,0,1-.026-3.3v-.027c0-.009.008-.009.008-.018l-.162-24.685,14.027,13.516,101.012-58.329,113-65.248a8.305,8.305,0,0,1,8.231,0L2657.711,549.8l8.078-10.361Z" transform="translate(-2307.072 -458.137)" fill="#d6edff"/>
        <path id="Trazado_14649" data-name="Trazado 14649" d="M2489.24,579.687v181.1a8.447,8.447,0,0,1-1.537-.692l-91.73-53.054-3.334-1.931-2.866-1.654-2.354-1.375-76.229-44.077a8.125,8.125,0,0,1-3.936-5.472v-.009a8.477,8.477,0,0,1-.026-3.3V649.2c0-.009.008-.009.008-.019l-.162-24.684,14.027,13.516,101.012-58.329Z" transform="translate(-2307.072 -488.346)" fill="#bbe0fd"/>
        <path id="Trazado_14650" data-name="Trazado 14650" d="M2311.192,577.143l223.93-129.286a8.24,8.24,0,0,1,8.219-.012L2671.9,521.55a8.241,8.241,0,0,1,.051,14.27l-47.584,27.73a8.241,8.241,0,0,0-.012,14.234l27.155,15.882a8.241,8.241,0,0,1-.187,14.334L2495.8,693.587a8.242,8.242,0,0,1-8.1-.086L2311.186,591.413A8.241,8.241,0,0,1,2311.192,577.143Z" transform="translate(-2307.071 -446.752)" fill="#fff"/>
        <path id="Trazado_14651" data-name="Trazado 14651" d="M2728.9,718.532l.337,24.815,24.089-13.256-.337-24.815Z" transform="translate(-2439.059 -527.641)" fill="#fff"/>
        <path id="Trazado_14652" data-name="Trazado 14652" d="M2703.846,736.971v25l7.26-4v-25Z" transform="translate(-2431.218 -536.309)" fill="#fff"/>
      </g>
      <path id="Trazado_14653" data-name="Trazado 14653" d="M2500.228,545.265l-50.992,29.07a1.741,1.741,0,0,0-.01,3.018l40.669,23.553a2.853,2.853,0,0,0,2.859,0l51.164-29.539a1.472,1.472,0,0,0,0-2.55l-40.847-23.547A2.859,2.859,0,0,0,2500.228,545.265Z" transform="translate(-64.869 -84.122)" fill="#15325c" opacity="0.33" style="mix-blend-mode: multiply;isolation: isolate"/>
      <path id="Trazado_14654" data-name="Trazado 14654" d="M2523.559,533.219l-27.649,16.074-2.8-1.327a3.1,3.1,0,0,1,1.114-1.112l24.793-14.427a2.848,2.848,0,0,1,2.641-.119Z" transform="translate(-78.87 -80.102)" fill="#a34b73"/>
      <g id="Grupo_27246" data-name="Grupo 27246" transform="translate(2344.848 276.036)">
        <path id="Trazado_14655" data-name="Trazado 14655" d="M2540.327,569.436V565l-3.137,1.958-31.563-18.195a2.383,2.383,0,0,0-2.371-.006l-40.2,22.917-3.141-1.851v4.9l.1-.076a1.428,1.428,0,0,0,.677.886l33.939,19.656a2.381,2.381,0,0,0,2.385,0l42.7-24.65A1.215,1.215,0,0,0,2540.327,569.436Z" transform="translate(-2413.333 -361.27)" fill="#183561"/>
        <path id="Trazado_14656" data-name="Trazado 14656" d="M2503.24,541.766l-42.553,24.259a1.452,1.452,0,0,0-.009,2.518l33.939,19.655a2.385,2.385,0,0,0,2.386,0l42.7-24.651a1.228,1.228,0,0,0,0-2.128l-34.088-19.65A2.385,2.385,0,0,0,2503.24,541.766Z" transform="translate(-2413.345 -359.082)" fill="#d6effb"/>
        <path id="Trazado_14657" data-name="Trazado 14657" d="M2525.865,529.388l-3.342,25.042-22.729,18.529-3.4-1.914a2.54,2.54,0,0,1-1.45-2.3l.047-23.064a3.067,3.067,0,0,1,.418-1.55,3.1,3.1,0,0,1,1.114-1.112L2521.32,528.6a2.847,2.847,0,0,1,2.641-.119Z" transform="translate(-2424.294 -354.939)" fill="#183561"/>
        <path id="Trazado_14658" data-name="Trazado 14658" d="M2530.8,528.393l-.077,27.908-28.943,16.716.026-27.753Z" transform="translate(-2426.433 -354.996)" fill="#3c6a9e"/>
        <path id="Trazado_14659" data-name="Trazado 14659" d="M2544.454,276.84l6.71,3.614-10.037,134.338-138.97,90.33-5.514-2.968a8.6,8.6,0,0,1-4.523-7.573V366.109a6.657,6.657,0,0,1,3.295-5.747l142.452-83.4a6.721,6.721,0,0,1,6.585-.118Z" transform="translate(-2392.121 -276.036)" fill="#a9d1ea"/>
        <path id="Trazado_14660" data-name="Trazado 14660" d="M2555.734,282.465V422.207l-149.006,84.926V369.707Z" transform="translate(-2396.691 -278.047)" fill="#d6effb"/>
        <path id="Trazado_14661" data-name="Trazado 14661" d="M2554.756,307.117V419.142l-17.636,10.05-5.3,3.022-36.21,20.637-20.058,11.429-31.493,17.952L2413.47,499.67V389.84l29.945-17.531,16.209-9.492,25.576-14.972,30.771-18.021,19.163-11.219,13.989-8.187Z" transform="translate(-2398.801 -285.761)" fill="#183561"/>
      </g>
      <g id="Grupo_27248" data-name="Grupo 27248" transform="translate(2399.595 470.914)">
        <path id="Trazado_14662" data-name="Trazado 14662" d="M2647.824,606.344l-54.154-31.551a3.442,3.442,0,0,0-3.449-.01l-116.7,67.112a3.443,3.443,0,0,0-.005,5.967l50.964,29.436a10.792,10.792,0,0,0,10.8,0l112.533-65a3.442,3.442,0,0,0,.011-5.957Z" transform="translate(-2471.798 -564.246)" fill="#15325c" opacity="0.33" style="mix-blend-mode: multiply;isolation: isolate"/>
        <path id="Trazado_14663" data-name="Trazado 14663" d="M2649.285,594.519l-57.292-30.238-117.347,63.866a5.058,5.058,0,0,0-2.637,4.275l-.063,1.872a5.111,5.111,0,0,0,2.553,4.6l51.752,29.891a7.349,7.349,0,0,0,7.352,0l113.6-65.611a4.358,4.358,0,0,0,2.177-3.855Z" transform="translate(-2471.843 -561.103)" fill="#a9d1ea"/>
        <path id="Trazado_14664" data-name="Trazado 14664" d="M2647.824,591.674l-54.154-31.551a3.442,3.442,0,0,0-3.449-.01l-116.7,67.112a3.443,3.443,0,0,0-.005,5.967l50.964,29.436a10.793,10.793,0,0,0,10.8,0l112.533-65a3.443,3.443,0,0,0,.011-5.957Z" transform="translate(-2471.798 -559.656)" fill="#d6effb"/>
        <path id="Trazado_14665" data-name="Trazado 14665" d="M2644.4,600.518l-51.6-30.061-104.539,60.121,52.045,30.061Z" transform="translate(-2476.95 -563.035)" fill="#77b8e0"/>
        <g id="Grupo_27247" data-name="Grupo 27247" transform="translate(21.354 13.14)">
          <path id="Trazado_14666" data-name="Trazado 14666" d="M2656.143,613.812l-11.9,6.846-9.008-5.18,11.9-6.846Z" transform="translate(-2544.288 -588.12)" fill="#d6edff"/>
          <path id="Trazado_14667" data-name="Trazado 14667" d="M2672.04,622.954l-11.9,6.846-9.008-5.181,11.9-6.846Z" transform="translate(-2549.262 -590.981)" fill="#d6edff"/>
          <path id="Trazado_14668" data-name="Trazado 14668" d="M2636.031,625.379l-11.9,6.845-9.009-5.18,11.9-6.845Z" transform="translate(-2537.996 -591.739)" fill="#d6edff"/>
          <path id="Trazado_14669" data-name="Trazado 14669" d="M2620.134,616.236l-11.9,6.846-9.009-5.18,11.9-6.846Z" transform="translate(-2533.022 -588.879)" fill="#d6edff"/>
          <path id="Trazado_14670" data-name="Trazado 14670" d="M2570.679,670.887l11.9-6.846,9.008,5.181-11.9,6.846Z" transform="translate(-2524.091 -605.457)" fill="#d6edff"/>
          <path id="Trazado_14671" data-name="Trazado 14671" d="M2590.791,652.082l39.543-22.741,9.008,5.18L2599.8,657.262Z" transform="translate(-2530.384 -594.6)" fill="#d6edff"/>
          <path id="Trazado_14672" data-name="Trazado 14672" d="M2655.343,603.947l11.768-6.767,8.949,5.214-11.709,6.734Z" transform="translate(-2550.582 -584.537)" fill="#d6edff"/>
          <path id="Trazado_14673" data-name="Trazado 14673" d="M2554.782,661.744l11.9-6.846,9.008,5.18-11.9,6.846Z" transform="translate(-2519.116 -602.597)" fill="#d6edff"/>
          <path id="Trazado_14674" data-name="Trazado 14674" d="M2639.446,594.786l11.838-6.808,8.95,5.214-11.78,6.775Z" transform="translate(-2545.608 -581.658)" fill="#d6edff"/>
          <path id="Trazado_14675" data-name="Trazado 14675" d="M2600.023,627.8l-11.9,6.845-9.009-5.18,11.9-6.845Z" transform="translate(-2526.73 -592.498)" fill="#d6edff"/>
          <path id="Trazado_14676" data-name="Trazado 14676" d="M2615.92,636.945l-11.9,6.844-9.008-5.18,11.9-6.844Z" transform="translate(-2531.704 -595.358)" fill="#d6edff"/>
          <path id="Trazado_14677" data-name="Trazado 14677" d="M2559,641.035l11.9-6.847,9.008,5.181-11.9,6.846Z" transform="translate(-2520.436 -596.117)" fill="#d6edff"/>
          <path id="Trazado_14678" data-name="Trazado 14678" d="M2574.894,650.178l11.9-6.846,9.007,5.181-11.9,6.846Z" transform="translate(-2525.41 -598.977)" fill="#d6edff"/>
          <path id="Trazado_14679" data-name="Trazado 14679" d="M2534.669,673.311l11.9-6.846,9.007,5.181-11.9,6.846Z" transform="translate(-2512.824 -606.216)" fill="#d6edff"/>
          <path id="Trazado_14680" data-name="Trazado 14680" d="M2550.566,682.453l11.9-6.846,9.008,5.18-11.9,6.846Z" transform="translate(-2517.798 -609.076)" fill="#d6edff"/>
          <path id="Trazado_14681" data-name="Trazado 14681" d="M2518.773,664.169l11.9-6.846,9.008,5.18-11.9,6.846Z" transform="translate(-2507.85 -603.355)" fill="#d6edff"/>
          <path id="Trazado_14682" data-name="Trazado 14682" d="M2502.876,655.026l11.9-6.846,9.008,5.18-11.9,6.846Z" transform="translate(-2502.876 -600.495)" fill="#d6edff"/>
          <path id="Trazado_14683" data-name="Trazado 14683" d="M2680.248,618.288l-9.008-5.18,11.7-6.727,8.95,5.214Z" transform="translate(-2555.555 -587.416)" fill="#d6edff"/>
          <path id="Trazado_14684" data-name="Trazado 14684" d="M2632.557,590.806l-9.008-5.18,11.9-6.846.726.418,8.228,4.793Z" transform="translate(-2540.634 -578.78)" fill="#d6edff"/>
          <path id="Trazado_14685" data-name="Trazado 14685" d="M2522.988,643.46l11.9-6.846,9.008,5.18L2532,648.64Z" transform="translate(-2509.169 -596.875)" fill="#d6edff"/>
          <path id="Trazado_14686" data-name="Trazado 14686" d="M2564.013,630.226l-11.9,6.847-9.008-5.18,11.905-6.847Z" transform="translate(-2515.462 -593.256)" fill="#d6edff"/>
          <path id="Trazado_14687" data-name="Trazado 14687" d="M2538.885,652.6l11.9-6.846,9.008,5.18-11.9,6.846Z" transform="translate(-2514.143 -599.736)" fill="#d6edff"/>
          <path id="Trazado_14688" data-name="Trazado 14688" d="M2584.125,618.66l-11.9,6.845-9.008-5.18,11.9-6.845Z" transform="translate(-2521.756 -589.637)" fill="#d6edff"/>
          <path id="Trazado_14689" data-name="Trazado 14689" d="M2624.35,595.527l-11.9,6.846-9.008-5.18,11.9-6.846Z" transform="translate(-2534.34 -582.399)" fill="#d6edff"/>
          <path id="Trazado_14690" data-name="Trazado 14690" d="M2604.237,607.094l-11.9,6.846-9.008-5.18,11.9-6.846Z" transform="translate(-2528.048 -586.018)" fill="#d6edff"/>
          <path id="Trazado_14691" data-name="Trazado 14691" d="M2640.246,604.669l-11.9,6.846-9.008-5.181,11.9-6.846Z" transform="translate(-2539.314 -585.259)" fill="#d6edff"/>
        </g>
      </g>
      <g id="Grupo_27249" data-name="Grupo 27249" transform="translate(2547.546 459.306)">
        <path id="Trazado_14692" data-name="Trazado 14692" d="M2687.229,553.334a4.77,4.77,0,0,0,1.134,1.915c3.617,4.127,14.907,10.538,23.73,12.566,3.772.88,7.091.95,9.175-.3,7.092-4.255,5.673-17.02-8.51-22.693S2685.812,546.242,2687.229,553.334Z" transform="translate(-2687.122 -542.762)" fill="#183561"/>
        <path id="Trazado_14693" data-name="Trazado 14693" d="M2688.93,560.773c3.617,4.127,14.907,10.537,23.73,12.566C2706.915,559.95,2695.1,559.794,2688.93,560.773Z" transform="translate(-2687.687 -548.287)" fill="#15325c" opacity="0.33" style="mix-blend-mode: multiply;isolation: isolate"/>
        <path id="Trazado_14694" data-name="Trazado 14694" d="M2705.165,546.97l-12.609-.229C2699.86,543.787,2705.165,546.97,2705.165,546.97Z" transform="translate(-2688.822 -543.614)" fill="#15325c" opacity="0.33" style="mix-blend-mode: multiply;isolation: isolate"/>
      </g>
      <g id="Grupo_27250" data-name="Grupo 27250" transform="translate(2405.074 368.849)">
        <path id="Trazado_14695" data-name="Trazado 14695" d="M2551.229,411.114l-.035,6-41.325,23.942.253-6.168Z" transform="translate(-2489.188 -411.114)" fill="#fec400"/>
        <path id="Trazado_14696" data-name="Trazado 14696" d="M2521.132,483.9l-.036,6-41.324,23.941.253-6.167Z" transform="translate(-2479.771 -433.889)" fill="#fff"/>
        <path id="Trazado_14697" data-name="Trazado 14697" d="M2495.883,450.039v5.817l-15.533,9.006v-5.814Z" transform="translate(-2479.953 -423.293)" fill="#f02098"/>
        <path id="Trazado_14698" data-name="Trazado 14698" d="M2553.267,454.443v5.817l-15.533,9.006v-5.814Z" transform="translate(-2497.907 -424.671)" fill="#f02098"/>
        <path id="Trazado_14699" data-name="Trazado 14699" d="M2560.584,469.574v5.817l-15.533,9.006v-5.814Z" transform="translate(-2500.197 -429.405)" fill="#fff"/>
        <path id="Trazado_14700" data-name="Trazado 14700" d="M2586.773,454.443v5.817l-15.533,9.006v-5.814Z" transform="translate(-2508.391 -424.671)" fill="#fff"/>
        <path id="Trazado_14701" data-name="Trazado 14701" d="M2516.471,450.039,2480.4,470.863v6.021l36.135-21.029Z" transform="translate(-2479.969 -423.293)" fill="#fff"/>
        <path id="Trazado_14702" data-name="Trazado 14702" d="M2516.471,468.472,2480.4,489.3v6.021l36.135-21.029Z" transform="translate(-2479.969 -429.06)" fill="#fff"/>
      </g>
      <g id="Grupo_27252" data-name="Grupo 27252" transform="translate(2498.621 401.951)">
        <ellipse id="Elipse_1443" data-name="Elipse 1443" cx="25.503" cy="14.851" rx="25.503" ry="14.851" transform="translate(0.029 20.019)" fill="#15325c" opacity="0.33" style="mix-blend-mode: multiply;isolation: isolate"/>
        <path id="Trazado_14703" data-name="Trazado 14703" d="M2615.96,482.025c0,8.2,11.418,14.852,25.5,14.852a41.6,41.6,0,0,0,10.085-1.207q.894-.224,1.749-.485.9-.275,1.749-.588a27.244,27.244,0,0,0,5.247-2.556c4.145-2.641,6.674-6.157,6.674-10.017v-.008h0v-6.657h-2.713a17.994,17.994,0,0,0-3.966-3.35,27.248,27.248,0,0,0-5.247-2.556q-.852-.313-1.749-.588-.857-.261-1.749-.485a41.591,41.591,0,0,0-10.085-1.207c-9.968,0-18.6,3.33-22.8,8.185h-2.707v6.484C2615.96,481.9,2615.96,481.965,2615.96,482.025Z" transform="translate(-2615.93 -461.756)" fill="#e8a302"/>
        <ellipse id="Elipse_1444" data-name="Elipse 1444" cx="25.503" cy="14.851" rx="25.503" ry="14.851" transform="translate(0 0.101) rotate(-0.113)" fill="#fec400"/>
        <ellipse id="Elipse_1445" data-name="Elipse 1445" cx="21.574" cy="12.563" rx="21.574" ry="12.563" transform="translate(3.958 2.338)" fill="#ffd561"/>
        <g id="Grupo_27251" data-name="Grupo 27251" transform="translate(19.323 3.898)">
          <path id="Trazado_14704" data-name="Trazado 14704" d="M2645.786,485.251a1.749,1.749,0,0,1-.272-3.477l6.875-1.09-2.377-13.673a1.749,1.749,0,1,1,3.446-.6l2.986,17.17-10.382,1.647A1.707,1.707,0,0,1,2645.786,485.251Z" transform="translate(-2644.039 -464.962)" fill="#fff"/>
        </g>
      </g>
      <g id="Grupo_27254" data-name="Grupo 27254" transform="translate(2442.176 574.672)">
        <ellipse id="Elipse_1446" data-name="Elipse 1446" cx="25.503" cy="14.851" rx="25.503" ry="14.851" transform="translate(0.029 20.019)" fill="#15325c" opacity="0.33" style="mix-blend-mode: multiply;isolation: isolate"/>
        <path id="Trazado_14705" data-name="Trazado 14705" d="M2533.811,733.4c0,8.2,11.418,14.851,25.5,14.851a41.558,41.558,0,0,0,10.085-1.207q.894-.224,1.749-.485.9-.274,1.749-.587a27.223,27.223,0,0,0,5.246-2.556c4.146-2.641,6.675-6.157,6.675-10.017v-.008h0v-6.658h-2.713a18,18,0,0,0-3.967-3.35,27.238,27.238,0,0,0-5.246-2.556q-.852-.313-1.749-.587-.856-.261-1.749-.485a41.559,41.559,0,0,0-10.085-1.207c-9.969,0-18.6,3.33-22.8,8.184h-2.706v6.485C2533.813,733.277,2533.811,733.339,2533.811,733.4Z" transform="translate(-2533.782 -713.13)" fill="#e8a302"/>
        <ellipse id="Elipse_1447" data-name="Elipse 1447" cx="25.503" cy="14.851" rx="25.503" ry="14.851" transform="matrix(1, -0.002, 0.002, 1, 0, 0.101)" fill="#fec400"/>
        <ellipse id="Elipse_1448" data-name="Elipse 1448" cx="21.574" cy="12.563" rx="21.574" ry="12.563" transform="translate(3.958 2.338)" fill="#ffd561"/>
        <g id="Grupo_27253" data-name="Grupo 27253" transform="translate(19.323 3.898)">
          <path id="Trazado_14706" data-name="Trazado 14706" d="M2563.638,736.625a1.749,1.749,0,0,1-.272-3.477l6.875-1.091-2.377-13.672a1.749,1.749,0,1,1,3.446-.6l2.986,17.169-10.382,1.648A1.8,1.8,0,0,1,2563.638,736.625Z" transform="translate(-2561.891 -716.335)" fill="#fff"/>
        </g>
      </g>
      <g id="Grupo_27265" data-name="Grupo 27265" transform="translate(2300.273 440.368)">
        <path id="Trazado_14707" data-name="Trazado 14707" d="M2327.247,555.273v40.776l2.46,1.406,66.437-42.182,2.46-38.667-2.46-1.406Z" transform="translate(-2327.247 -515.2)" fill="#183561"/>
        <path id="Trazado_14708" data-name="Trazado 14708" d="M2330.828,557.32V598.1l68.9-40.776V517.247Z" transform="translate(-2328.368 -515.841)" fill="#a9d1ea"/>
        <g id="Grupo_27264" data-name="Grupo 27264" transform="translate(8.863 20.064)">
          <path id="Trazado_14709" data-name="Trazado 14709" d="M2352.638,571.8l2.039-1.194V567.01l-2.039,1.194-4.387,2.569-8.1,4.745v3.591l8.1-4.745Z" transform="translate(-2340.146 -551.475)" fill="#fec400"/>
          <g id="Grupo_27255" data-name="Grupo 27255" transform="translate(0 25.83)">
            <path id="Trazado_14710" data-name="Trazado 14710" d="M2352.191,585.584v-3.591l-3.94,2.307-8.1,4.745v3.591l8.1-4.745Z" transform="translate(-2340.146 -581.993)" fill="#fff"/>
          </g>
          <path id="Trazado_14711" data-name="Trazado 14711" d="M2348.25,603.438l-8.1,4.745v3.591l8.1-4.745,4.387-2.569,6.182-3.62v-3.591l-6.182,3.62Z" transform="translate(-2340.146 -560.937)" fill="#fec400"/>
          <g id="Grupo_27256" data-name="Grupo 27256" transform="translate(8.454 25.734)">
            <path id="Trazado_14712" data-name="Trazado 14712" d="M2368.471,581.853l-5.062,2.964-6.922,4.052-4.038,2.364v3.591l4.038-2.364,6.922-4.052,5.062-2.964Z" transform="translate(-2352.449 -581.853)" fill="#fff"/>
          </g>
          <g id="Grupo_27257" data-name="Grupo 27257" transform="translate(0 35.762)">
            <path id="Trazado_14713" data-name="Trazado 14713" d="M2347.495,596.447l-7.349,4.3v3.591l7.349-4.3Z" transform="translate(-2340.146 -596.447)" fill="#fff"/>
          </g>
          <g id="Grupo_27258" data-name="Grupo 27258" transform="translate(13.15 14.282)">
            <path id="Trazado_14714" data-name="Trazado 14714" d="M2359.284,579.679l6.264-3.667,8.328-4.877,4.026-2.357v-3.591l-4.026,2.357-8.328,4.877-6.264,3.667Z" transform="translate(-2359.284 -565.187)" fill="#77b8e0"/>
          </g>
          <g id="Grupo_27259" data-name="Grupo 27259" transform="translate(33.001)">
            <path id="Trazado_14715" data-name="Trazado 14715" d="M2391.888,555.788l-3.712,2.173v3.591l3.712-2.172,20.042-11.387V544.4Z" transform="translate(-2388.175 -544.401)" fill="#fff"/>
          </g>
          <g id="Grupo_27260" data-name="Grupo 27260" transform="translate(25.58 14.716)">
            <path id="Trazado_14716" data-name="Trazado 14716" d="M2377.375,576.189v3.591l2.161-1.266,5.186-3.036,3.786-2.216,6.781-3.853v-3.591l-6.781,3.853-3.786,2.216-5.186,3.036Z" transform="translate(-2377.375 -565.818)" fill="#fff"/>
          </g>
          <g id="Grupo_27261" data-name="Grupo 27261" transform="translate(44.73 7.182)">
            <path id="Trazado_14717" data-name="Trazado 14717" d="M2405.244,565.277l12.027-6.833v-3.591l-12.027,6.833Z" transform="translate(-2405.244 -554.853)" fill="#fff"/>
          </g>
          <g id="Grupo_27262" data-name="Grupo 27262" transform="translate(39.791 14.364)">
            <path id="Trazado_14718" data-name="Trazado 14718" d="M2398.058,578.535l16.965-9.638v-3.591l-16.965,9.638Z" transform="translate(-2398.058 -565.306)" fill="#77b8e0"/>
          </g>
          <g id="Grupo_27263" data-name="Grupo 27263" transform="translate(19.779 24.704)">
            <path id="Trazado_14719" data-name="Trazado 14719" d="M2382.08,583.617l-5.186,3.036-7.962,4.663v3.591l7.962-4.663,5.186-3.036,3.786-2.215,1.843-1.047v-3.591l-1.843,1.047Z" transform="translate(-2368.932 -580.354)" fill="#fff"/>
          </g>
        </g>
      </g>
      <g id="Grupo_27268" data-name="Grupo 27268" transform="translate(2323.865 492.313)">
        <g id="Grupo_27266" data-name="Grupo 27266" transform="translate(0 24.575)">
          <path id="Trazado_14720" data-name="Trazado 14720" d="M2362.982,656.284l31.33-18.345a2.831,2.831,0,0,1,2.83-.017l32.279,18.379a2.83,2.83,0,0,1,.015,4.91l-31.774,18.345a2.833,2.833,0,0,1-2.83,0L2363,661.176A2.83,2.83,0,0,1,2362.982,656.284Z" transform="translate(-2361.583 -630.003)" fill="#15325c" opacity="0.33" style="mix-blend-mode: multiply;isolation: isolate"/>
          <path id="Trazado_14721" data-name="Trazado 14721" d="M2437.181,647.48l-24.889,14.37-.261,14.52,24.889-14.148Z" transform="translate(-2377.368 -633.11)" fill="#a9d1ea"/>
          <path id="Trazado_14722" data-name="Trazado 14722" d="M2376.188,640.936l24.541-14.37,25.237,14.37-24.889,14.37Z" transform="translate(-2366.152 -626.566)" fill="#bbe0fd"/>
          <path id="Trazado_14723" data-name="Trazado 14723" d="M2391.869,643.837l13.66-8,14.047,8-13.854,8Z" transform="translate(-2371.059 -629.468)" fill="#15325c"/>
          <path id="Trazado_14724" data-name="Trazado 14724" d="M2376.188,662.221V647.48l24.889,14.37-.261,14.52Z" transform="translate(-2366.152 -633.11)" fill="#77b8e0"/>
        </g>
        <g id="Grupo_27267" data-name="Grupo 27267" transform="translate(18.906)">
          <path id="Trazado_14725" data-name="Trazado 14725" d="M2416.728,623.475a17.454,17.454,0,0,1-5.326,5.225c-5.543,4.455-15.525,3.366-18.322-1.993a12.517,12.517,0,0,1-3.9-10.535,12.382,12.382,0,0,0,4.4,5.527c-4.572-3.9-1.658-15.325-1.658-15.325a18.026,18.026,0,0,0,5.744,9.044,40.188,40.188,0,0,1,.386-14.956,17.379,17.379,0,0,1,5.661-9.664,27.321,27.321,0,0,0,4.672,19.042c3.869-4.639,2.931-11.472,2.931-11.472s5.577,10.7,3.015,18.858a12.531,12.531,0,0,0,5.527-4.454A19.263,19.263,0,0,1,2416.728,623.475Z" transform="translate(-2389.099 -590.8)" fill="#77b8e0"/>
          <path id="Trazado_14726" data-name="Trazado 14726" d="M2416.728,627.875a17.458,17.458,0,0,1-5.326,5.226,12.6,12.6,0,0,1-4.656,2.278c-5.309,1.406-11.54-.218-13.666-4.27a12.517,12.517,0,0,1-3.9-10.535,12.382,12.382,0,0,0,4.4,5.527c-4.572-3.9-1.658-15.325-1.658-15.325a18.192,18.192,0,0,0,5.744,9.044,40.189,40.189,0,0,1,.386-14.956C2398.038,621.243,2406.444,628.11,2416.728,627.875Z" transform="translate(-2389.099 -595.201)" fill="#77b8e0" opacity="0.33" style="mix-blend-mode: multiply;isolation: isolate"/>
          <path id="Trazado_14727" data-name="Trazado 14727" d="M2406.746,638.07c-5.309,1.407-11.54-.218-13.666-4.27a12.517,12.517,0,0,1-3.9-10.535,12.382,12.382,0,0,0,4.4,5.527c-4.572-3.9-1.658-15.325-1.658-15.325a16.953,16.953,0,0,0,2.026,4.69C2395.508,629.881,2402.09,635.508,2406.746,638.07Z" transform="translate(-2389.099 -597.892)" fill="#77b8e0" opacity="0.33" style="mix-blend-mode: multiply;isolation: isolate"/>
        </g>
      </g>
      <g id="Grupo_27269" data-name="Grupo 27269" transform="translate(2352.864 502.972)">
        <path id="Trazado_14728" data-name="Trazado 14728" d="M2405.416,623.266a9.049,9.049,0,0,0,2.764,2.711c2.876,2.312,8.055,1.747,9.507-1.034a6.5,6.5,0,0,0,2.024-5.466,6.425,6.425,0,0,1-2.286,2.868c2.373-2.025.86-7.951.86-7.951a9.349,9.349,0,0,1-2.98,4.692,20.843,20.843,0,0,0-.2-7.759,9.024,9.024,0,0,0-2.937-5.015,14.178,14.178,0,0,1-2.424,9.881c-2.008-2.407-1.521-5.952-1.521-5.952s-2.894,5.552-1.564,9.784a6.506,6.506,0,0,1-2.868-2.311A9.993,9.993,0,0,0,2405.416,623.266Z" transform="translate(-2403.787 -606.312)" fill="#77b8e0"/>
        <path id="Trazado_14729" data-name="Trazado 14729" d="M2406.158,625.549a9.055,9.055,0,0,0,2.764,2.711,6.525,6.525,0,0,0,2.416,1.182c2.754.73,5.987-.113,7.091-2.216a6.494,6.494,0,0,0,2.024-5.466,6.423,6.423,0,0,1-2.285,2.868c2.373-2.025.86-7.951.86-7.951a9.438,9.438,0,0,1-2.98,4.692,20.85,20.85,0,0,0-.2-7.76C2415.856,622.108,2411.493,625.671,2406.158,625.549Z" transform="translate(-2404.529 -608.595)" fill="#77b8e0" opacity="0.33" style="mix-blend-mode: multiply;isolation: isolate"/>
        <path id="Trazado_14730" data-name="Trazado 14730" d="M2413.7,630.839c2.755.73,5.987-.113,7.091-2.216a6.5,6.5,0,0,0,2.024-5.466,6.422,6.422,0,0,1-2.285,2.868c2.373-2.025.86-7.951.86-7.951a8.784,8.784,0,0,1-1.052,2.433C2419.527,626.59,2416.111,629.51,2413.7,630.839Z" transform="translate(-2406.887 -609.992)" fill="#77b8e0" opacity="0.33" style="mix-blend-mode: multiply;isolation: isolate"/>
      </g>
      <g id="Grupo_27270" data-name="Grupo 27270" transform="translate(2334.157 414.976)">
        <path id="Trazado_14731" data-name="Trazado 14731" d="M2379.049,525.353h-2.488V508.466l51.626-30.221,1.256,2.148-50.394,29.5Z" transform="translate(-2376.561 -478.245)" fill="#183561"/>
      </g>
      <g id="Grupo_27271" data-name="Grupo 27271" transform="translate(2485.33 350.685)">
        <path id="Trazado_14732" data-name="Trazado 14732" d="M2597.369,428.062l-.8-1.4,35.027-19.9V384.679h1.611V407.7Z" transform="translate(-2596.573 -384.679)" fill="#183561"/>
      </g>
      <g id="Grupo_27272" data-name="Grupo 27272" transform="translate(2241.037 333.215)">
        <path id="Trazado_14733" data-name="Trazado 14733" d="M2731.838,374.134c.868-3.931,2.875-6.833,5.816-7.761,3.171-1,6.773.5,9.911,3.686,1.471-5.229,4.375-9.044,8.472-10.338,8.877-2.8,19.976,7.282,24.79,22.526q.437,1.383.784,2.757c4.745,1.443,9.569,7.115,11.987,14.769a29.871,29.871,0,0,1,1.444,9.89l.5.29a12.085,12.085,0,0,1,6.073,10.484h0a12.086,12.086,0,0,1-18.1,10.484l-60.043-34.437A12.085,12.085,0,0,1,2717.4,386h0A12.1,12.1,0,0,1,2731.838,374.134Z" transform="translate(-2390.088 -359.253)" fill="#fff"/>
        <path id="Trazado_14734" data-name="Trazado 14734" d="M2292.1,498.87c-.634-2.877-2.1-5-4.256-5.68-2.321-.733-4.957.367-7.253,2.7-1.076-3.826-3.2-6.618-6.2-7.565-6.5-2.052-14.618,5.329-18.141,16.484q-.321,1.013-.574,2.018c-3.473,1.055-7,5.207-8.772,10.808a21.841,21.841,0,0,0-1.056,7.237l-.37.212a8.844,8.844,0,0,0-4.443,7.672h0a8.844,8.844,0,0,0,13.244,7.672l43.94-25.2a8.845,8.845,0,0,0,4.444-7.672h0A8.854,8.854,0,0,0,2292.1,498.87Z" transform="translate(-2241.037 -399.531)" fill="#fff"/>
      </g>
      <g id="Grupo_27276" data-name="Grupo 27276" transform="translate(2369.147 374.456)">
        <path id="Trazado_14735" data-name="Trazado 14735" d="M2447.249,426.844l3.227-1.889v-5.682l-3.227,1.889-6.942,4.065-12.823,7.507v5.682l12.823-7.507Z" transform="translate(-2427.484 -419.273)" fill="#fec400"/>
        <g id="Grupo_27273" data-name="Grupo 27273" transform="translate(0 16.289)">
          <path id="Trazado_14736" data-name="Trazado 14736" d="M2446.542,448.661V442.98l-6.235,3.651-12.823,7.507v5.682l12.823-7.507Z" transform="translate(-2427.484 -442.98)" fill="#fff"/>
        </g>
        <path id="Trazado_14737" data-name="Trazado 14737" d="M2440.307,476.91l-12.823,7.507V490.1l12.823-7.507,6.942-4.065,9.782-5.727v-5.682l-9.782,5.727Z" transform="translate(-2427.484 -434.244)" fill="#fec400"/>
        <g id="Grupo_27274" data-name="Grupo 27274" transform="translate(13.376 16.137)">
          <path id="Trazado_14738" data-name="Trazado 14738" d="M2472.3,442.758l-8.009,4.69-10.952,6.412-6.389,3.741v5.682l6.389-3.741,10.952-6.412,8.009-4.69Z" transform="translate(-2446.951 -442.758)" fill="#fff"/>
        </g>
        <g id="Grupo_27275" data-name="Grupo 27275" transform="translate(0 32.003)">
          <path id="Trazado_14739" data-name="Trazado 14739" d="M2439.112,465.85l-11.627,6.807v5.682l11.627-6.807Z" transform="translate(-2427.484 -465.85)" fill="#fff"/>
        </g>
      </g>
      <g id="Grupo_27280" data-name="Grupo 27280" transform="translate(2492.803 285.864)">
        <path id="Trazado_14740" data-name="Trazado 14740" d="M2607.451,319.668V378l1.648,1.318,49.761-30.647,1.647-57.011-1.647-1.318Z" transform="translate(-2607.451 -290.339)" fill="#183561"/>
        <path id="Trazado_14741" data-name="Trazado 14741" d="M2661.257,292.257v58.329l-51.408,29.329V321.587Z" transform="translate(-2608.201 -290.939)" fill="#a9d1ea"/>
        <path id="Trazado_14742" data-name="Trazado 14742" d="M2661.257,292.257V304.45l-51.408,29.329V321.587Z" transform="translate(-2608.201 -290.939)" fill="#3c6a9e"/>
        <g id="Grupo_27279" data-name="Grupo 27279" transform="translate(7.557 24.386)">
          <path id="Trazado_14743" data-name="Trazado 14743" d="M2666.749,325.83l-.024,4.056-27.932,16.183.171-4.169Z" transform="translate(-2624.814 -325.83)" fill="#fec400"/>
          <path id="Trazado_14744" data-name="Trazado 14744" d="M2646.405,375.03l-.024,4.056-27.932,16.183.171-4.169Z" transform="translate(-2618.449 -341.224)" fill="#fec400"/>
          <g id="Grupo_27277" data-name="Grupo 27277" transform="translate(0.269 18.078)">
            <path id="Trazado_14745" data-name="Trazado 14745" d="M2629.339,352.141v3.932l-10.5,6.088v-3.93Z" transform="translate(-2618.84 -352.141)" fill="#77b8e0"/>
          </g>
          <g id="Grupo_27278" data-name="Grupo 27278" transform="translate(26.92 20.124)">
            <path id="Trazado_14746" data-name="Trazado 14746" d="M2668.127,355.117v3.932l-10.5,6.088v-3.93Z" transform="translate(-2657.628 -355.117)" fill="#77b8e0"/>
          </g>
          <path id="Trazado_14747" data-name="Trazado 14747" d="M2673.073,365.345v3.932l-10.5,6.088v-3.93Z" transform="translate(-2632.255 -338.194)" fill="#fff"/>
          <path id="Trazado_14748" data-name="Trazado 14748" d="M2643.255,352.141l-24.379,14.076v4.07l24.425-14.214Z" transform="translate(-2618.582 -334.062)" fill="#fff"/>
          <path id="Trazado_14749" data-name="Trazado 14749" d="M2643.255,364.6l-24.379,14.075v4.07l24.425-14.214Z" transform="translate(-2618.582 -337.961)" fill="#fff"/>
        </g>
      </g>
      <ellipse id="Elipse_1449" data-name="Elipse 1449" cx="29.151" cy="16.975" rx="29.151" ry="16.975" transform="translate(2531.441 550.319)" fill="#15325c" opacity="0.33" style="mix-blend-mode: multiply;isolation: isolate"/>
      <g id="Grupo_27281" data-name="Grupo 27281" transform="translate(2528.255 424.345)">
        <path id="Trazado_14750" data-name="Trazado 14750" d="M2676.877,698.511l7.1,2.661v4.205a2.688,2.688,0,0,1-1.354,2.333l-.4.231a2.685,2.685,0,0,1-2.689-.013c-2.452-1.434-7.526-4.428-8.856-5.426C2668.894,701.173,2669.338,696.294,2676.877,698.511Z" transform="translate(-2662.411 -556.356)" fill="#183561"/>
        <path id="Trazado_14751" data-name="Trazado 14751" d="M2727.386,696.331l6.468-3.947,3.312,2.592a2.688,2.688,0,0,1,1,2.5l-.067.46a2.686,2.686,0,0,1-1.668,2.109c-2.641,1.048-8.125,3.2-9.732,3.63C2724.561,704.257,2720.993,700.9,2727.386,696.331Z" transform="translate(-2679.294 -554.617)" fill="#183561"/>
        <path id="Trazado_14752" data-name="Trazado 14752" d="M2709.793,594.861v38.8l15.632,28.16s-3.082,6.209-7.649,4.435c-1.641-2.217-19.623-27.162-20.4-31.819s-6.984-26.386-6.984-26.386V594.861Z" transform="translate(-2668.854 -524.103)" fill="#15325c"/>
        <path id="Trazado_14753" data-name="Trazado 14753" d="M2679.2,594.861s-5.432,23.282-4.656,37.251,1.574,32.373,2.461,35.477c2.661,4.435,9.068,1.774,9.068,1.774l-.111-37.251,12.639-37.251Z" transform="translate(-2663.872 -524.103)" fill="#15325c"/>
        <path id="Trazado_14754" data-name="Trazado 14754" d="M2696.308,521.716c2.649-.931,5.363-.135,7.864,6.982s5.354,19.858,5.354,19.858l.6,24.028-5.63.594-3.3-23.694-6.974-17.539S2691.011,523.577,2696.308,521.716Z" transform="translate(-2669.75 -501.118)" fill="#ec69b9"/>
        <path id="Trazado_14755" data-name="Trazado 14755" d="M2671.882,616.571s-2.231.851-2.587,2.438,1.744,1.2,1.744,1.2c.061,4.986,1.74,4.672,1.74,4.672,3.174.712,3.53-.875,3.53-.875.985-1.7-.072-7.373-.072-7.373Z" transform="translate(-2662.24 -530.895)" fill="#f9beae"/>
        <path id="Trazado_14756" data-name="Trazado 14756" d="M2668.6,540.148l9.778,39.813s20.922,3.587,26.353-12.134l-4.483-14.143-6.353-30.5a7.662,7.662,0,0,0-2.983-3.3,5.714,5.714,0,0,0-3.565-.78,5.9,5.9,0,0,0-3.339,1.5l-13.068,11.892a7.832,7.832,0,0,0-2.339,7.641Z" transform="translate(-2661.965 -500.391)" fill="#f02098"/>
        <path id="Trazado_14757" data-name="Trazado 14757" d="M2669.885,540.856c2.759-.515,5.32.687,6.7,8.1s2.254,20.443,2.254,20.443l-3.083,23.837-5.655-.274.364-23.92-4.21-18.4S2664.365,541.885,2669.885,540.856Z" transform="translate(-2661.204 -507.172)" fill="#ec69b9"/>
        <path id="Trazado_14758" data-name="Trazado 14758" d="M2662.424,502.327s2.9,19.517,9.917,15.975,6.836-12.951,6.836-12.951l-6.834-5.432Z" transform="translate(-2660.102 -494.396)" fill="#f9beae"/>
        <path id="Trazado_14759" data-name="Trazado 14759" d="M2678.03,518.869l1.181,8.117s6.126.351,7.944-2.979l-1.686-6.944Z" transform="translate(-2664.986 -499.76)" fill="#f9beae"/>
        <path id="Trazado_14760" data-name="Trazado 14760" d="M2667.577,505.921a2.694,2.694,0,0,1-2.887-3.238s-4.637-.713-5.48-4.185,1.84-6.487,1.84-6.487l2.037.818s9.492-3.091,13.852,1.89,2.86,16.113,2.86,16.113l-4.206,1.021-5.175-5.047Z" transform="translate(-2659.045 -491.881)" fill="#052754"/>
        <path id="Trazado_14761" data-name="Trazado 14761" d="M2669.367,512.971a2.884,2.884,0,1,0,2.123-3.483A2.884,2.884,0,0,0,2669.367,512.971Z" transform="translate(-2662.249 -497.364)" fill="#f9beae"/>
      </g>
    </g>
    <g id="Grupo_27298" data-name="Grupo 27298" transform="translate(-1626.249 -801.964)">
      <g id="Grupo_27283" data-name="Grupo 27283" transform="translate(2274.645 1270.263)">
        <path id="Trazado_14762" data-name="Trazado 14762" d="M2677.354,1475.859l-51.851,30.218a8.977,8.977,0,0,0-.01,15.508l29.586,17.31a8.976,8.976,0,0,1-.205,15.616L2485.4,1647.775a8.958,8.958,0,0,1-8.82-.1l-192.341-111.237a8.978,8.978,0,0,1,.01-15.547l244.006-140.88a9,9,0,0,1,8.957-.019l84.591,48.5,3.874,2.219,4.858,2.784,3.884,2.229,42.875,24.582A8.979,8.979,0,0,1,2677.354,1475.859Z" transform="translate(-2279.759 -1299.955)" fill="#15325c" opacity="0.22" style="mix-blend-mode: multiply;isolation: isolate"/>
        <path id="Trazado_14763" data-name="Trazado 14763" d="M2681.813,1378.008v29.927l-.03-.02a8.819,8.819,0,0,1-4.429,7.029l-41.8,24.367-10.037,5.851a8.991,8.991,0,0,0-.02,15.528l16.317,9.54,5.919-12.909,11.741,2.142v25.215a9.149,9.149,0,0,1,0,2v.058l-.01-.009a8.772,8.772,0,0,1-4.586,6.873l-13.425,7.389-2.58,1.412-3.115,1.724-3.642,2.015-19.558,10.767-3.894,2.142-4.867,2.677-3.894,2.142-23.063,12.685-91.425,50.322a9,9,0,0,1-7.145.662,9.658,9.658,0,0,1-1.675-.759l-99.962-57.809-3.631-2.1-2.853-1.645-.273-.156-2.56-1.5-1.062-.613-4.867-2.814-3.895-2.249-73.239-42.358a8.819,8.819,0,0,1-4.294-5.958v-.01a9.3,9.3,0,0,1-.029-3.592v-.03c0-.009.009-.009.009-.019l-.165-25.049v-.585a.03.03,0,0,1,0-.039l-.01-1.226.107.107,15.178,14.612,110.067-63.552,123.133-71.1a9.038,9.038,0,0,1,8.966,0l124.622,71.448,8.8-11.293,10.972-1.218Z" transform="translate(-2279.759 -1290.656)" fill="#d6edff"/>
        <path id="Trazado_14764" data-name="Trazado 14764" d="M2478.267,1403.209v197.345a9.667,9.667,0,0,1-1.675-.759l-99.962-57.809-3.631-2.1-2.853-1.645-.273-.156-2.56-1.5-1.062-.614-4.867-2.814-3.895-2.249-73.239-42.358a8.819,8.819,0,0,1-4.294-5.958v-.01a9.3,9.3,0,0,1-.029-3.592v-.03c0-.009.009-.009.009-.019l-.165-25.049v-.584l-.01-1.265.107.107,15.178,14.613,110.067-63.552Z" transform="translate(-2279.759 -1303.679)" fill="#bbe0fd"/>
        <path id="Trazado_14765" data-name="Trazado 14765" d="M2677.354,1382.8l-51.851,30.218a8.977,8.977,0,0,0-.01,15.508l29.586,17.31a8.976,8.976,0,0,1-.205,15.615L2485.4,1554.712a8.954,8.954,0,0,1-8.82-.1l-192.341-111.236a8.977,8.977,0,0,1,.01-15.547l244.006-140.88a9,9,0,0,1,8.957-.019l84.591,48.5,3.874,2.219,4.858,2.784,3.884,2.229,42.875,24.582A8.979,8.979,0,0,1,2677.354,1382.8Z" transform="translate(-2279.759 -1285.749)" fill="#fff"/>
        <path id="Trazado_14766" data-name="Trazado 14766" d="M2652.49,1528.622l.367,27.039,26.249-14.445-.367-27.039Z" transform="translate(-2336.656 -1320.618)" fill="#fff"/>
        <path id="Trazado_14767" data-name="Trazado 14767" d="M2630.349,1543.006v27.241l7.911-4.354v-27.241Z" transform="translate(-2333.277 -1324.354)" fill="#fff"/>
      </g>
      <g id="Grupo_27284" data-name="Grupo 27284" transform="translate(2644.727 1364.017)">
        <path id="Trazado_14768" data-name="Trazado 14768" d="M2716.513,1444.2v19.4l.1-.075a6.086,6.086,0,0,0,3,4.31l65.179,37.63a6.153,6.153,0,0,0,3.128.828,6.23,6.23,0,0,0,3.071-.828l65.253-37.779a6.126,6.126,0,0,0,3.081-5.37V1444.2l-13.681,6.654-54.551-31.412a6.2,6.2,0,0,0-6.189.009l-42.144,24.3-10.936,6.3Z" transform="translate(-2716.511 -1399.786)" fill="#bbe0fd"/>
        <path id="Trazado_14769" data-name="Trazado 14769" d="M2716.513,1448.733v19.4l.1-.075a6.086,6.086,0,0,0,3,4.31l65.179,37.63a6.152,6.152,0,0,0,3.128.828v-23.352l-45.159-39.184-10.936,6.3Z" transform="translate(-2716.511 -1404.314)" fill="#d6edff"/>
        <path id="Trazado_14770" data-name="Trazado 14770" d="M2791.1,1397.907l65.133,37.5a6.2,6.2,0,0,1,.013,10.737l-65.247,37.775a6.2,6.2,0,0,1-6.206,0l-65.178-37.631a6.2,6.2,0,0,1,0-10.739l65.293-37.644A6.2,6.2,0,0,1,2791.1,1397.907Z" transform="translate(-2716.51 -1396.497)" fill="#fff"/>
        <path id="Trazado_14771" data-name="Trazado 14771" d="M2791.1,1397.219l65.133,37.5a6.2,6.2,0,0,1,.013,10.738l-65.247,37.776a6.2,6.2,0,0,1-6.206,0l-65.178-37.63a6.2,6.2,0,0,1,0-10.739l65.293-37.644A6.2,6.2,0,0,1,2791.1,1397.219Z" transform="translate(-2716.51 -1396.392)" fill="#fff"/>
      </g>
      <g id="Grupo_27299" data-name="Grupo 27299" transform="translate(2190.124 1547.017)">
        <path id="Trazado_14768-2" data-name="Trazado 14768" d="M2716.513,1444.2v19.4l.1-.075a6.086,6.086,0,0,0,3,4.31l65.179,37.63a6.153,6.153,0,0,0,3.128.828,6.23,6.23,0,0,0,3.071-.828l65.253-37.779a6.126,6.126,0,0,0,3.081-5.37V1444.2l-13.681,6.654-54.551-31.412a6.2,6.2,0,0,0-6.189.009l-42.144,24.3-10.936,6.3Z" transform="translate(-2716.511 -1399.786)" fill="#bbe0fd"/>
        <path id="Trazado_14769-2" data-name="Trazado 14769" d="M2716.513,1448.733v19.4l.1-.075a6.086,6.086,0,0,0,3,4.31l65.179,37.63a6.152,6.152,0,0,0,3.128.828v-23.352l-45.159-39.184-10.936,6.3Z" transform="translate(-2716.511 -1404.314)" fill="#d6edff"/>
        <path id="Trazado_14770-2" data-name="Trazado 14770" d="M2791.1,1397.907l65.133,37.5a6.2,6.2,0,0,1,.013,10.737l-65.247,37.775a6.2,6.2,0,0,1-6.206,0l-65.178-37.631a6.2,6.2,0,0,1,0-10.739l65.293-37.644A6.2,6.2,0,0,1,2791.1,1397.907Z" transform="translate(-2716.51 -1396.497)" fill="#fff"/>
        <path id="Trazado_14771-2" data-name="Trazado 14771" d="M2791.1,1397.219l65.133,37.5a6.2,6.2,0,0,1,.013,10.738l-65.247,37.776a6.2,6.2,0,0,1-6.206,0l-65.178-37.63a6.2,6.2,0,0,1,0-10.739l65.293-37.644A6.2,6.2,0,0,1,2791.1,1397.219Z" transform="translate(-2716.51 -1396.392)" fill="#fff"/>
      </g>
      <g id="Grupo_27300" data-name="Grupo 27300" transform="translate(2200.719 1520.59)">
        <path id="Trazado_14768-3" data-name="Trazado 14768" d="M2716.513,1440.41v16.518l.088-.063a5.183,5.183,0,0,0,2.552,3.67l55.508,32.047a5.241,5.241,0,0,0,2.664.705,5.306,5.306,0,0,0,2.615-.705l55.572-32.174a5.217,5.217,0,0,0,2.624-4.573V1440.41l-11.652,5.667-46.457-26.752a5.282,5.282,0,0,0-5.271.008l-35.891,20.7-9.313,5.367Z" transform="translate(-2716.511 -1402.581)" fill="#bbe0fd"/>
        <path id="Trazado_14769-3" data-name="Trazado 14769" d="M2716.513,1448.666v16.518l.088-.063a5.183,5.183,0,0,0,2.552,3.67l55.508,32.047a5.239,5.239,0,0,0,2.664.705v-19.887l-38.459-33.37-9.313,5.367Z" transform="translate(-2716.511 -1410.838)" fill="#d6edff"/>
        <path id="Trazado_14770-3" data-name="Trazado 14770" d="M2780.03,1397.785l55.469,31.936a5.279,5.279,0,0,1,.011,9.144l-55.566,32.171a5.281,5.281,0,0,1-5.285,0l-55.508-32.048a5.279,5.279,0,0,1,0-9.146l55.606-32.059A5.279,5.279,0,0,1,2780.03,1397.785Z" transform="translate(-2716.51 -1396.584)" fill="#fff"/>
        <path id="Trazado_14771-3" data-name="Trazado 14771" d="M2780.03,1397.1l55.469,31.935a5.28,5.28,0,0,1,.011,9.145l-55.566,32.171a5.279,5.279,0,0,1-5.285,0L2719.15,1438.3a5.28,5.28,0,0,1,0-9.146l55.606-32.059A5.279,5.279,0,0,1,2780.03,1397.1Z" transform="translate(-2716.51 -1396.392)" fill="#fff"/>
      </g>
      <path id="Trazado_14772" data-name="Trazado 14772" d="M2679.85,1351.618l-96.039,56.786-6.445-10.884,89.867-53.135,3.875,2.219,4.858,2.784Z" transform="translate(-50.544 -24.436)" fill="#77b8e0"/>
      <path id="Trazado_14773" data-name="Trazado 14773" d="M2605.207,1200.521c.944-4.283,3.133-7.445,6.337-8.456,3.456-1.092,7.381.546,10.8,4.016,1.6-5.7,4.766-9.855,9.23-11.265,9.673-3.055,21.767,7.935,27.013,24.546q.475,1.508.854,3c5.172,1.572,10.429,7.753,13.062,16.092a32.54,32.54,0,0,1,1.573,10.777l.551.316a13.169,13.169,0,0,1,6.617,11.423h0a13.17,13.17,0,0,1-19.721,11.424l-65.426-37.524a13.17,13.17,0,0,1-6.617-11.424h0A13.184,13.184,0,0,1,2605.207,1200.521Z" transform="translate(-52.392 0)" fill="#fff"/>
      <path id="Trazado_14774" data-name="Trazado 14774" d="M2288.492,1324.829c-.525-2.379-1.741-4.136-3.52-4.7-1.919-.606-4.1.3-6,2.231-.89-3.164-2.648-5.473-5.126-6.256-5.373-1.7-12.09,4.407-15,13.632q-.264.838-.474,1.669c-2.872.873-5.792,4.305-7.255,8.938a18.073,18.073,0,0,0-.873,5.985l-.306.175a7.315,7.315,0,0,0-3.676,6.345h0a7.315,7.315,0,0,0,10.954,6.345l36.338-20.841a7.315,7.315,0,0,0,3.676-6.345h0A7.322,7.322,0,0,0,2288.492,1324.829Z" transform="translate(0 -20.076)" fill="#fff"/>
      <g id="Grupo_27285" data-name="Grupo 27285" transform="translate(2359.358 1339.179)">
        <path id="Trazado_14775" data-name="Trazado 14775" d="M2494.219,1500.921,2379.733,1435.5l113.045-68.421,1.256.751,113.23,67.644Zm-104.885-65.541,104.87,59.925,103.46-59.9L2492.8,1372.759Z" transform="translate(-2379.733 -1367.079)" fill="#77b8e0"/>
      </g>
      <path id="Trazado_14776" data-name="Trazado 14776" d="M2650.454,1508v27.687l-3.894,2.142-4.868,2.677-3.894,2.142V1515.3l-.2-.117-109.562-63.28,6.328-10.962Z" transform="translate(-43.013 -39.175)" fill="#77b8e0"/>
      <path id="Trazado_14777" data-name="Trazado 14777" d="M2493.914,1454.2l-1.645.954-107.692,62.2-.428.243v26.753l-.273-.156-2.56-1.5-1.061-.614-4.867-2.813-3.894-2.249v-26.723l.448-.253,115.646-66.8,4.683,8.109Z" transform="translate(-19.117 -39.526)" fill="#77b8e0"/>
      <path id="Trazado_14778" data-name="Trazado 14778" d="M2676.927,1349.789l-90.782,53.69-2.483-4.2L2672.069,1347Z" transform="translate(-51.504 -24.836)" fill="#f1249a"/>
      <path id="Trazado_14779" data-name="Trazado 14779" d="M2647.517,1511.2v27.58l-4.868,2.677v-27.454l-.107-.058L2534.3,1451.44l2.434-4.216Z" transform="translate(-43.97 -40.134)" fill="#ffd561"/>
      <path id="Trazado_14780" data-name="Trazado 14780" d="M2489.3,1453.737l-107.916,62.316-.428.253v26.733l-4.867-2.813V1513.5l.438-.253,110.34-63.728Z" transform="translate(-19.818 -40.485)" fill="#f1249a"/>
      <path id="Trazado_14781" data-name="Trazado 14781" d="M2670.228,1519.79l-12.656,7.788v27.259l12.656-6.815Z" transform="translate(-62.787 -51.212)" fill="#77b8e0" opacity="0.39" style="mix-blend-mode: multiply;isolation: isolate"/>
      <path id="Trazado_14782" data-name="Trazado 14782" d="M2371.492,1522.087l12.656,7.788v26.285l-12.656-6.815Z" transform="translate(-19.117 -51.562)" fill="#77b8e0" opacity="0.39" style="mix-blend-mode: multiply;isolation: isolate"/>
      <g id="Grupo_27289" data-name="Grupo 27289" transform="translate(2658.604 1298.209)">
        <g id="Grupo_27286" data-name="Grupo 27286" transform="translate(0 62.724)">
          <path id="Trazado_14783" data-name="Trazado 14783" d="M2735.181,1438.042l51.337-30.059a4.636,4.636,0,0,1,4.637-.028l52.889,30.115a4.638,4.638,0,0,1,.024,8.047L2792,1476.176a4.635,4.635,0,0,1-4.637,0l-52.162-30.116A4.637,4.637,0,0,1,2735.181,1438.042Z" transform="translate(-2732.887 -1394.981)" fill="#15325c" opacity="0.33" style="mix-blend-mode: multiply;isolation: isolate"/>
          <path id="Trazado_14784" data-name="Trazado 14784" d="M2841.128,1420.541l-40.782,23.546-.427,23.792L2840.7,1444.7Z" transform="translate(-2743.12 -1396.995)" fill="#a9d1ea"/>
          <path id="Trazado_14785" data-name="Trazado 14785" d="M2752.293,1416.3l40.213-23.546,41.352,23.546-40.782,23.546Z" transform="translate(-2735.849 -1392.753)" fill="#bbe0fd"/>
          <path id="Trazado_14786" data-name="Trazado 14786" d="M2773.129,1418.18l22.383-13.106,23.017,13.106-22.7,13.106Z" transform="translate(-2739.03 -1394.634)" fill="#15325c"/>
          <path id="Trazado_14787" data-name="Trazado 14787" d="M2752.293,1444.7v-24.155l40.783,23.546-.427,23.792Z" transform="translate(-2735.849 -1396.995)" fill="#77b8e0"/>
        </g>
        <rect id="Rectángulo_6425" data-name="Rectángulo 6425" width="11.228" height="34.245" transform="translate(50.1 50.525)" fill="#15325c"/>
        <path id="Trazado_14788" data-name="Trazado 14788" d="M2798.638,1394.49l19.648-20.771,2.246,3.93L2799.76,1400.1" transform="translate(-2742.924 -1327.123)" fill="#15325c"/>
        <g id="Grupo_27287" data-name="Grupo 27287" transform="translate(62.45 26.947)">
          <path id="Trazado_14789" data-name="Trazado 14789" d="M2840.833,1367.653a17.113,17.113,0,1,1-17.123-17.122A17.095,17.095,0,0,1,2840.833,1367.653Z" transform="translate(-2806.588 -1350.531)" fill="#77b8e0"/>
          <path id="Trazado_14790" data-name="Trazado 14790" d="M2840.074,1373.379a17.125,17.125,0,0,1-33.486-5.053c0-.572.028-1.134.084-1.69a17.081,17.081,0,0,1,6.372-11.693C2812.657,1373.02,2827.533,1374.659,2840.074,1373.379Z" transform="translate(-2806.588 -1351.205)" fill="#77b8e0" opacity="0.24" style="mix-blend-mode: multiply;isolation: isolate"/>
          <path id="Trazado_14791" data-name="Trazado 14791" d="M2835.179,1383.148a17.124,17.124,0,0,1-28.591-12.715c0-.572.028-1.134.084-1.69C2809.872,1380.7,2823.054,1384.608,2835.179,1383.148Z" transform="translate(-2806.588 -1353.311)" fill="#77b8e0" opacity="0.24" style="mix-blend-mode: multiply;isolation: isolate"/>
        </g>
        <g id="Grupo_27288" data-name="Grupo 27288" transform="translate(28.767)">
          <path id="Trazado_14792" data-name="Trazado 14792" d="M2821.291,1345.957a27.211,27.211,0,1,1-27.227-27.228A27.179,27.179,0,0,1,2821.291,1345.957Z" transform="translate(-2766.837 -1318.729)" fill="#77b8e0"/>
          <path id="Trazado_14793" data-name="Trazado 14793" d="M2820.086,1355.062a27.231,27.231,0,0,1-53.249-8.034,26.721,26.721,0,0,1,.133-2.687,27.16,27.16,0,0,1,10.133-18.6C2776.487,1354.491,2800.143,1357.1,2820.086,1355.062Z" transform="translate(-2766.837 -1319.8)" fill="#77b8e0" opacity="0.24" style="mix-blend-mode: multiply;isolation: isolate"/>
          <path id="Trazado_14794" data-name="Trazado 14794" d="M2812.3,1370.6a27.229,27.229,0,0,1-45.465-20.219,26.723,26.723,0,0,1,.133-2.687C2772.059,1366.706,2793.02,1372.918,2812.3,1370.6Z" transform="translate(-2766.837 -1323.15)" fill="#77b8e0" opacity="0.24" style="mix-blend-mode: multiply;isolation: isolate"/>
        </g>
      </g>
      <ellipse id="Elipse_1450" data-name="Elipse 1450" cx="31.764" cy="18.497" rx="31.764" ry="18.497" transform="translate(2301.183 1401.405)" fill="#15325c" opacity="0.33" style="mix-blend-mode: multiply;isolation: isolate"/>
      <g id="Grupo_27290" data-name="Grupo 27290" transform="translate(2309.704 1248.56)">
        <path id="Trazado_14795" data-name="Trazado 14795" d="M2412.553,1274.845s-.147-2.913,1.452-4.092,2.194,1.36,2.194,1.36c5.6-2.387,6.08-.355,6.08-.355,2.358,3.2.759,4.377.759,4.377-1.419,1.941-8.277,3.551-8.277,3.551Z" transform="translate(-2335.088 -1261.708)" fill="#f9beae"/>
        <path id="Trazado_14796" data-name="Trazado 14796" d="M2403.145,1273.695l-22.346,14.691s-19.744-1.706-28.06.056l3.044,9.264,1.036,3.161s25.339-.411,28.244-2.659c2.739-2.135,20.282-16.362,22.237-17.966a.088.088,0,0,1,.057-.042.412.412,0,0,0,.068-.055l.058-.042Z" transform="translate(-2325.958 -1262.205)" fill="#23477c"/>
        <path id="Trazado_14797" data-name="Trazado 14797" d="M2368.771,1458.321c.623-2.052-6.731-7.5-6.731-7.5l-9.254-1.414c-2.309,4.12-2.205,5.588-.472,6.707,12.184,6.11,14.859,4.682,14.859,4.682S2368.148,1460.374,2368.771,1458.321Z" transform="translate(-2325.698 -1289.028)" fill="#15325c"/>
        <path id="Trazado_14798" data-name="Trazado 14798" d="M2347.793,1469.641c.624-2.052-6.73-7.5-6.73-7.5l-9.254-1.415c-2.308,4.12-2.2,5.589-.472,6.708,12.183,6.11,14.858,4.682,14.858,4.682S2347.17,1471.693,2347.793,1469.641Z" transform="translate(-2322.495 -1290.755)" fill="#15325c"/>
        <path id="Trazado_14799" data-name="Trazado 14799" d="M2360.3,1353.465l1.511,38.654-1.61,42.7s-2.185,2.491-10.911,1.234l-1.834-36.783-10.066-56.484Z" transform="translate(-2323.615 -1272.752)" fill="#f1249a"/>
        <path id="Trazado_14800" data-name="Trazado 14800" d="M2345.721,1363.875l-5.008,83.493s-2.182,2.494-10.91,1.247l-4.41-84.74Z" transform="translate(-2321.784 -1275.971)" fill="#f1249a"/>
        <path id="Trazado_14801" data-name="Trazado 14801" d="M2323.111,1309.927v45.732s23.718,10.605,35.928-6.707l-1.017-51.869a9.364,9.364,0,0,0-2.592-4.772,6.978,6.978,0,0,0-4.006-1.952,7.2,7.2,0,0,0-4.4.823l-18.937,10.349a9.569,9.569,0,0,0-4.979,8.4Z" transform="translate(-2321.435 -1264.739)" fill="#15325c"/>
        <path id="Trazado_14802" data-name="Trazado 14802" d="M2365.285,1327.3s-.147-2.912,1.451-4.092,2.195,1.361,2.195,1.361c5.6-2.388,6.08-.356,6.08-.356,2.358,3.2.759,4.377.759,4.377-1.42,1.941-8.277,3.551-8.277,3.551Z" transform="translate(-2327.873 -1269.715)" fill="#f9beae"/>
        <path id="Trazado_14803" data-name="Trazado 14803" d="M2326.823,1305.42c6.846-.365,7.117,10.577,7.117,10.577l1.408,16.26,22.577-8.99,3.27,6.091s-13.927,8.184-24.025,13.951a8.414,8.414,0,0,1-12.423-5.637c-1.562-7.708-3.364-17.179-3.555-20.707C2320.7,1307.769,2323.4,1305.609,2326.823,1305.42Z" transform="translate(-2321.134 -1267.046)" fill="#23477c"/>
        <path id="Trazado_14804" data-name="Trazado 14804" d="M2347.778,1297.175s-7.174,2.18-10.29-1.252v-18.17l1.444,1.458,7.91,7.984.714,7.638Z" transform="translate(-2323.63 -1262.824)" fill="#f9beae"/>
        <path id="Trazado_14805" data-name="Trazado 14805" d="M2347.816,1295.1c-5.362-2.084-8.529-6.636-8.625-15.622l7.91,7.984Z" transform="translate(-2323.89 -1263.087)" fill="#f9beae" style="mix-blend-mode: multiply;isolation: isolate"/>
        <path id="Trazado_14806" data-name="Trazado 14806" d="M2351.392,1267.193s8.469,22.563-1.127,22.939-14.975-9.783-14.975-9.783l4.08-9.851Z" transform="translate(-2323.294 -1261.212)" fill="#f9beae"/>
        <path id="Trazado_14807" data-name="Trazado 14807" d="M2352.17,1262.364c-4.574-5.016-9.466,0-9.466,0-10.748.591-21.861,13.192-6.566,22.752v-2.359l1.573-2.051c3.314-.707,1.918-6.539,1.918-6.539C2351.875,1274.906,2356.744,1267.381,2352.17,1262.364Z" transform="translate(-2322.279 -1260.135)" fill="#052754"/>
        <path id="Trazado_14808" data-name="Trazado 14808" d="M2339.363,1282.049c1.366,1.312,1.689,3.194.72,4.2s-2.86.76-4.226-.552-1.689-3.193-.72-4.2S2338,1280.737,2339.363,1282.049Z" transform="translate(-2323.186 -1263.301)" fill="#f9beae"/>
      </g>
      <g id="Grupo_27291" data-name="Grupo 27291" transform="translate(2436.513 1479.287)">
        <path id="Trazado_14809" data-name="Trazado 14809" d="M2548.14,1569.442l-.241.141-38.437,22.193-.242-.141-38.432-22.193,11.709-6.859,26.424-15.47,27.342,15.567,11.639,6.626Z" transform="translate(-2470.788 -1534.67)" fill="#15325c" opacity="0.33" style="mix-blend-mode: multiply;isolation: isolate"/>
        <path id="Trazado_14810" data-name="Trazado 14810" d="M2509.462,1566.257l-.242,13.48-.162,9.082-38.27-21.986v-9.288l11.709-6.859Z" transform="translate(-2470.788 -1535.215)" fill="#183561"/>
        <path id="Trazado_14811" data-name="Trazado 14811" d="M2554.8,1557.425l0,.277-.163,9.148-38.678,21.986.162-9.082.242-13.48,26.8-15.475Z" transform="translate(-2477.682 -1535.232)" fill="#23477c"/>
        <path id="Trazado_14812" data-name="Trazado 14812" d="M2548.14,1554.757l-.241.141-38.437,22.193-.242-.141-38.432-22.193,11.709-6.859,26.424-15.47,27.342,15.567,11.639,6.626Z" transform="translate(-2470.788 -1532.428)" fill="#3c6a9e"/>
        <path id="Trazado_14813" data-name="Trazado 14813" d="M2485.226,1556l25.942-15.188,26.811,15.265-26.312,15.192Z" transform="translate(-2472.992 -1533.707)" fill="#ffd561"/>
        <path id="Trazado_14814" data-name="Trazado 14814" d="M2489.353,1556.353l22.458-13.148,23.264,13.246L2512.3,1569.6Z" transform="translate(-2473.622 -1534.073)" fill="#5b95d3"/>
        <path id="Trazado_14815" data-name="Trazado 14815" d="M2510.2,1558.23l5.1-2.987,5.285,3.009-5.175,2.988Z" transform="translate(-2476.804 -1535.911)" fill="#bbe0fd"/>
        <path id="Trazado_14816" data-name="Trazado 14816" d="M2511.811,1544.962l21.732,12.373,1.532-.885-23.264-13.246-22.458,13.148,1.511.873Z" transform="translate(-2473.622 -1534.073)" fill="#183561"/>
      </g>
      <g id="Grupo_27292" data-name="Grupo 27292" transform="translate(2574.243 1357.616)">
        <path id="Trazado_14817" data-name="Trazado 14817" d="M2633.329,1414.484l4.952,3,4.272-2.445a17.809,17.809,0,0,0,2.57.617v2.87h6v-2.77a18.213,18.213,0,0,0,3.252-.718l4.5,2.576,4.953-3-4.5-2.554a4.6,4.6,0,0,0-.079-6.571l4.322-2.473-4.952-2.867-4.3,2.435a18.043,18.043,0,0,0-2.873-.657v-2.821h-5.995v2.825a18.093,18.093,0,0,0-2.845.652l-4.062-2.3-4.952,2.867,4.09,2.34a4.939,4.939,0,0,0-1.423,3.333,4.89,4.89,0,0,0,1.343,3.244Zm11.208-5.665c0-1.262,1.757-2.284,3.922-2.284s3.923,1.023,3.923,2.284-1.757,2.284-3.923,2.284S2644.537,1410.079,2644.537,1408.818Z" transform="translate(-2633.329 -1390.406)" fill="#15325c" opacity="0.33" style="mix-blend-mode: multiply;isolation: isolate"/>
        <path id="Trazado_14818" data-name="Trazado 14818" d="M2633.329,1409.172l4.271-2.422a4.89,4.89,0,0,1-1.343-3.244c0-.6.07-3.848.07-3.848s.9,1.012,1.353.515l-4.09-2.34,4.952-2.867,4.062,2.3a20.121,20.121,0,0,1,11.713,0l4.3-2.435,4.952,2.867-4.322,2.473c.449.493,1.456-.779,1.456-.779s-.036,3.5-.036,4.109a4.89,4.89,0,0,1-1.341,3.242l4.5,2.554-4.953,3-4.5-2.577a20.1,20.1,0,0,1-11.817,0l-4.272,2.444Z" transform="translate(-2633.329 -1389.754)" fill="#e8a302"/>
        <rect id="Rectángulo_6426" data-name="Rectángulo 6426" width="5.995" height="3.91" transform="translate(11.729 19.419)" fill="#fec400"/>
        <path id="Trazado_14819" data-name="Trazado 14819" d="M2638.281,1409.985v4.04l-4.953-3v-4.04Z" transform="translate(-2633.329 -1391.609)" fill="#fec400"/>
        <path id="Trazado_14820" data-name="Trazado 14820" d="M2633.636,1393.606v4.04l3,1.694,1.695-3.649Z" transform="translate(-2633.376 -1389.566)" fill="#fec400"/>
        <path id="Trazado_14821" data-name="Trazado 14821" d="M2663.474,1410.139v4.04l4.952-3v-4.04Z" transform="translate(-2637.931 -1391.632)" fill="#fec400"/>
        <path id="Trazado_14822" data-name="Trazado 14822" d="M2668.19,1393.453v4.04l-3.189,1.824-1.373-3.388Z" transform="translate(-2637.954 -1389.542)" fill="#fec400"/>
        <path id="Trazado_14823" data-name="Trazado 14823" d="M2633.329,1404.217l4.952,3,4.272-2.445a17.809,17.809,0,0,0,2.57.617v2.87h6v-2.77a18.2,18.2,0,0,0,3.252-.718l4.5,2.576,4.953-3-4.5-2.554a4.889,4.889,0,0,0,1.341-3.242,4.94,4.94,0,0,0-1.42-3.33l4.322-2.473-4.952-2.867-4.3,2.435a17.964,17.964,0,0,0-2.873-.657v-2.822h-5.995v2.826a18.079,18.079,0,0,0-2.845.652l-4.062-2.3-4.952,2.867,4.09,2.34a4.939,4.939,0,0,0-1.423,3.333,4.89,4.89,0,0,0,1.343,3.244Zm11.208-5.665c0-1.262,1.757-2.285,3.922-2.285s3.923,1.023,3.923,2.285-1.757,2.283-3.923,2.283S2644.537,1399.812,2644.537,1398.551Z" transform="translate(-2633.329 -1388.838)" fill="#ffd561"/>
      </g>
      <g id="Grupo_27293" data-name="Grupo 27293" transform="translate(2604.065 1340.072)">
        <path id="Trazado_14824" data-name="Trazado 14824" d="M2668.523,1410.753l8.23,4.981,7.1-4.062a29.7,29.7,0,0,0,4.271,1.025v4.77h9.963v-4.6a30.262,30.262,0,0,0,5.4-1.194l7.482,4.282,8.23-4.981-7.485-4.245a7.644,7.644,0,0,0-.131-10.921l7.184-4.11-8.23-4.766-7.137,4.047a30.1,30.1,0,0,0-4.775-1.091V1385.2h-9.963v4.7a30.033,30.033,0,0,0-4.727,1.082l-6.752-3.828-8.23,4.765,6.8,3.889a7.647,7.647,0,0,0-.133,10.929Zm18.627-9.416c0-2.1,2.918-3.8,6.519-3.8s6.518,1.7,6.518,3.8-2.918,3.8-6.518,3.8S2687.15,1403.433,2687.15,1401.337Z" transform="translate(-2668.523 -1370.738)" fill="#15325c" opacity="0.33" style="mix-blend-mode: multiply;isolation: isolate"/>
        <path id="Trazado_14825" data-name="Trazado 14825" d="M2668.523,1401.926l7.1-4.025a8.126,8.126,0,0,1-2.232-5.391c0-1,.115-6.395.115-6.395s1.495,1.683,2.25.857l-6.8-3.889,8.23-4.765,6.752,3.828a33.468,33.468,0,0,1,19.465,0l7.137-4.046,8.23,4.765-7.184,4.111c.747.818,2.418-1.295,2.418-1.295s-.057,5.821-.057,6.828a8.131,8.131,0,0,1-2.229,5.387l7.485,4.245-8.23,4.981-7.483-4.281a33.422,33.422,0,0,1-19.638,0l-7.1,4.062Z" transform="translate(-2668.523 -1369.655)" fill="#e8a302"/>
        <rect id="Rectángulo_6427" data-name="Rectángulo 6427" width="9.963" height="6.498" transform="translate(19.493 32.271)" fill="#fec400"/>
        <path id="Trazado_14826" data-name="Trazado 14826" d="M2676.754,1403.276v6.714l-8.23-4.982v-6.714Z" transform="translate(-2668.523 -1372.737)" fill="#fec400"/>
        <path id="Trazado_14827" data-name="Trazado 14827" d="M2669.035,1376.057v6.714l4.981,2.816,2.815-6.064Z" transform="translate(-2668.601 -1369.343)" fill="#fec400"/>
        <path id="Trazado_14828" data-name="Trazado 14828" d="M2718.622,1403.532v6.714l8.23-4.982v-6.714Z" transform="translate(-2676.171 -1372.776)" fill="#fec400"/>
        <path id="Trazado_14829" data-name="Trazado 14829" d="M2726.458,1375.8v6.714l-5.3,3.032-2.281-5.631Z" transform="translate(-2676.21 -1369.304)" fill="#fec400"/>
        <path id="Trazado_14830" data-name="Trazado 14830" d="M2668.523,1393.69l8.23,4.982,7.1-4.062a29.687,29.687,0,0,0,4.271,1.025v4.77h9.963v-4.6a30.283,30.283,0,0,0,5.4-1.194l7.482,4.282,8.23-4.981-7.485-4.245a7.646,7.646,0,0,0-.131-10.922l7.184-4.11-8.23-4.765-7.137,4.047a30.1,30.1,0,0,0-4.775-1.091v-4.688h-9.963v4.7a30.006,30.006,0,0,0-4.727,1.081l-6.752-3.828-8.23,4.766,6.8,3.889a7.647,7.647,0,0,0-.133,10.929Zm18.627-9.416c0-2.1,2.918-3.8,6.519-3.8s6.518,1.7,6.518,3.8-2.918,3.8-6.518,3.8S2687.15,1386.371,2687.15,1384.274Z" transform="translate(-2668.523 -1368.133)" fill="#ffd561"/>
      </g>
      <g id="Grupo_27294" data-name="Grupo 27294" transform="translate(2542.854 1296.263)">
        <path id="Trazado_14831" data-name="Trazado 14831" d="M2596.286,1351.575l7.1,4.3,6.123-3.5a25.734,25.734,0,0,0,3.684.884v4.114h8.593V1353.4a26.163,26.163,0,0,0,4.661-1.03l6.453,3.692,7.1-4.3-6.456-3.66a6.594,6.594,0,0,0-.114-9.419l6.2-3.545-7.1-4.11-6.156,3.49a25.863,25.863,0,0,0-4.118-.941v-4.044h-8.593v4.05a25.891,25.891,0,0,0-4.077.933l-5.823-3.3-7.1,4.11,5.862,3.354a7.081,7.081,0,0,0-2.04,4.777,7.007,7.007,0,0,0,1.926,4.649Zm16.065-8.121c0-1.808,2.517-3.273,5.621-3.273s5.621,1.465,5.621,3.273-2.517,3.273-5.621,3.273S2612.351,1345.262,2612.351,1343.454Z" transform="translate(-2596.286 -1318.432)" fill="#15325c" opacity="0.33" style="mix-blend-mode: multiply;isolation: isolate"/>
        <path id="Trazado_14832" data-name="Trazado 14832" d="M2596.286,1345.577l6.122-3.471a7.009,7.009,0,0,1-1.926-4.65c0-.863.1-5.515.1-5.515s1.289,1.451,1.94.739l-5.862-3.355,7.1-4.109,5.823,3.3a28.848,28.848,0,0,1,16.788,0l6.155-3.49,7.1,4.11-6.2,3.545c.645.706,2.087-1.117,2.087-1.117s-.051,5.02-.051,5.888a7.013,7.013,0,0,1-1.923,4.648l6.456,3.661-7.1,4.3-6.453-3.693a28.82,28.82,0,0,1-16.937,0l-6.123,3.5Z" transform="translate(-2596.286 -1317.744)" fill="#e8a302"/>
        <rect id="Rectángulo_6428" data-name="Rectángulo 6428" width="8.593" height="5.604" transform="translate(16.812 27.832)" fill="#fec400"/>
        <path id="Trazado_14833" data-name="Trazado 14833" d="M2603.384,1346.741v5.791l-7.1-4.3v-5.791Z" transform="translate(-2596.286 -1320.403)" fill="#fec400"/>
        <path id="Trazado_14834" data-name="Trazado 14834" d="M2596.727,1323.266v5.791l4.3,2.429,2.428-5.23Z" transform="translate(-2596.354 -1317.475)" fill="#fec400"/>
        <path id="Trazado_14835" data-name="Trazado 14835" d="M2639.494,1346.961v5.791l7.1-4.3v-5.791Z" transform="translate(-2602.882 -1320.436)" fill="#fec400"/>
        <path id="Trazado_14836" data-name="Trazado 14836" d="M2646.252,1323.045v5.791l-4.571,2.615-1.967-4.857Z" transform="translate(-2602.916 -1317.442)" fill="#fec400"/>
        <path id="Trazado_14837" data-name="Trazado 14837" d="M2596.286,1338.473l7.1,4.3,6.123-3.5a25.62,25.62,0,0,0,3.684.885v4.113h8.593v-3.97a26.163,26.163,0,0,0,4.661-1.029l6.453,3.692,7.1-4.3L2633.54,1335a6.594,6.594,0,0,0-.114-9.419l6.2-3.545-7.1-4.11-6.156,3.49a25.943,25.943,0,0,0-4.118-.941v-4.043h-8.593v4.049a25.972,25.972,0,0,0-4.077.933l-5.823-3.3-7.1,4.109,5.862,3.355a6.594,6.594,0,0,0-.114,9.426Zm16.065-8.121c0-1.807,2.517-3.273,5.621-3.273s5.621,1.466,5.621,3.273-2.517,3.274-5.621,3.274S2612.351,1332.161,2612.351,1330.352Z" transform="translate(-2596.286 -1316.432)" fill="#ffd561"/>
      </g>
      <g id="Grupo_27297" data-name="Grupo 27297" transform="translate(2395.839 1223.633)">
        <path id="Trazado_14838" data-name="Trazado 14838" d="M2423.281,1276.938l77.367,44.21,76.363-44.21-77.367-46.219Z" transform="translate(-2422.861 -1230.718)" fill="#5b95d3"/>
        <path id="Trazado_14839" data-name="Trazado 14839" d="M2425.643,1448.609l70.2,42.474a5.926,5.926,0,0,0,6.071.039l72.342-42.515a5.926,5.926,0,0,0,.037-10.2l-71.7-42.834a5.927,5.927,0,0,0-6.107.017l-70.838,42.876A5.925,5.925,0,0,0,2425.643,1448.609Z" transform="translate(-2422.786 -1255.756)" fill="#15325c" opacity="0.33" style="mix-blend-mode: multiply;isolation: isolate"/>
        <path id="Trazado_14840" data-name="Trazado 14840" d="M2513.4,1329.293v136.649l77.367-46.219V1284.078Z" transform="translate(-2436.618 -1238.864)" fill="#23477c"/>
        <g id="Grupo_27295" data-name="Grupo 27295" transform="translate(85.825 60.974)">
          <path id="Trazado_14841" data-name="Trazado 14841" d="M2524.072,1452.844V1337.321l59.281-34.645v114.753Zm2.01-114.37V1449.3l55.262-33.014V1306.177Z" transform="translate(-2524.072 -1302.676)" fill="#052754"/>
        </g>
        <path id="Trazado_14842" data-name="Trazado 14842" d="M2423.281,1284.078v135.644l76.363,46.219V1329.293Z" transform="translate(-2422.861 -1238.864)" fill="#3c6a9e"/>
        <path id="Trazado_14843" data-name="Trazado 14843" d="M2432.917,1417.071V1307.5a4.444,4.444,0,0,1,6.71-3.825l51.142,30.28a4.447,4.447,0,0,1,2.181,3.826v110.242a4.446,4.446,0,0,1-6.748,3.8l-51.141-30.954A4.445,4.445,0,0,1,2432.917,1417.071Z" transform="translate(-2424.332 -1241.76)" fill="#23477c"/>
        <path id="Trazado_14844" data-name="Trazado 14844" d="M2441.945,1417.861a4.446,4.446,0,0,1-2.144-3.8V1304.489a4.543,4.543,0,0,1,.041-.6l-.364-.215a4.446,4.446,0,0,0-6.711,3.826v109.568a4.447,4.447,0,0,0,2.144,3.8l51.142,30.954a4.446,4.446,0,0,0,6.708-3.211Z" transform="translate(-2424.31 -1241.76)" fill="#052754"/>
        <path id="Trazado_14845" data-name="Trazado 14845" d="M2494.863,1344.655l-50.238-29.747v17.081l50.238,29.746Z" transform="translate(-2426.12 -1243.57)" fill="#5b95d3"/>
        <path id="Trazado_14846" data-name="Trazado 14846" d="M2494.863,1369.557l-50.238-29.747v17.081l50.238,29.747Z" transform="translate(-2426.12 -1247.371)" fill="#5b95d3"/>
        <path id="Trazado_14847" data-name="Trazado 14847" d="M2494.863,1394.458l-50.238-29.747v17.081l50.238,29.747Z" transform="translate(-2426.12 -1251.172)" fill="#5b95d3"/>
        <path id="Trazado_14848" data-name="Trazado 14848" d="M2494.863,1419.359l-50.238-29.747v17.081l50.238,29.747Z" transform="translate(-2426.12 -1254.973)" fill="#5b95d3"/>
        <path id="Trazado_14849" data-name="Trazado 14849" d="M2494.863,1444.26l-50.238-29.747v17.081l50.238,29.747Z" transform="translate(-2426.12 -1258.775)" fill="#5b95d3"/>
        <g id="Grupo_27296" data-name="Grupo 27296" transform="translate(27.129 79.377)">
          <path id="Trazado_14850" data-name="Trazado 14850" d="M2454.8,1324.395v11.217l32.991,19.534v-11.217Z" transform="translate(-2454.802 -1324.395)" fill="#d6effb"/>
          <path id="Trazado_14851" data-name="Trazado 14851" d="M2454.8,1360.513l32.991,19.534V1368.83L2454.8,1349.3Z" transform="translate(-2454.802 -1328.196)" fill="#d6effb"/>
          <path id="Trazado_14852" data-name="Trazado 14852" d="M2454.8,1385.414l32.991,19.534v-11.217L2454.8,1374.2Z" transform="translate(-2454.802 -1331.997)" fill="#d6effb"/>
          <path id="Trazado_14853" data-name="Trazado 14853" d="M2454.8,1410.316l32.991,19.535v-11.217L2454.8,1399.1Z" transform="translate(-2454.802 -1335.798)" fill="#d6effb"/>
          <path id="Trazado_14854" data-name="Trazado 14854" d="M2454.8,1435.217l32.991,19.534v-11.217L2454.8,1424Z" transform="translate(-2454.802 -1339.599)" fill="#d6effb"/>
        </g>
      </g>
    </g>
  </g>
</svg>
